<svg width="24" height="24" viewBox="0 0 24 24" fill="none" xmlns="http://www.w3.org/2000/svg">
<path fill-rule="evenodd" clip-rule="evenodd" d="M4.14648 9.15338C4.16846 4.83065 7.677 1.33698 11.9998 1.33337C16.3252 1.33331 19.8378 4.82804 19.8598 9.15338C19.8598 12.2603 18.1203 14.856 16.8477 16.755L16.8398 16.7667L16.6064 17.12C15.3328 18.9657 13.9666 20.7457 12.5132 22.4534L12.0065 23.0467L11.4998 22.4534C10.0462 20.7458 8.68001 18.9658 7.40649 17.12L7.17318 16.7734C5.89315 14.8734 4.14648 12.2667 4.14648 9.15338ZM11.9998 5.48004C9.89014 5.48004 8.17985 7.19031 8.17985 9.30005C8.17985 11.4098 9.89014 13.12 11.9998 13.12C14.1095 13.12 15.8198 11.4098 15.8198 9.30005C15.8198 8.28691 15.4174 7.31529 14.701 6.5989C13.9846 5.88251 13.0129 5.48004 11.9998 5.48004Z" fill="#0058A1"/>
<path d="M16 9.5C16 11.7091 14.2091 13.5 12 13.5C9.79086 13.5 8 11.7091 8 9.5C8 7.29086 9.79086 5.5 12 5.5C14.2091 5.5 16 7.29086 16 9.5Z" fill="white"/>
</svg>
