<svg width="1280" height="441" viewBox="0 0 1280 441" fill="none" xmlns="http://www.w3.org/2000/svg">
<path d="M-154.388 690.08C-154.388 690.08 123.297 495.825 334.589 560.887C423.726 588.335 439.807 652.854 501.551 642.312C563.294 631.771 704.849 498.126 764.405 498.484C845.187 498.957 889.395 638.892 964.245 622.675C1075.2 598.643 1140.79 566.986 1306.21 582.599C1444.57 595.653 1625.08 508.761 1625.08 508.761M1624.83 506.192C1624.83 506.192 1445.11 590.49 1306.15 577.043C1252.31 571.885 1208.92 571.77 1170.99 574.866C1092.52 581.264 1038.13 600.633 963.412 616.459C888.355 632.154 844.049 492.79 762.952 492.093C703.26 491.595 562.12 624.128 500.084 634.724C438.403 645.245 421.982 581.387 333.147 554.297C121.702 490.29 -155.35 683.669 -155.35 683.669M1624.57 503.626C1624.57 503.626 1445.64 585.315 1306.07 571.487C1252.27 566.256 1208.77 566.102 1170.61 569.251C1091.77 575.731 1037.2 594.994 962.568 610.244C887.357 625.613 842.914 486.614 761.503 485.701C701.658 485.056 560.948 616.491 498.61 627.101C436.987 637.607 420.288 574.223 331.701 547.673C120.243 484.305 -156.312 677.249 -156.312 677.249M1624.32 501.059C1624.32 501.059 1446.18 580.147 1305.98 565.935C1252.23 560.63 1208.61 560.435 1170.24 563.631C1091.02 570.211 1036.26 589.258 961.724 604.031C886.334 618.973 841.775 480.434 760.051 479.313C700.063 478.542 559.772 608.838 497.15 619.506C435.597 629.994 418.576 567.179 330.266 541.077C118.713 478.55 -157.275 670.832 -157.275 670.832M1624.06 498.493C1624.06 498.493 1446.71 574.978 1305.91 560.382C1252.19 555.004 1208.46 554.766 1169.87 558.012C1090.26 564.687 1035.32 583.518 960.88 597.815C885.311 612.329 840.64 474.257 758.599 472.924C698.471 472.017 558.599 601.196 495.672 611.89C434.181 622.359 416.845 560.102 328.807 534.465C117.179 472.795 -158.236 664.423 -158.236 664.423M1623.8 495.927C1623.8 495.927 1447.28 569.502 1305.82 554.83C1252.16 549.263 1208.31 549.099 1169.49 552.393C1089.52 559.16 1034.38 577.774 960.036 591.598C884.288 605.689 839.501 468.08 757.147 466.535C696.875 465.488 557.425 593.551 494.204 604.285C432.775 614.738 415.123 553.07 327.367 527.859C115.646 467.044 -159.199 658.002 -159.199 658.002M1623.55 493.36C1623.55 493.36 1447.8 564.277 1305.75 549.276C1252.12 543.613 1208.15 543.43 1169.12 546.773C1088.78 553.631 1033.43 572.03 959.195 585.404C883.263 599.063 838.368 461.918 755.696 460.161C695.281 458.981 556.254 585.924 492.738 596.697C431.371 607.134 413.405 546.034 325.925 521.263C114.109 461.289 -160.161 651.585 -160.161 651.585M1623.29 490.794C1623.29 490.794 1448.35 559.05 1305.66 543.725C1252.1 537.963 1208.02 537.761 1168.75 541.159C1088.04 548.104 1032.49 566.284 958.349 579.17C882.233 592.398 837.223 455.724 754.242 453.755C693.68 452.447 555.08 578.279 491.263 589.074C429.962 599.491 411.679 538.969 324.48 514.647C112.569 455.54 -161.124 645.169 -161.124 645.169M1623.03 488.228C1623.03 488.228 1448.89 553.827 1305.59 538.168C1252.04 532.319 1207.85 532.094 1168.38 535.539C1087.3 542.576 1031.54 560.537 957.502 572.957C881.206 585.754 836.092 449.546 752.789 447.366C692.09 445.909 553.904 570.619 489.794 581.468C428.537 591.872 409.956 531.921 323.021 508.042C111.025 449.794 -162.088 638.741 -162.088 638.741M1622.78 485.659C1622.78 485.659 1449.43 548.588 1305.51 532.613C1252 526.672 1207.7 526.424 1168 529.933C1086.54 537.064 1030.6 554.803 956.659 566.754C880.176 579.117 834.959 443.382 751.338 440.986C690.496 439.397 552.731 562.986 488.327 573.876C427.151 584.261 408.23 524.892 321.59 501.451C109.48 444.042 -163.048 632.337 -163.048 632.337M1622.52 483.093C1622.52 483.093 1449.97 543.381 1305.42 527.061C1251.96 521.026 1207.54 520.756 1167.63 524.298C1085.79 531.522 1029.64 549.027 955.813 560.526C879.142 572.455 833.817 437.186 749.888 434.582C688.89 432.854 551.555 555.326 486.857 566.255C425.743 576.62 406.502 517.834 320.145 494.829C107.933 438.301 -164.011 625.92 -164.011 625.92M1622.25 480.527C1622.25 480.527 1450.5 538.159 1305.33 521.509C1251.91 515.381 1207.38 515.089 1167.25 518.683C1085.03 525.999 1028.69 543.285 954.958 554.31C878.099 565.805 832.671 431.01 748.424 428.194C687.294 426.329 550.381 547.68 485.377 558.65C424.325 568.999 404.764 510.792 318.69 488.224C106.386 432.558 -164.973 619.502 -164.973 619.502M1622 477.961C1622 477.961 1451.05 532.94 1305.26 515.957C1251.88 509.736 1207.24 509.421 1166.88 513.064C1084.29 520.469 1027.75 537.531 954.125 548.094C877.075 559.155 831.544 424.833 746.983 421.806C685.712 419.8 549.208 540.04 483.916 551.045C422.93 561.378 403.045 503.75 317.254 481.618C104.832 426.823 -165.935 613.087 -165.935 613.087M1621.75 475.394C1621.75 475.394 1451.59 527.721 1305.19 510.399C1251.85 504.09 1207.09 503.752 1166.52 507.444C1083.55 514.941 1026.8 531.773 953.285 541.88C876.043 552.5 830.412 418.655 745.542 415.411C684.128 413.273 548.049 532.392 482.458 543.438C421.535 553.751 401.326 496.709 315.821 475.01C103.277 421.078 -166.897 606.673 -166.897 606.673M1621.49 472.841C1621.49 472.841 1452.13 522.517 1305.1 504.861C1251.8 498.463 1206.93 498.098 1166.14 501.839C1082.8 509.429 1025.85 526.024 952.438 535.663C875.003 545.846 829.269 412.474 744.078 409.023C682.52 406.744 546.864 524.747 480.978 535.833C420.117 546.129 399.584 489.671 314.367 468.408C101.723 415.34 -167.859 600.255 -167.859 600.255M1621.24 470.258C1621.24 470.258 1452.68 517.282 1305.02 499.294C1251.76 492.821 1206.77 492.416 1165.76 496.206C1082.04 503.887 1024.88 520.254 951.586 529.451C873.958 539.185 828.127 406.298 742.618 402.635C680.92 400.22 545.682 517.102 479.5 528.209C418.701 538.49 397.841 482.619 312.913 461.783C100.161 409.604 -168.822 593.838 -168.822 593.838M1620.98 467.689C1620.98 467.689 1453.21 512.067 1304.94 493.74C1251.72 487.159 1206.63 486.746 1165.39 490.577C1081.3 498.347 1023.93 514.477 950.748 523.222C872.924 532.522 827.009 400.106 741.17 396.222C679.328 393.666 544.512 509.432 478.038 520.598C417.301 530.859 396.115 475.579 311.472 455.172C98.6003 403.874 -169.785 587.42 -169.785 587.42M1620.72 465.122C1620.72 465.122 1453.75 506.852 1304.86 488.187C1251.68 481.517 1206.47 481.077 1165.02 484.968C1080.55 492.827 1022.97 508.726 949.902 517.02C871.885 525.876 825.867 393.766 739.721 389.851C677.74 387.037 543.342 501.813 476.568 513.015C415.898 523.259 394.384 468.566 310.032 448.588C97.0356 398.142 -170.746 581.006 -170.746 581.006M1620.46 462.554C1620.46 462.554 1454.29 501.636 1304.79 482.633C1251.64 475.875 1206.32 475.408 1164.65 479.348C1079.8 487.3 1022 502.959 949.058 510.803C870.844 519.215 824.73 387.577 738.272 383.461C676.147 380.504 542.168 494.167 475.1 505.409C414.491 515.637 392.652 461.535 308.588 441.98C95.4714 392.414 -171.709 574.588 -171.709 574.588M1620.21 459.989C1620.21 459.989 1454.83 496.425 1304.7 477.078C1251.6 470.238 1206.17 469.741 1164.27 473.729C1079.05 481.774 1021.06 497.19 948.214 504.587C869.8 512.555 823.595 381.393 736.82 377.073C674.554 373.971 540.994 486.522 473.624 497.804C413.077 508.013 390.908 454.506 307.137 435.376C93.8998 386.687 -172.671 568.172 -172.671 568.172M1619.95 457.423C1619.95 457.423 1455.37 491.216 1304.62 471.526C1251.57 464.597 1206.01 464.074 1163.9 468.115C1078.31 476.266 1020.1 491.419 947.371 498.375C868.759 505.891 822.459 375.209 735.368 370.682C672.961 367.439 539.82 478.877 472.162 490.191C411.678 500.384 389.18 447.48 305.696 428.762C92.3438 380.963 -173.633 561.756 -173.633 561.756M1619.69 454.857C1619.69 454.857 1455.91 486.005 1304.54 465.974C1251.53 458.959 1205.87 458.424 1163.53 462.495C1077.56 470.721 1019.14 485.648 946.526 492.159C867.728 499.225 821.322 369.025 733.915 364.293C671.364 360.911 538.646 471.236 470.694 482.593C410.272 492.77 387.439 440.45 304.254 422.167C90.7579 375.246 -174.593 555.361 -174.593 555.361M1619.43 452.289C1619.43 452.289 1456.45 480.777 1304.46 460.419C1251.47 453.318 1205.71 452.736 1163.16 456.874C1076.81 465.192 1018.18 479.871 945.675 485.946C866.661 492.563 820.179 362.84 732.457 357.919C669.765 354.392 537.486 463.602 469.22 475.002C408.86 485.159 385.698 433.438 302.819 415.573C89.1834 369.525 -175.558 548.924 -175.558 548.924M1619.18 449.721C1619.18 449.721 1456.99 475.583 1304.38 454.865C1251.44 447.677 1205.56 447.07 1162.78 451.254C1076.06 459.664 1017.21 474.094 944.838 479.726C865.616 485.878 819.05 356.652 731.01 351.512C668.179 347.853 536.298 455.941 467.753 467.379C407.459 477.52 383.978 426.393 301.366 408.951C87.6081 363.827 -176.52 542.506 -176.52 542.506M1618.92 447.155C1618.92 447.155 1457.53 470.376 1304.3 449.309C1251.41 442.028 1205.41 441.41 1162.41 445.639C1075.32 454.138 1016.25 468.316 944.006 473.513C864.584 479.224 817.925 350.467 729.569 345.119C666.592 341.312 535.136 448.295 466.31 459.771C406.079 469.895 382.236 419.372 299.945 402.343C86.0244 358.095 -177.483 536.09 -177.483 536.09M1618.67 444.59C1618.67 444.59 1458.07 465.16 1304.22 443.758C1251.37 436.403 1205.26 435.736 1162.04 440.021C1074.57 448.612 1015.29 462.539 943.151 467.299C863.523 472.556 816.767 344.287 728.109 338.733C664.988 334.782 533.951 440.657 464.817 452.178C404.659 462.281 380.483 412.365 298.477 395.752C84.4438 352.386 -178.444 529.678 -178.444 529.678M1618.41 442.021C1618.41 442.021 1458.61 459.964 1304.14 438.203C1251.33 430.762 1205.1 430.065 1161.66 434.398C1073.82 443.082 1014.32 456.753 942.303 461.08C862.473 465.882 815.642 338.098 726.657 332.341C663.395 328.25 532.777 433.008 463.346 444.558C403.244 454.65 378.739 405.333 297.032 389.136C82.8594 346.677 -179.407 523.258 -179.407 523.258M1618.15 439.455C1618.15 439.455 1459.15 454.761 1304.06 432.65C1251.29 425.125 1204.97 424.398 1161.29 428.783C1073.07 437.559 1013.36 450.971 941.459 454.872C861.423 459.208 814.506 331.913 725.211 325.948C661.805 321.717 531.61 425.362 461.885 436.952C401.845 447.027 377.001 398.295 295.595 382.529C81.2714 340.971 -180.369 516.841 -180.369 516.841M1617.9 436.888C1617.9 436.888 1459.7 449.556 1303.99 427.096C1251.26 419.489 1204.81 418.727 1160.93 423.159C1072.33 432.027 1012.41 445.179 940.626 448.65C860.383 452.531 813.379 325.712 723.763 319.559C660.216 315.187 530.432 417.717 460.416 429.346C400.442 439.401 375.266 391.299 294.152 375.922C79.6852 335.276 -181.331 510.428 -181.331 510.428M1617.64 434.322C1617.64 434.322 1460.25 444.356 1303.9 421.545C1251.21 413.856 1204.64 413.061 1160.54 417.545C1071.58 426.502 1011.43 439.395 939.773 442.45C859.323 445.866 812.235 319.552 722.301 313.183C658.613 308.667 529.256 410.083 458.938 421.753C399.026 431.793 373.516 384.309 292.699 369.329C78.0972 329.597 -182.292 504.022 -182.292 504.022M1617.38 431.755C1617.38 431.755 1460.77 439.158 1303.83 415.987C1251.18 408.217 1204.5 407.387 1160.18 411.923C1070.84 420.962 1010.47 433.603 938.938 436.221C858.282 439.175 811.11 313.362 720.858 306.781C657.026 302.118 528.093 402.429 457.479 414.135C397.629 424.158 371.778 377.271 291.265 362.713C76.5032 323.873 -183.256 497.594 -183.256 497.594M1617.12 429.189C1617.12 429.189 1461.3 433.96 1303.74 410.436C1251.13 402.585 1204.34 401.724 1159.8 406.306C1070.08 415.448 1009.49 427.812 938.084 430.01C857.216 432.495 809.964 307.19 719.395 300.391C655.423 295.598 526.905 394.77 456 406.531C396.208 416.535 370.022 370.263 289.81 356.109C74.9064 318.184 -184.218 491.177 -184.218 491.177M1616.86 426.621C1616.86 426.621 1461.84 428.758 1303.65 404.884C1251.07 396.948 1204.17 396.057 1159.41 400.687C1069.32 409.922 1008.51 422.019 937.224 423.793C856.145 425.813 808.813 301.013 717.927 294.002C653.829 289.063 525.744 387.137 454.53 398.92C394.802 408.893 368.272 363.248 288.362 349.497C73.308 312.486 -185.166 484.756 -185.166 484.756M1616.61 424.051C1616.61 424.051 1462.39 423.562 1303.58 399.33C1251.05 391.312 1204.03 390.379 1159.05 395.07C1068.58 404.393 1007.56 416.22 936.395 417.571C855.108 419.122 807.69 294.812 716.493 287.607C652.232 282.531 524.559 379.489 453.058 391.315C393.397 401.279 366.528 356.242 286.918 342.891C71.712 306.804 -186.143 478.345 -186.143 478.345M1616.35 421.485C1616.35 421.485 1462.93 418.363 1303.5 393.777C1251.01 385.682 1203.88 384.719 1158.68 389.45C1067.84 398.866 1006.59 410.423 935.551 411.363C854.045 412.441 806.547 288.632 715.041 281.223C650.64 276.005 523.386 371.851 451.59 383.714C391.992 393.668 364.78 349.24 285.475 336.289C70.1123 301.123 -187.105 471.929 -187.105 471.929M1616.1 418.917C1616.1 418.917 1463.47 413.17 1303.42 388.224C1250.97 380.047 1203.73 379.05 1158.31 383.83C1067.09 393.339 1005.62 404.622 934.707 405.145C852.996 405.75 805.419 282.449 713.588 274.829C649.062 269.473 522.215 364.205 450.121 376.107C390.587 386.053 363.032 342.234 284.032 329.685C68.5088 295.441 -188.067 465.511 -188.067 465.511M1615.86 416.347C1615.86 416.347 1464.02 407.97 1303.36 382.663C1250.94 374.409 1203.59 373.363 1157.95 378.207C1066.36 387.808 1004.65 398.819 933.875 398.929C851.955 399.057 804.298 276.265 712.151 268.437C647.465 262.943 521.056 356.552 448.667 368.498C389.197 378.435 361.295 335.228 282.599 323.076C66.9057 289.762 -189.029 459.096 -189.029 459.096M1615.58 413.783C1615.58 413.783 1464.54 402.781 1303.26 377.114C1250.89 368.777 1203.42 367.712 1157.57 372.588C1065.6 382.282 1003.69 393.009 933.027 392.714C850.895 392.365 803.159 270.085 710.695 262.049C645.869 256.414 519.879 348.911 447.199 360.892C387.773 370.794 359.548 328.23 281.156 316.47C65.3148 284.087 -189.963 452.69 -189.963 452.69M1615.33 411.217C1615.33 411.217 1465.08 397.59 1303.18 371.562C1250.85 363.149 1203.27 362.045 1157.19 366.99C1064.85 376.769 1002.7 387.228 932.174 386.518C849.829 385.69 802.011 263.922 709.233 255.674C644.271 249.902 518.696 341.283 445.713 353.305C386.369 363.188 357.783 321.247 279.699 309.881C63.6942 278.421 -190.954 446.263 -190.954 446.263M1615.07 408.65C1615.07 408.65 1465.62 392.393 1303.1 366.008C1250.8 357.507 1203.12 356.377 1156.81 361.356C1064.1 371.23 1001.74 381.403 931.328 380.286C848.77 378.978 800.873 257.725 707.779 249.27C642.668 243.358 517.52 333.626 444.242 345.684C384.96 355.551 356.03 314.238 278.242 303.261C62.0813 272.756 -191.917 439.846 -191.917 439.846M1614.81 406.084C1614.81 406.084 1466.16 387.209 1303.02 360.455C1250.77 351.883 1202.96 350.708 1156.44 355.735C1063.35 365.699 1000.76 375.595 930.484 374.069C847.709 372.281 799.737 251.54 706.327 242.88C641.075 236.829 516.338 325.981 442.778 338.077C383.557 347.924 354.298 307.237 276.81 296.652C60.4768 267.094 -192.874 433.439 -192.874 433.439M1614.55 403.52C1614.55 403.52 1466.7 382.023 1302.94 354.901C1250.73 346.256 1202.81 345.042 1156.08 350.117C1062.61 360.173 999.806 369.783 929.652 367.858C846.663 365.582 798.614 245.364 704.889 236.492C639.49 230.301 515.184 318.343 441.317 330.473C382.159 340.304 352.541 300.246 275.374 290.051C58.8608 261.433 -193.841 427.014 -193.841 427.014M1614.3 400.949C1614.3 400.949 1467.24 376.831 1302.86 349.345C1250.69 340.621 1202.66 339.37 1155.69 344.499C1061.85 354.643 998.819 363.965 928.796 361.638C845.593 358.875 797.467 239.18 703.425 230.097C637.885 223.765 513.998 310.687 439.836 322.865C380.741 332.68 350.764 293.255 273.919 283.442C57.2459 255.779 -194.801 420.611 -194.801 420.611M1614.04 398.382C1614.04 398.382 1467.78 371.646 1302.78 343.792C1250.64 334.992 1202.51 333.702 1155.32 338.88C1061.1 349.117 997.85 358.149 927.953 355.426C844.535 352.171 796.331 233 701.973 223.708C636.289 217.24 512.824 303.046 438.364 315.26C379.334 325.055 349.018 286.265 272.475 276.836C55.6317 250.13 -195.765 414.187 -195.765 414.187M1613.78 395.816C1613.78 395.816 1468.31 366.458 1302.7 338.24C1250.61 329.361 1202.35 328.034 1154.95 333.26C1060.36 343.589 996.884 352.348 927.109 349.209C843.477 345.467 795.192 226.819 700.521 217.319C634.686 210.716 511.65 295.4 436.894 307.643C377.926 317.422 347.262 279.263 271.026 270.219C54.0137 244.482 -196.727 407.766 -196.727 407.766M1613.53 393.249C1613.53 393.249 1468.85 361.273 1302.62 332.685C1250.57 323.733 1202.21 322.364 1154.59 327.631C1059.62 338.053 995.915 346.504 926.271 342.987C842.428 338.75 794.066 220.628 699.078 210.921C633.114 204.176 510.486 287.745 435.437 300.039C376.531 309.802 345.52 272.279 269.594 263.614C52.3925 238.84 -197.69 401.348 -197.69 401.348M1613.27 390.684C1613.27 390.684 1469.39 356.095 1302.54 327.135C1250.53 318.105 1202.05 316.698 1154.21 322.026C1058.86 332.537 994.944 340.694 925.417 336.781C841.355 332.049 792.921 214.462 697.615 204.539C631.508 197.657 509.304 280.125 433.958 292.444C375.115 302.187 343.754 265.307 268.144 257.021C50.7725 233.205 -198.653 394.929 -198.653 394.929M1613.01 388.117C1613.01 388.117 1469.93 350.91 1302.47 321.576C1250.5 312.473 1201.93 311.025 1153.84 316.404C1058.13 327.007 993.978 334.87 924.588 330.562C840.311 325.335 791.801 208.279 696.176 198.133C629.929 191.115 508.142 272.451 432.503 284.821C373.722 294.548 342.015 258.315 266.71 250.398C49.1655 227.551 -199.598 388.498 -199.598 388.498M1612.75 385.535C1612.75 385.535 1470.46 345.713 1302.38 316.009C1250.44 306.832 1201.74 305.345 1153.45 310.771C1057.36 321.481 993 329.042 923.73 324.354C839.237 318.624 790.65 202.102 694.711 191.764C628.319 184.605 506.955 264.825 431.018 277.235C372.303 286.946 340.245 251.345 265.254 243.815C47.5292 221.938 -200.577 382.101 -200.577 382.101M1612.49 382.984C1612.49 382.984 1470.99 340.552 1302.28 310.473C1250.38 301.219 1201.57 299.693 1153.07 305.167C1056.6 315.955 992.001 323.221 922.87 318.135C838.162 311.906 789.497 195.923 693.247 185.368C626.711 178.073 505.766 257.176 429.534 269.627C370.881 279.317 338.473 244.361 263.791 237.202C45.8919 216.313 -201.554 375.681 -201.554 375.681M1612.24 380.411C1612.24 380.411 1471.54 335.37 1302.22 304.918C1250.36 295.597 1201.44 294.023 1152.71 299.545C1055.87 310.426 991.06 317.386 922.041 311.92C837.118 305.17 788.376 189.739 691.809 178.977C625.13 171.546 504.621 249.527 428.076 262.019C369.485 271.694 336.728 237.381 262.358 230.594C44.2786 210.702 -202.505 369.266 -202.505 369.266M1611.98 377.847C1611.98 377.847 1472.07 330.195 1302.14 299.367C1250.32 289.965 1201.28 288.356 1152.34 293.931C1055.12 304.901 990.072 311.563 921.197 305.705C836.06 298.467 787.241 183.564 690.357 172.59C623.537 165.018 503.432 241.885 426.611 254.415C368.083 264.074 334.973 230.408 260.919 223.993C42.653 205.083 -203.464 362.85 -203.464 362.85M1611.73 375.277C1611.73 375.277 1472.61 325.016 1302.06 293.808C1250.27 284.337 1201.13 282.685 1151.96 288.309C1054.37 299.371 989.116 305.723 920.353 299.489C834.996 291.742 786.117 177.382 688.901 166.199C621.938 158.491 502.255 234.241 425.139 246.807C366.672 256.446 333.214 223.431 259.471 217.384C41.024 199.463 -204.43 356.427 -204.43 356.427M1611.48 372.71C1611.48 372.71 1473.15 319.839 1301.98 288.255C1250.24 278.709 1200.98 277.016 1151.6 282.69C1053.63 293.844 988.134 299.894 919.513 293.272C833.942 285.019 784.97 171.203 687.457 159.816C620.354 151.976 501.09 226.606 423.675 239.212C365.279 248.834 331.464 216.471 258.048 210.786C39.3964 193.858 -205.388 350.017 -205.388 350.017M1611.21 370.146C1611.21 370.146 1473.69 314.68 1301.9 282.704C1250.2 273.085 1200.83 271.35 1151.22 277.072C1052.86 288.321 987.155 294.058 918.662 287.058C832.881 278.294 783.831 165.028 686 153.419C618.75 145.419 499.911 218.951 422.204 231.612C363.877 241.217 329.702 209.507 256.586 204.188C37.7718 188.272 -206.35 343.602 -206.35 343.602M1610.96 367.577C1610.96 367.577 1474.22 309.493 1301.82 277.148C1250.16 267.456 1200.67 265.68 1150.85 271.454C1052.12 282.79 986.184 288.221 917.818 280.843C831.826 271.579 782.696 158.848 684.547 147.027C617.16 138.91 498.737 211.303 420.733 223.989C362.46 233.575 327.941 202.519 255.14 197.564C36.1393 182.657 -207.314 337.171 -207.314 337.171M1610.7 365.01C1610.7 365.01 1474.75 304.305 1301.74 271.595C1250.12 261.829 1200.52 260.011 1150.47 265.838C1051.38 277.266 985.227 282.383 916.957 274.617C830.761 264.83 781.542 152.673 683.098 140.634C615.563 132.38 497.552 203.662 419.264 216.383C361.054 225.953 326.181 195.545 253.696 190.957C34.5061 177.067 -208.275 330.768 -208.275 330.768M1610.45 362.444C1610.45 362.444 1475.29 299.152 1301.66 266.043C1250.07 256.204 1200.37 254.343 1150.1 260.215C1050.64 271.735 984.242 276.559 916.126 268.414C829.7 258.1 780.418 146.495 681.642 134.246C613.967 125.856 496.389 196.016 417.791 208.775C359.644 218.332 324.417 188.591 252.246 184.356C32.8826 171.462 -209.256 324.354 -209.256 324.354M1610.19 359.879C1610.19 359.879 1475.83 293.981 1301.58 260.496C1250.03 250.59 1200.22 248.684 1149.73 254.605C1049.9 266.201 983.285 270.708 915.294 262.205C828.657 251.369 779.295 140.321 680.203 127.865C612.384 119.338 495.228 188.378 416.335 201.176C358.25 210.714 322.672 181.636 250.814 177.757C31.2504 165.904 -210.197 317.928 -210.197 317.928M1609.93 357.311C1609.93 357.311 1476.36 288.811 1301.5 254.934C1249.99 244.954 1200.06 243.007 1149.36 248.976C1049.16 260.678 982.3 264.855 914.461 255.981C827.609 244.624 778.167 134.134 678.76 121.465C610.798 112.802 494.064 180.722 414.873 193.561C356.854 203.082 320.921 174.663 249.381 171.14C29.611 160.321 -211.165 311.518 -211.165 311.518M1609.67 354.744C1609.67 354.744 1476.9 283.645 1301.42 249.381C1249.95 239.332 1199.91 237.339 1148.98 243.36C1048.39 255.15 981.339 259.011 913.598 249.767C826.542 237.886 777.013 127.959 677.289 115.075C609.186 106.275 492.871 173.082 413.385 185.957C355.425 195.463 319.145 167.706 247.918 164.536C27.9655 154.752 -212.128 305.105 -212.128 305.105M1609.42 352.185C1609.42 352.185 1477.43 278.499 1301.34 243.817C1249.9 233.679 1199.76 231.658 1148.6 237.73C1047.63 249.612 980.354 253.155 912.749 243.54C825.47 231.134 775.869 121.775 675.831 108.675C607.585 99.7392 491.692 165.426 411.911 178.341C354.017 187.826 317.379 160.737 246.466 157.919C26.3428 149.179 -213.105 298.689 -213.105 298.689M1609.16 349.61C1609.16 349.61 1477.97 273.311 1301.26 238.275C1249.86 228.083 1199.6 226.001 1148.24 232.121C1046.89 244.095 979.389 247.315 911.91 237.337C824.419 224.398 774.74 115.608 674.384 102.296C605.998 93.2238 490.523 157.79 410.448 170.745C352.616 180.214 315.623 153.792 245.028 151.33C24.7069 143.624 -214.059 292.274 -214.059 292.274M1608.9 347.044C1608.9 347.044 1478.5 268.151 1301.18 232.719C1249.82 222.461 1199.45 220.333 1147.86 226.502C1046.15 238.569 978.417 241.466 911.063 231.122C823.363 217.653 773.601 109.432 672.932 95.9086C604.402 86.6997 489.35 150.146 408.979 163.14C351.209 172.594 313.864 146.842 243.584 144.721C23.0749 138.069 -215.013 285.865 -215.013 285.865M1608.65 344.478C1608.65 344.478 1479.03 262.986 1301.1 227.166C1249.78 216.838 1199.3 214.665 1147.49 220.886C1045.4 233.042 977.444 235.616 910.219 224.909C822.307 210.907 772.466 103.255 671.483 89.5153C602.808 80.1892 488.175 142.5 407.507 155.535C349.803 164.968 312.103 139.887 242.14 138.114C21.4396 132.518 -215.976 279.44 -215.976 279.44M1608.39 341.91C1608.39 341.91 1479.57 257.824 1301.02 221.613C1249.74 211.214 1199.15 208.996 1147.11 215.267C1044.64 227.516 976.47 229.761 909.363 218.693C821.239 204.157 771.319 97.0777 670.008 83.1283C601.191 73.6506 486.98 134.86 406.016 147.931C348.374 157.348 310.321 132.941 240.67 131.51C19.8014 126.973 -216.954 273.024 -216.954 273.024M1608.13 339.34C1608.13 339.34 1480.1 252.663 1300.94 216.06C1249.7 205.592 1198.99 203.328 1146.74 209.646C1043.9 221.987 975.492 223.908 908.531 212.478C820.196 197.405 770.188 90.9039 668.578 76.7367C599.617 67.1227 485.828 127.212 404.569 140.322C346.975 149.726 308.583 125.987 239.249 124.901C18.1659 121.422 -217.902 266.605 -217.902 266.605M1607.88 336.774C1607.88 336.774 1480.62 247.508 1300.86 210.508C1249.66 199.959 1198.86 197.658 1146.37 204.046C1043.16 216.479 974.548 218.07 907.689 206.281C819.146 190.67 769.06 84.745 667.147 70.3605C598.043 60.614 484.671 119.583 403.122 132.733C345.584 142.106 306.832 119.043 237.808 118.317C16.5316 115.905 -218.865 260.181 -218.865 260.181M1607.62 334.2C1607.62 334.2 1481.17 242.338 1300.76 204.95C1249.6 194.343 1198.67 191.986 1145.98 198.403C1042.39 210.929 973.555 212.189 906.823 200.041C818.051 183.891 767.899 78.5448 665.654 63.9507C596.41 54.0674 483.46 111.916 401.62 125.105C344.165 134.471 305.049 112.091 236.35 111.686C14.8962 110.38 -219.826 253.775 -219.826 253.775M1607.36 331.64C1607.36 331.64 1481.7 237.188 1300.7 199.398C1249.57 188.725 1198.54 186.323 1145.62 192.793C1041.65 205.407 972.597 206.337 905.988 193.834C817.027 177.136 766.773 72.377 664.21 57.5676C594.822 47.548 482.295 104.28 400.148 117.507C342.759 126.856 303.291 105.154 234.903 105.087C13.2461 104.86 -220.803 247.359 -220.803 247.359M1607.1 329.074C1607.1 329.074 1482.22 232.02 1300.61 193.846C1249.52 183.106 1198.38 180.655 1145.24 187.173C1040.9 199.879 971.633 200.474 905.147 187.616C815.977 170.373 765.638 66.1991 662.761 51.1777C593.23 41.0218 481.123 96.6184 398.684 109.9C341.356 119.229 301.537 98.2135 233.456 98.4801C11.6272 99.3443 -221.75 240.939 -221.75 240.939M1606.85 326.508C1606.85 326.508 1482.77 226.889 1300.54 188.293C1249.49 177.485 1198.23 174.987 1144.88 181.554C1040.16 194.353 970.678 194.615 904.312 181.411C814.938 163.619 764.508 60.0341 661.317 44.7931C591.63 34.4987 479.961 89.0032 397.234 102.294C339.969 111.607 299.793 91.2731 232.039 91.8716C9.99023 93.8365 -222.713 234.524 -222.713 234.524M1606.59 323.939C1606.59 323.939 1483.3 221.734 1300.46 182.738C1249.45 171.859 1198.08 169.316 1144.51 175.931C1039.42 188.834 969.713 188.762 903.456 175.186C813.875 156.844 763.361 53.8482 659.856 38.3951C590.038 27.9704 478.773 81.3415 395.743 94.6881C338.54 103.985 298.015 84.3522 230.573 85.2692C8.34766 88.3441 -223.701 228.111 -223.701 228.111M1606.33 321.373C1606.33 321.373 1483.83 216.571 1300.38 177.186C1249.4 166.227 1197.93 163.649 1144.12 170.319C1038.65 183.299 968.732 182.888 902.605 168.975C812.82 150.08 762.219 47.6768 658.4 32.0079C588.438 21.4507 477.596 73.7014 394.27 87.0804C337.129 96.3576 296.247 77.3995 229.119 78.6425C6.72236 82.8381 -224.652 221.694 -224.652 221.694M1606.09 318.804C1606.09 318.804 1484.37 211.416 1300.31 171.628C1249.37 160.618 1197.79 157.979 1143.77 164.684C1037.93 177.757 967.793 177.006 901.785 162.743C811.797 143.306 761.099 41.5044 656.962 25.6128C586.861 14.9225 476.437 66.0532 392.813 79.4762C335.738 88.7369 294.504 70.4644 227.693 72.0558C5.09164 77.3501 -225.6 215.274 -225.6 215.274M1605.82 316.238C1605.82 316.238 1484.89 206.267 1300.23 166.074C1249.33 154.998 1197.63 152.309 1143.4 159.074C1037.18 172.24 966.834 171.15 900.945 156.529C810.752 136.527 759.993 35.3108 655.524 19.2134C585.279 8.38679 475.275 58.3898 391.358 71.86C334.343 81.0861 292.757 63.522 226.263 65.4389C3.46913 71.8643 -226.562 208.856 -226.562 208.856M1605.56 313.671C1605.56 313.671 1485.42 201.117 1300.14 160.511C1249.26 149.371 1197.47 146.631 1143.01 153.445C1036.42 166.714 965.854 165.273 900.086 150.314C809.688 129.751 758.82 29.1379 654.056 12.8222C583.667 1.85932 474.087 50.7493 389.874 64.252C332.923 73.4694 290.985 56.5909 224.805 58.8412C1.82526 66.3894 -227.524 202.442 -227.524 202.442M1605.31 311.105C1605.31 311.105 1485.95 195.968 1300.05 154.969C1249.23 143.758 1197.32 140.974 1142.64 147.84C1035.67 161.187 964.895 159.414 899.243 144.108C808.66 122.985 757.687 22.9755 652.605 6.4445C582.073 -4.65094 472.914 43.1149 388.407 56.6574C331.519 65.8662 289.226 49.6738 223.365 52.2342C0.197272 60.9205 -228.501 196.027 -228.501 196.027M1605.05 308.539C1605.05 308.539 1486.48 190.824 1299.98 149.436C1249.19 138.159 1197.16 135.325 1142.27 142.24C1034.93 155.679 963.933 153.564 898.402 137.915C807.602 116.229 756.551 16.8184 651.142 0.0581145C580.47 -11.1704 471.738 35.4783 386.928 49.0653C330.104 58.2656 287.459 42.7625 221.905 45.6461C-1.43341 55.4606 -229.449 189.609 -229.449 189.609M1604.79 305.973C1604.79 305.973 1487.01 185.679 1299.89 143.866C1249.14 132.523 1197 129.639 1141.89 136.603C1034.17 150.135 962.962 147.676 897.548 131.68C806.549 109.421 755.403 10.6275 649.693 -6.33515C578.877 -17.6999 470.563 27.8288 385.458 41.4482C328.701 50.6394 285.701 35.8224 220.463 39.0277C-3.05929 50.0065 -230.411 183.191 -230.411 183.191M1604.53 303.406C1604.53 303.406 1487.54 180.534 1299.82 138.308C1249.1 126.903 1196.86 123.97 1141.52 130.983C1033.43 144.607 962.008 141.8 896.712 125.466C805.519 102.649 754.268 4.4538 648.267 -12.7277C577.304 -24.2245 469.412 20.1838 384.012 33.8393C327.315 42.9958 283.954 28.9074 219.027 32.4201C-4.68838 44.5567 -231.373 176.778 -231.373 176.778M1604.28 300.85C1604.28 300.85 1488.07 175.399 1299.73 132.759C1249.06 121.288 1196.71 118.305 1141.15 125.367C1032.68 139.079 961.044 135.93 895.868 119.253C804.474 95.8704 753.138 -1.71664 646.799 -19.1184C575.693 -30.7515 468.222 12.5327 382.528 26.2318C325.906 35.3894 282.196 21.9748 217.58 25.814C-6.31284 39.1138 -232.35 170.363 -232.35 170.363M1604.02 298.27C1604.02 298.27 1488.59 170.244 1299.65 127.2C1249.02 115.664 1196.55 112.631 1140.78 119.745C1031.93 133.546 960.09 130.049 895.02 113.031C803.431 89.082 751.999 -7.89584 645.346 -25.5096C574.097 -37.2753 467.049 4.89219 381.059 18.6274C324.49 27.7476 280.437 15.0554 216.136 19.2051C-7.94013 33.6767 -233.298 163.941 -233.298 163.941M1603.76 295.702C1603.76 295.702 1489.12 165.106 1299.58 121.649C1248.98 110.047 1196.4 106.964 1140.41 114.127C1031.19 128.021 959.136 124.176 894.18 106.82C802.411 82.2918 750.86 -14.0775 643.894 -31.8996C572.506 -43.7946 465.875 -2.75078 379.582 11.0444C323.087 20.1471 278.673 8.15683 214.684 12.6251C-9.56159 28.2552 -234.26 157.527 -234.26 157.527M1603.51 293.135C1603.51 293.135 1489.65 159.964 1299.49 116.096C1248.93 104.429 1196.24 101.296 1140.03 108.507C1030.44 122.494 958.172 118.279 893.332 100.603C801.353 75.5069 749.726 -20.2408 642.442 -38.2819C570.91 -50.3169 464.701 -10.3936 378.119 3.42178C321.678 12.5095 276.927 1.22569 213.264 5.99926C-11.1814 22.8489 -235.222 151.116 -235.222 151.116M1603.25 290.569C1603.25 290.569 1490.18 154.827 1299.4 110.546C1248.87 98.8164 1196.08 95.6305 1139.64 102.898C1029.68 116.977 957.207 112.429 892.475 94.4007C800.318 68.7169 748.599 -26.4144 640.989 -44.6774C569.314 -56.8411 463.529 -18.0308 376.65 -4.18681C320.264 4.88214 275.16 -5.69323 211.802 -0.607584C-12.7996 17.4214 -236.199 144.698 -236.199 144.698M1602.99 288.001C1602.99 288.001 1490.7 149.685 1299.33 104.979C1248.84 93.1945 1195.94 89.9508 1139.28 97.2639C1028.94 111.42 956.261 106.532 891.643 88.1654C799.277 61.9212 747.45 -32.5877 639.538 -51.0605C567.716 -63.3792 462.354 -25.678 375.182 -11.7868C318.866 -2.73488 273.417 -12.6028 210.359 -7.20833C-14.4194 12.0142 -237.147 138.277 -237.147 138.277M1602.74 285.434C1602.74 285.434 1491.23 144.547 1299.25 99.433C1248.8 87.5756 1195.79 84.2901 1138.91 91.6516C1028.19 105.911 955.308 100.66 890.801 81.9598C798.245 55.126 746.311 -38.761 638.088 -57.4575C566.123 -69.8896 461.18 -33.3313 373.712 -19.4002C317.458 -10.3643 271.661 -19.5206 208.912 -13.8337C-16.034 6.61558 -238.109 131.86 -238.109 131.86M1602.48 282.863C1602.48 282.863 1491.76 139.409 1299.17 93.8761C1248.76 81.9566 1195.64 78.6282 1138.54 86.0274C1027.45 100.38 954.353 94.7729 889.956 75.7387C797.212 48.3265 745.138 -44.7174 636.636 -63.8472C564.504 -76.2721 460.005 -40.9777 372.244 -27.0067C316.052 -17.9906 269.907 -26.4315 207.471 -20.4261C-17.6476 1.2237 -239.073 125.431 -239.073 125.431M1602.22 280.299C1602.22 280.299 1492.28 134.28 1299.09 88.3264C1248.71 76.3412 1195.48 72.9524 1138.16 80.4117C1026.7 94.8565 953.403 88.8967 889.112 69.5253C796.179 41.531 743.999 -50.8984 635.201 -70.2236C562.925 -82.7847 458.867 -48.6096 370.788 -34.5995C314.659 -25.5957 268.17 -33.3254 206.041 -27.0158C-19.2571 -4.16449 -240.049 119.03 -240.049 119.03M1601.96 277.733C1601.96 277.733 1492.81 129.142 1299.01 82.7734C1248.67 70.7262 1195.33 67.2834 1137.79 74.7915C1025.95 89.3288 952.433 83.0156 888.271 63.3269C795.159 34.7414 742.873 -57.0623 633.733 -76.6147C561.317 -89.3126 457.659 -56.2548 369.304 -42.2075C313.24 -33.2239 266.404 -40.2345 204.583 -33.6134C-20.8685 -9.53742 -240.996 112.611 -240.996 112.611M1601.71 275.166C1601.71 275.166 1493.33 124.013 1298.93 77.2136C1248.62 65.105 1195.18 61.6161 1137.42 69.1727C1025.2 83.7986 951.497 77.1274 887.413 57.0938C794.109 27.9305 741.717 -63.255 632.271 -83.0205C559.711 -95.8584 456.476 -63.9136 367.825 -49.8302C311.824 -40.8626 264.64 -47.1578 203.128 -40.248C-22.4709 -14.9026 -241.958 106.194 -241.958 106.194M1601.45 272.601C1601.45 272.601 1493.86 118.88 1298.85 71.6652C1248.6 59.4926 1195.03 55.9484 1137.05 63.5576C1024.46 78.276 950.546 71.245 886.581 50.884C793.09 21.1231 740.593 -69.4293 630.83 -89.4063C558.128 -102.366 455.314 -71.5561 366.369 -57.4329C310.43 -48.4814 262.903 -54.0579 201.696 -46.8515C-24.0766 -20.2635 -242.92 99.7818 -242.92 99.7818M1601.19 270.033C1601.19 270.033 1494.38 113.749 1298.77 66.1115C1248.54 53.8788 1194.87 50.2791 1136.68 57.9367C1023.7 72.748 949.6 65.3749 885.748 44.6645C792.075 14.313 739.465 -75.6126 629.399 -95.8033C556.556 -108.911 454.162 -79.2061 364.922 -65.043C309.045 -56.1112 261.175 -60.9654 200.271 -53.4581C-25.6588 -25.6184 -243.898 93.3653 -243.898 93.3653M1600.94 267.467C1600.94 267.467 1494.9 108.621 1298.69 60.5586C1248.49 48.2607 1194.72 44.6107 1136.3 52.3177C1022.96 67.221 948.647 59.4733 884.889 38.4501C791.033 7.50428 738.315 -81.7915 627.921 -102.192C554.933 -115.439 452.961 -86.8517 363.412 -72.6468C307.598 -63.731 259.385 -67.8629 198.771 -60.0606C-27.2736 -30.9635 -244.845 86.9463 -244.845 86.9463M1600.7 264.897C1600.7 264.897 1495.45 103.492 1298.63 55.0036C1248.47 42.6432 1194.59 38.9398 1135.95 46.6994C1022.23 61.6914 947.718 53.5834 884.064 32.2346C790.03 0.697765 737.199 -87.9676 626.492 -108.58C553.357 -121.963 451.8 -94.4913 361.974 -80.2528C306.211 -71.3516 257.67 -74.7631 197.376 -66.6699C-28.8664 -36.2852 -245.807 80.5293 -245.807 80.5293M1600.43 262.332C1600.43 262.332 1495.95 98.3644 1298.53 49.448C1248.41 37.0262 1194.41 33.2691 1135.56 41.0958C1021.46 56.1803 946.753 47.712 883.203 26.034C788.987 -6.11258 736.026 -94.1412 625.02 -114.972C551.745 -128.492 450.614 -102.137 360.486 -87.8574C304.8 -78.978 255.901 -81.6614 195.914 -73.2753C-30.4585 -41.6274 -246.77 74.1145 -246.77 74.1145M1600.17 259.766C1600.17 259.766 1496.48 93.2506 1298.45 43.8959C1248.36 31.4158 1194.26 27.5972 1135.18 35.4616C1020.72 50.6385 945.807 41.8095 882.358 19.8066C787.964 -12.9237 734.906 -100.324 623.568 -121.36C550.149 -135.017 449.44 -109.782 359.016 -95.4741C303.392 -86.6107 254.155 -88.5685 194.469 -79.8927C-32.0473 -46.9493 -247.747 67.6997 -247.747 67.6997M1599.91 257.198C1599.91 257.198 1497 88.1135 1298.37 38.3424C1248.32 25.8007 1194.11 21.9362 1134.81 29.8415C1019.96 45.1113 944.859 35.9178 881.513 13.5894C786.944 -19.7399 733.767 -106.501 622.108 -127.749C548.548 -141.545 448.259 -117.427 357.541 -103.068C301.98 -94.2208 252.404 -95.453 193.015 -86.4871C-33.6314 -52.2613 -248.694 61.28 -248.694 61.28M1599.65 254.633C1599.65 254.633 1497.52 82.9934 1298.29 32.7908C1248.27 20.184 1193.96 16.2692 1134.44 24.2276C1019.22 39.5857 943.915 30.0313 880.67 7.37794C785.924 -26.5542 732.632 -112.677 620.663 -134.137C546.96 -148.07 447.093 -125.069 356.092 -110.675C300.592 -101.847 250.675 -102.346 191.591 -93.0909C-35.2145 -57.5677 -249.656 54.8643 -249.656 54.8643M1599.4 252.063C1599.4 252.063 1498.04 77.8723 1298.23 27.2368C1248.24 14.5717 1193.82 10.5884 1134.08 18.6064C1018.47 34.059 942.974 24.136 879.821 1.15114C784.906 -33.3847 731.491 -118.868 619.209 -140.541C545.362 -154.61 445.917 -132.725 354.607 -118.289C299.173 -109.478 248.922 -109.248 190.134 -99.7066C-36.7702 -62.8673 -250.618 48.4514 -250.618 48.4514M1599.14 249.516C1599.14 249.516 1498.57 72.7703 1298.14 21.7011C1248.18 8.97455 1193.65 4.94842 1133.69 13.0041C1017.73 28.5471 942.032 18.2633 878.98 -5.03531C783.891 -40.1894 730.358 -125.034 617.758 -146.918C543.771 -161.124 444.749 -140.359 353.14 -125.884C297.768 -117.089 247.18 -116.118 188.683 -106.312C-38.3654 -68.1503 -251.593 42.0553 -251.593 42.0553M1598.88 246.929C1598.88 246.929 1499.07 67.6303 1298.04 16.1293C1248.13 3.34446 1193.49 -0.735179 1133.31 7.36894C1016.97 23.0006 941.081 12.3556 878.126 -11.2675C782.871 -47.003 729.211 -131.212 616.298 -153.307C542.167 -167.653 443.567 -148.006 351.664 -133.486C296.354 -124.711 245.431 -123.015 187.237 -112.904C-39.9344 -73.4352 -252.543 35.6158 -252.543 35.6158M1598.63 244.363C1598.63 244.363 1499.61 62.5113 1297.97 10.5761C1248.09 -2.27023 1193.35 -6.40393 1132.94 1.74213C1016.22 17.4663 940.147 6.4557 877.289 -17.4919C781.863 -53.8424 728.083 -137.397 614.856 -159.708C540.581 -174.187 442.399 -155.659 350.201 -141.103C294.954 -132.344 243.693 -129.915 185.8 -119.522C-41.4977 -78.7069 -253.505 29.2032 -253.505 29.2032M1598.37 241.795C1598.37 241.795 1500.11 57.3944 1297.89 5.02212C1248.05 -7.88622 1193.19 -12.0739 1132.57 -3.86777C1015.48 11.96 939.207 0.569532 876.446 -23.6988C780.85 -60.6606 726.941 -143.571 613.404 -166.091C538.985 -180.717 441.227 -163.295 348.733 -148.703C293.549 -139.96 241.955 -136.795 184.36 -126.104C-43.0411 -83.9722 -254.468 22.7846 -254.468 22.7846M1598.11 239.23C1598.11 239.23 1500.64 52.262 1297.81 -0.529518C1248 -13.4956 1193.04 -17.7405 1132.2 -9.486C1014.72 6.42083 938.27 -5.32547 875.602 -29.9141C779.841 -67.4801 725.81 -149.747 611.952 -172.479C537.39 -187.233 440.053 -170.939 347.261 -156.307C292.142 -147.584 240.219 -143.68 182.914 -132.724C-44.6168 -89.2226 -255.445 16.3709 -255.445 16.3709M1597.86 236.663C1597.86 236.663 1501.16 47.1634 1297.73 -6.08287C1247.96 -19.103 1192.89 -23.4094 1131.83 -15.106C1013.98 0.89227 937.333 -11.2222 874.759 -36.1274C778.83 -74.3126 724.671 -155.924 610.507 -178.869C535.805 -193.764 438.886 -178.586 345.8 -163.914C290.743 -155.207 238.489 -150.548 181.474 -139.332C-46.1696 -94.4742 -256.392 9.95136 -256.392 9.95136M1597.6 234.095C1597.6 234.095 1501.68 42.038 1297.65 -11.636C1247.91 -24.7256 1192.73 -29.0781 1131.45 -20.7262C1013.24 -4.63652 936.395 -17.1155 873.915 -42.3446C777.827 -81.1464 723.536 -162.106 609.047 -185.261C534.201 -200.289 437.705 -186.231 344.326 -171.505C289.332 -162.814 236.746 -157.434 180.025 -145.923C-47.7168 -99.7115 -257.354 3.53734 -257.354 3.53734M1597.33 231.531C1597.33 231.531 1502.19 36.9337 1297.56 -17.1913C1247.86 -30.3349 1192.57 -34.7452 1131.08 -26.3567C1012.49 -10.1792 935.456 -23.0232 873.069 -48.5726C776.82 -87.9717 722.394 -168.298 607.593 -191.665C532.603 -206.829 436.529 -193.888 342.853 -179.14C287.924 -170.47 235.006 -164.346 178.584 -152.56C-49.2538 -104.927 -258.317 -2.87991 -258.317 -2.87991M1597.09 228.963C1597.09 228.963 1502.73 31.8214 1297.49 -22.7448C1247.83 -35.9504 1192.43 -40.4142 1130.71 -31.9608C1011.74 -15.6895 934.528 -28.9047 872.231 -54.7738C775.814 -94.8033 721.262 -174.459 606.15 -198.039C531.022 -213.329 435.365 -201.519 341.394 -186.731C286.528 -178.077 233.284 -171.214 177.144 -159.147C-50.7935 -110.167 -259.294 -9.29398 -259.294 -9.29398M1596.83 226.394C1596.83 226.394 1503.13 27.0819 1297.41 -28.3001C1247.75 -41.4763 1192.28 -46.085 1130.33 -37.5828C1010.99 -21.2189 933.605 -34.8059 871.378 -60.9922C774.815 -101.629 720.126 -180.639 604.69 -204.43C529.416 -219.871 434.183 -209.166 339.914 -194.338C285.114 -185.7 231.545 -178.095 175.688 -165.755C-52.3266 -115.382 -260.242 -15.716 -260.242 -15.716M1596.57 223.83C1596.57 223.83 1503.67 21.9158 1297.33 -33.8461C1247.71 -47.0961 1192.13 -51.747 1129.96 -43.1959C1010.24 -26.7396 932.657 -40.6943 870.536 -67.1987C773.811 -108.466 718.988 -186.813 603.242 -210.816C527.839 -226.396 433.01 -216.805 338.446 -201.938C283.708 -193.319 229.814 -184.975 174.245 -172.355C-53.8544 -120.589 -261.203 -22.1266 -261.203 -22.1266M1596.32 221.261C1596.32 221.261 1504.21 16.7416 1297.26 -39.4049C1247.68 -52.7286 1191.98 -57.4208 1129.6 -48.8213C1009.5 -32.272 931.734 -46.5975 869.699 -73.4211C772.821 -115.31 717.86 -192.997 601.795 -217.222C526.239 -232.925 431.836 -224.452 336.977 -209.544C282.313 -200.944 228.095 -191.849 172.802 -178.963C-55.377 -125.784 -262.165 -28.5448 -262.165 -28.5448M1596.06 218.697C1596.06 218.697 1504.73 11.5752 1297.17 -44.9597C1247.63 -58.3528 1191.8 -63.0849 1129.21 -54.4348C1008.75 -37.7973 930.797 -52.493 868.849 -79.6247C771.819 -122.135 716.729 -199.166 600.338 -223.591C524.629 -239.466 430.649 -232.08 335.508 -217.153C280.895 -208.567 226.345 -198.724 171.357 -185.572C-56.8915 -130.975 -263.143 -34.959 -263.143 -34.959M1595.8 216.128C1595.8 216.128 1505.26 6.40512 1297.09 -50.5139C1247.58 -63.9844 1191.67 -68.7572 1128.84 -60.0524C1008 -43.3374 929.867 -58.3884 868.003 -85.8468C770.814 -128.981 715.578 -205.351 598.884 -229.992C523.046 -245.98 429.486 -239.755 334.039 -224.761C279.486 -216.205 224.629 -205.604 169.91 -192.176C-58.4011 -136.158 -264.091 -41.3799 -264.091 -41.3799M1595.54 213.561C1595.54 213.561 1505.81 1.22246 1297.01 -56.0675C1247.54 -69.6112 1191.51 -74.4263 1128.47 -65.6763C1007.25 -48.854 928.965 -64.3586 867.159 -92.064C769.875 -135.926 714.439 -211.532 597.429 -236.397C521.44 -252.523 428.311 -247.405 332.565 -232.381C278.079 -223.831 222.923 -212.407 168.482 -198.808C-59.8132 -140.958 -265.052 -47.7939 -265.052 -47.7939M1595.29 210.991C1595.29 210.991 1459.37 -117.375 1128.1 -71.2958C814.372 -27.6576 787.551 -201.859 595.979 -242.771C294.733 -307.134 -266.015 -54.2109 -266.015 -54.2109" stroke="#2C2C2C" stroke-miterlimit="10"/>
</svg>
