<svg width="17" height="16" viewBox="0 0 17 16" fill="none" xmlns="http://www.w3.org/2000/svg">
<path d="M11.8898 0.345017C11.6719 0.128706 11.32 0.129949 11.1037 0.347795C10.8874 0.565641 10.8886 0.917595 11.1065 1.13391L14.1953 4.18391H6.97312C4.10791 4.12435 1.58618 6.06385 0.908389 8.84838C0.230602 11.6329 1.57885 14.5144 4.1509 15.7783C4.43011 15.921 4.77211 15.8103 4.91479 15.5311C5.05746 15.2519 4.94678 14.9099 4.66757 14.7672C2.97716 13.9286 1.90286 12.2098 1.88979 10.3228C1.91423 7.54333 4.18248 5.30738 6.96201 5.32279H14.1842L11.1065 8.36724C10.9776 8.58965 11.0181 8.87144 11.2044 9.04852C11.3907 9.22561 11.6742 9.25173 11.8898 9.11168L16.3342 4.71724L11.8898 0.345017Z" fill="#0058A1"/>
</svg>
