<!-- Generated by IcoMoon.io -->
<svg version="1.1" xmlns="http://www.w3.org/2000/svg" width="36" height="32" viewBox="0 0 36 32">
<title>arrow-back-2</title>
<path d="M10.431 0.458c-0.236 0.072-0.441 0.168-0.629 0.288l0.010-0.006c-0.408 0.274-8.673 9.667-8.885 10.097-0.121 0.254-0.192 0.552-0.192 0.866 0 0.417 0.125 0.805 0.339 1.129l-0.005-0.008c0.092 0.135 2.070 2.321 4.397 4.857 4.838 5.276 4.486 4.957 5.478 4.957 0.65 0 0.957-0.117 1.407-0.538 0.42-0.392 0.633-0.888 0.637-1.48 0.006-0.818-0.022-0.856-2.911-4.003-1.397-1.522-2.539-2.791-2.539-2.82 0-0.031 3.905-0.046 9.24-0.035l9.238 0.018 0.506 0.135c2.003 0.536 3.629 2.081 4.37 4.159 0.565 1.582 0.565 3.517-0.001 5.092-0.584 1.629-1.752 2.986-3.186 3.709-0.941 0.473-1.798 0.618-3.661 0.618-1.457 0-1.699 0.057-2.219 0.525-1.084 0.974-0.842 2.701 0.469 3.346l0.403 0.199 1.448 0.019c1.53 0.021 2.314-0.038 3.167-0.235 3.232-0.747 5.882-3.026 7.222-6.205 2.020-4.793 0.565-10.504-3.435-13.487-1.269-0.946-2.474-1.491-4.058-1.839l-0.602-0.131-9.511-0.021c-5.231-0.011-9.511-0.039-9.511-0.063 0-0.025 1.178-1.382 2.618-3.015s2.673-3.086 2.741-3.225c0.399-0.831 0.255-1.728-0.384-2.367-0.272-0.285-0.63-0.487-1.033-0.562l-0.012-0.002c-0.399-0.085-0.504-0.082-0.915 0.028z"></path>
</svg>
