<svg width="22" height="20" viewBox="0 0 22 20" fill="none" xmlns="http://www.w3.org/2000/svg">
<path d="M11.2189 0.867237L5.04557 6.20057H1.04557C0.677409 6.20057 0.378906 6.49903 0.378906 6.86724V13.4806C0.378906 13.8488 0.677409 14.1472 1.04557 14.1472H4.91894L11.2256 19.6406C11.4203 19.8118 11.6967 19.8545 11.9341 19.7501C12.1715 19.6457 12.3267 19.4132 12.3323 19.1539V1.34726C12.3265 1.08652 12.1692 0.853077 11.9297 0.749806C11.6902 0.646534 11.4124 0.692433 11.2189 0.867237Z" fill="#8A92A6"/>
<path d="M16.0789 18.9872C15.7717 18.9854 15.5055 18.7739 15.4343 18.475C15.3632 18.1761 15.5055 17.8673 15.779 17.7273C18.6327 16.3211 20.4306 13.4063 20.4064 10.225C20.3823 7.04371 18.5404 4.15659 15.6656 2.79391C15.4443 2.69447 15.2945 2.48268 15.2745 2.24089C15.2545 1.99911 15.3673 1.76555 15.5693 1.63103C15.7712 1.49651 16.0302 1.48231 16.2456 1.59392C19.5848 3.17034 21.728 6.51791 21.7621 10.2104C21.7962 13.9029 19.7152 17.2894 16.4056 18.9273C16.3611 18.9479 16.3145 18.9634 16.2669 18.9738C16.2055 18.9871 16.1422 18.9917 16.0789 18.9872Z" fill="#8A92A6"/>
<path d="M13.9567 14.5541C14.0406 14.8416 14.306 15.0379 14.6055 15.0339C14.7271 15.0278 14.8446 14.9887 14.9456 14.9205C16.5714 13.9022 17.5452 12.1069 17.5125 10.1887C17.4798 8.27056 16.4451 6.50957 14.7856 5.54721C14.5789 5.41586 14.3168 5.40834 14.103 5.52768C13.8892 5.64702 13.758 5.87399 13.7613 6.11887C13.7646 6.3637 13.9019 6.58705 14.1189 6.70057C15.3796 7.42624 16.1668 8.76031 16.1928 10.2147C16.2187 11.6691 15.4795 13.0304 14.2455 13.8005C13.9909 13.9583 13.8727 14.2665 13.9567 14.5541Z" fill="#8A92A6"/>
</svg>
