<svg width="20" height="20" viewBox="0 0 20 20" fill="none" xmlns="http://www.w3.org/2000/svg">
<path d="M2.01278 0.867188C1.25065 0.867188 0.632812 1.48504 0.632812 2.24718V18.1539C0.632812 18.916 1.25065 19.5339 2.01278 19.5339H6.58618C7.34831 19.5339 7.96615 18.916 7.96615 18.1539V2.24719C7.96615 1.48504 7.34831 0.867188 6.58618 0.867188H2.01278Z" fill="#0058A1"/>
<path d="M13.3461 0.867188C12.584 0.867188 11.9661 1.48504 11.9661 2.24718V18.1539C11.9661 18.916 12.584 19.5339 13.3461 19.5339H17.9195C18.6816 19.5339 19.2995 18.916 19.2995 18.1539V2.24719C19.2995 1.48504 18.6816 0.867188 17.9195 0.867188H13.3461Z" fill="#0058A1"/>
</svg>
