<svg width="20" height="20" viewBox="0 0 20 20" fill="none" xmlns="http://www.w3.org/2000/svg">
<path d="M0 18.1338C0 18.8702 0.596924 19.4671 1.33333 19.4671C1.60205 19.4599 1.8623 19.3716 2.08 19.2138L13.4534 11.0338C13.8024 10.7834 14.0094 10.3801 14.0094 9.95048C14.0094 9.52088 13.8024 9.11759 13.4534 8.86715L2.08 0.740481C1.67399 0.465996 1.15015 0.436353 0.71582 0.663282C0.281413 0.890211 0.0065918 1.33713 0 1.82715V18.1338Z" fill="#8A92A6"/>
<path d="M16.6333 0.647148C15.8969 0.647148 15.3 1.2441 15.3 1.98048V17.9805C15.3 18.7169 15.8969 19.3138 16.6333 19.3138H18.6333C19.3697 19.3138 19.9666 18.7169 19.9666 17.9805V1.98048C19.9666 1.2441 19.3697 0.647148 18.6333 0.647148H16.6333Z" fill="#8A92A6"/>
</svg>
