<svg width="22" height="20" viewBox="0 0 22 20" fill="none" xmlns="http://www.w3.org/2000/svg">
<path d="M11.9399 0.672404C12.1784 0.780151 12.3317 1.01746 12.332 1.27913V9.89246L6.94539 4.51245L11.2254 0.779134C11.422 0.606404 11.7014 0.564697 11.9399 0.672404Z" fill="#8A92A6"/>
<path d="M16.1987 10.1991C16.1903 8.72107 15.402 7.35734 14.1254 6.61247H14.1321C13.915 6.49894 13.7778 6.27559 13.7745 6.03076C13.7712 5.78589 13.9023 5.55892 14.1162 5.43958C14.33 5.32023 14.592 5.32776 14.7987 5.45911C16.4839 6.44462 17.5232 8.24695 17.5321 10.1991C17.5302 11.5075 17.0568 12.7714 16.1987 13.7591L15.252 12.8125C15.8613 12.0776 16.196 11.1537 16.1987 10.1991Z" fill="#8A92A6"/>
<path d="M17.1987 16.6458L2.08537 1.53243L1.13867 2.47241L4.8654 6.1991H0.998698C0.630534 6.1991 0.332031 6.49756 0.332031 6.86576V13.5324C0.332031 13.9006 0.630534 14.1991 0.998698 14.1991H4.88533L11.2253 19.7324C11.422 19.9052 11.7014 19.9469 11.9399 19.8391C12.1783 19.7314 12.3317 19.4941 12.332 19.2324V13.6658L16.0587 17.3924C15.9454 17.4591 15.832 17.5258 15.7187 17.5858C15.5055 17.693 15.3657 17.9057 15.352 18.1439C15.3382 18.3821 15.4526 18.6095 15.6519 18.7406C15.8514 18.8716 16.1055 18.8863 16.3187 18.7791C16.5653 18.6524 16.7987 18.5124 17.0387 18.3658L18.4653 19.7924L19.4054 18.8658L17.2387 16.6991L17.1987 16.6458Z" fill="#8A92A6"/>
<path d="M20.1729 8.54264C19.6626 5.96326 17.9574 3.77954 15.5787 2.65914V2.65247C15.2582 2.48637 15.1281 2.09542 15.2852 1.77043C15.4422 1.44543 15.8294 1.30448 16.1587 1.45243C18.9278 2.76151 20.908 5.31095 21.4913 8.31791C22.0745 11.3248 21.191 14.4298 19.112 16.6791L18.1654 15.7325C19.9382 13.7906 20.6833 11.1221 20.1729 8.54264Z" fill="#8A92A6"/>
</svg>
