<svg width="18" height="20" viewBox="0 0 18 20" fill="none" xmlns="http://www.w3.org/2000/svg">
<path d="M4.9987 6.1991L11.2253 0.779134C11.422 0.606404 11.7014 0.564697 11.9399 0.672404C12.1783 0.780151 12.3317 1.01746 12.332 1.27913V19.2325C12.3317 19.4941 12.1783 19.7314 11.9399 19.8392C11.7014 19.9469 11.422 19.9051 11.2253 19.7325L4.88533 14.1991H0.998698C0.630534 14.1991 0.332031 13.9006 0.332031 13.5324V6.86576C0.332031 6.4976 0.630534 6.1991 0.998698 6.1991H4.9987Z" fill="#8A92A6"/>
<path d="M13.9565 14.4593C14.0404 14.7469 14.3058 14.9431 14.6054 14.9391C14.7277 14.9476 14.8499 14.9222 14.9587 14.8658C16.6023 13.8495 17.5881 12.0418 17.5526 10.1097C17.517 8.17769 16.4653 6.40755 14.7854 5.45243C14.5787 5.32108 14.3166 5.31356 14.1029 5.4329C13.889 5.55225 13.7578 5.77921 13.7611 6.02409C13.7644 6.26892 13.9017 6.49227 14.1187 6.60579C15.3794 7.33146 16.1667 8.66553 16.1926 10.1199C16.2186 11.5743 15.4793 12.9356 14.2454 13.7058C13.9907 13.8635 13.8726 14.1718 13.9565 14.4593Z" fill="#8A92A6"/>
</svg>
