<!-- Generated by IcoMoon.io -->
<svg version="1.1" xmlns="http://www.w3.org/2000/svg" width="32" height="32" viewBox="0 0 32 32">
<title>bag</title>
<path d="M15.715 0.129l0.009-0c3.268 0.009 6.311 2.090 6.998 5.287 0.206 0.96-0.405 1.905-1.365 2.112s-1.905-0.405-2.111-1.365c-0.279-1.298-1.648-2.471-3.526-2.478-1.87 0.007-3.238 1.171-3.524 2.464-0.212 0.959-1.161 1.564-2.12 1.352s-1.564-1.161-1.352-2.12c0.703-3.179 3.736-5.243 6.991-5.252zM6.643 7.746c0.022-0.001 0.043-0.001 0.065-0.001h18.018c0.022 0 0.043 0 0.065 0.001 1.801 0.066 3.554 1.35 3.75 3.33l2.84 14.948c0.002 0.009 0.003 0.018 0.005 0.028 0.001 0.008 0.003 0.017 0.004 0.025 0.176 1.109-0.19 2.198-0.93 2.996-0.73 0.788-1.752 1.225-2.796 1.274-0.028 0.001-0.056 0.002-0.083 0.002h-23.73c-0.028 0-0.056-0.001-0.083-0.002-1.043-0.049-2.065-0.486-2.796-1.274-0.74-0.798-1.106-1.887-0.93-2.996 0.003-0.018 0.006-0.035 0.009-0.053l2.84-14.948c0.196-1.98 1.949-3.264 3.75-3.33zM6.75 11.301c-0.141 0.010-0.237 0.062-0.287 0.106-0.020 0.017-0.029 0.030-0.034 0.037-0.005 0.069-0.014 0.138-0.027 0.206l-2.845 14.976c0.001 0.001 0.001 0.002 0.002 0.003 0.004 0.006 0.010 0.016 0.022 0.029 0.048 0.051 0.158 0.122 0.325 0.137h23.621c0.167-0.015 0.277-0.085 0.325-0.137 0.012-0.013 0.018-0.022 0.022-0.029 0.001-0.001 0.001-0.002 0.002-0.003l-2.845-14.976c-0.013-0.068-0.022-0.137-0.027-0.206-0.004-0.007-0.014-0.019-0.034-0.037-0.050-0.044-0.146-0.096-0.287-0.106h-17.933zM25.007 11.45c-0 0-0.001-0.001-0.002-0.004 0.001 0.002 0.002 0.004 0.002 0.004zM6.427 11.45c-0-0 0-0.001 0.002-0.004-0.001 0.003-0.001 0.004-0.002 0.004z"></path>
</svg>
