<!-- Generated by IcoMoon.io -->
<svg version="1.1" xmlns="http://www.w3.org/2000/svg" width="36" height="32" viewBox="0 0 36 32">
<title>basket_icon</title>
<path d="M31.203 16.171l-1.712-0.478-0.022 0.079-0.015 0.081 1.749 0.318zM28.628 18.477l0.040-1.777-0.020-0h-0.020v1.778zM15.755 18.477v-1.778h-0.020l-0.020 0 0.040 1.777zM13.18 16.171l1.749-0.318-0.015-0.081-0.022-0.079-1.712 0.478zM1.778 1.014c-0.982 0-1.778 0.796-1.778 1.778s0.796 1.778 1.778 1.778v-3.556zM33.148 9.199v0zM7.912 3.478v0zM6.508 4.569l2.694 3.465 2.807-2.182-2.694-3.465-2.807 2.182zM31.436 8.721l-1.945 6.971 3.425 0.956 1.945-6.971-3.425-0.956zM29.454 15.852c-0.054 0.299-0.195 0.529-0.352 0.67l2.373 2.648c0.784-0.702 1.291-1.658 1.477-2.681l-3.498-0.637zM29.102 16.522c-0.152 0.136-0.307 0.181-0.434 0.178l-0.080 3.555c1.077 0.024 2.098-0.378 2.887-1.085l-2.373-2.648zM28.628 16.7h-12.873v3.556h12.873v-3.556zM15.715 16.7c-0.127 0.003-0.282-0.042-0.434-0.178l-2.373 2.648c0.789 0.707 1.809 1.109 2.887 1.085l-0.080-3.555zM15.281 16.522c-0.157-0.141-0.297-0.371-0.352-0.67l-3.498 0.637c0.186 1.023 0.693 1.979 1.477 2.681l2.373-2.648zM14.892 15.693l-2.575-9.227-3.425 0.956 2.575 9.227 3.425-0.956zM10.605 8.721h20.831v-3.556h-20.831v3.556zM6.508 1.014h-4.73v3.556h4.73v-3.556zM16 27.89c0-0.149 0.113-0.209 0.178-0.209v3.556c1.832 0 3.378-1.465 3.378-3.346h-3.556zM16.178 27.681c0.065 0 0.178 0.061 0.178 0.209h-3.556c0 1.881 1.546 3.346 3.378 3.346v-3.556zM16.356 27.89c0 0.148-0.113 0.209-0.178 0.209v-3.556c-1.832 0-3.378 1.465-3.378 3.346h3.556zM16.178 28.099c-0.065 0-0.178-0.061-0.178-0.209h3.556c0-1.881-1.546-3.346-3.378-3.346v3.556zM27.2 27.89c0-0.149 0.113-0.209 0.178-0.209v3.556c1.832 0 3.378-1.465 3.378-3.346h-3.556zM27.378 27.681c0.065 0 0.178 0.061 0.178 0.209h-3.556c0 1.881 1.546 3.346 3.378 3.346v-3.556zM27.556 27.89c0 0.148-0.113 0.209-0.178 0.209v-3.556c-1.832 0-3.378 1.465-3.378 3.346h3.556zM27.378 28.099c-0.065 0-0.178-0.061-0.178-0.209h3.556c0-1.881-1.546-3.346-3.378-3.346v3.556zM34.861 9.677c0.632-2.267-1.072-4.511-3.425-4.511v3.556l3.425 0.956zM9.315 2.387c-0.674-0.867-1.71-1.373-2.807-1.373v3.556l2.807-2.182z"></path>
</svg>
