<svg viewBox="0 0 25 25" fill="none" xmlns="http://www.w3.org/2000/svg">
<path d="M18.8516 8.5C18.8516 6.9087 18.2194 5.38258 17.0942 4.25736C15.969 3.13214 14.4429 2.5 12.8516 2.5C11.2603 2.5 9.73414 3.13214 8.60892 4.25736C7.4837 5.38258 6.85156 6.9087 6.85156 8.5C6.85156 15.5 3.85156 17.5 3.85156 17.5H21.8516C21.8516 17.5 18.8516 15.5 18.8516 8.5Z" stroke-width="2" stroke-linecap="round" stroke-linejoin="round"/>
<path d="M14.5811 21.5C14.4053 21.8031 14.1529 22.0547 13.8493 22.2295C13.5457 22.4044 13.2015 22.4965 12.8511 22.4965C12.5007 22.4965 12.1565 22.4044 11.8529 22.2295C11.5493 22.0547 11.2969 21.8031 11.1211 21.5" stroke-width="2" stroke-linecap="round" stroke-linejoin="round"/>
</svg>
