<!-- Generated by IcoMoon.io -->
<svg version="1.1" xmlns="http://www.w3.org/2000/svg" width="43" height="32" viewBox="0 0 43 32">
<title>burger-menu</title>
<path d="M41.244 2.844h-39.822c-0.785 0-1.422-0.637-1.422-1.422s0.637-1.422 1.422-1.422h39.822c0.785 0 1.422 0.637 1.422 1.422s-0.637 1.422-1.422 1.422z"></path>
<path d="M41.244 17.067h-39.822c-0.785 0-1.422-0.637-1.422-1.422s0.637-1.422 1.422-1.422h39.822c0.785 0 1.422 0.637 1.422 1.422s-0.637 1.422-1.422 1.422z"></path>
<path d="M1.422 31.289h39.822c0.785 0 1.422-0.637 1.422-1.422s-0.637-1.422-1.422-1.422h-39.822c-0.785 0-1.422 0.637-1.422 1.422s0.637 1.422 1.422 1.422z"></path>
</svg>
