<!-- Generated by IcoMoon.io -->
<svg version="1.1" xmlns="http://www.w3.org/2000/svg" width="32" height="32" viewBox="0 0 32 32">
<title>calendar</title>
<path d="M8 9c0.552 0 1-0.448 1-1v-6c0-0.552-0.448-1-1-1s-1 0.448-1 1v6c0 0.552 0.448 1 1 1zM25 8c0 0.552-0.448 1-1 1s-1-0.448-1-1v-6c0-0.552 0.448-1 1-1s1 0.448 1 1v6zM21 5h-10v2h10v-2zM26 25v-2h-2v2h2zM18 23h2v2h-2v-2zM14 23h-2v2h2v-2zM6 23h2v2h-2v-2zM26 20v-2h-2v2h2zM18 18h2v2h-2v-2zM14 18h-2v2h2v-2zM6 18h2v2h-2v-2zM26 15v-2h-2v2h2zM18 13h2v2h-2v-2zM14 13h-2v2h2v-2zM6 13h2v2h-2v-2zM27 5h3.25c0.472 0.008 0.922 0.203 1.25 0.542s0.508 0.795 0.5 1.268v22.38c0.008 0.472-0.172 0.928-0.5 1.267s-0.778 0.535-1.25 0.543h-28.499c-0.472-0.008-0.922-0.203-1.25-0.543s-0.508-0.795-0.5-1.267v-22.38c-0.008-0.472 0.172-0.928 0.5-1.268s0.778-0.535 1.25-0.542h3.25v2h-3v22h27.999v-22h-3v-2z"></path>
</svg>
