<svg width="14" height="14" viewBox="0 0 14 14" xmlns="http://www.w3.org/2000/svg">
<path d="M7.97938 6.98358L13.506 1.4717C13.7326 1.2079 13.7173 0.814668 13.4711 0.569081C13.2248 0.323494 12.8305 0.308305 12.566 0.534216L7.03938 6.04609L1.51272 0.527568C1.25131 0.266852 0.827472 0.266852 0.566058 0.527568C0.304643 0.788283 0.304643 1.21099 0.566058 1.4717L6.09938 6.98358L0.566058 12.4955C0.375807 12.6579 0.292937 12.9131 0.351518 13.156C0.410099 13.3988 0.600245 13.5885 0.843778 13.6469C1.08731 13.7053 1.34313 13.6227 1.50606 13.4329L7.03938 7.92106L12.566 13.4329C12.8305 13.6589 13.2248 13.6437 13.4711 13.3981C13.7173 13.1525 13.7326 12.7593 13.506 12.4955L7.97938 6.98358Z" />
</svg>
