<!-- Generated by IcoMoon.io -->
<svg version="1.1" xmlns="http://www.w3.org/2000/svg" width="32" height="32" viewBox="0 0 32 32">
<title>danger</title>
<path d="M31.638 26.497l-12.987-23.898c-0.527-0.97-1.542-1.574-2.646-1.574s-2.119 0.604-2.646 1.574l-12.978 23.898c-0.522 0.935-0.508 2.077 0.036 2.999s1.538 1.485 2.61 1.479h25.964c1.060-0.001 2.041-0.559 2.583-1.47s0.566-2.039 0.063-2.971v-0.037zM14.809 8.536c0-0.723 0.586-1.309 1.309-1.309s1.309 0.586 1.309 1.309v11.22c0 0.723-0.586 1.309-1.309 1.309s-1.309-0.586-1.309-1.309v-11.22zM14.435 25.412c0-0.93 0.754-1.683 1.683-1.683s1.683 0.753 1.683 1.683c0 0.446-0.177 0.874-0.493 1.19s-0.744 0.493-1.19 0.493c-0.929 0-1.683-0.754-1.683-1.683z"></path>
</svg>
