<svg width="15" height="15" viewBox="0 0 15 15" fill="none" xmlns="http://www.w3.org/2000/svg">
<circle cx="7.20264" cy="7.50391" r="7" fill="#8A92A6"/>
<path d="M6.39384 8.86399V8.7515C6.39605 8.36554 6.43023 8.05788 6.4964 7.82851C6.56477 7.59914 6.66402 7.41388 6.79414 7.27272C6.92426 7.13157 7.08085 7.00365 7.26391 6.88897C7.40065 6.80075 7.52305 6.70922 7.63112 6.61438C7.73919 6.51955 7.82521 6.41479 7.88917 6.3001C7.95312 6.18321 7.9851 6.05309 7.9851 5.90973C7.9851 5.75755 7.94871 5.62412 7.87593 5.50943C7.80315 5.39475 7.70501 5.30653 7.5815 5.24477C7.4602 5.18302 7.32566 5.15214 7.17789 5.15214C7.03454 5.15214 6.8989 5.18412 6.77098 5.24808C6.64306 5.30984 6.5383 5.40247 6.4567 5.52597C6.3751 5.64728 6.33099 5.79835 6.32437 5.9792H4.97461C4.98564 5.53811 5.0915 5.1742 5.2922 4.88749C5.4929 4.59857 5.75866 4.38353 6.08949 4.24238C6.42031 4.09902 6.78532 4.02734 7.18451 4.02734C7.6234 4.02734 8.01157 4.10012 8.34901 4.24569C8.68645 4.38904 8.95111 4.59746 9.14299 4.87094C9.33486 5.14442 9.4308 5.47415 9.4308 5.86011C9.4308 6.11815 9.3878 6.34752 9.30178 6.54822C9.21797 6.74671 9.09998 6.92315 8.9478 7.07754C8.79562 7.22972 8.61588 7.36756 8.40856 7.49107C8.23433 7.59473 8.09097 7.70279 7.97849 7.81527C7.86821 7.92775 7.78551 8.05788 7.73037 8.20565C7.67744 8.35341 7.64987 8.53537 7.64766 8.7515V8.86399H6.39384ZM7.04887 10.9813C6.82832 10.9813 6.63976 10.9041 6.48317 10.7497C6.32878 10.5931 6.25269 10.4056 6.2549 10.1873C6.25269 9.97114 6.32878 9.78588 6.48317 9.6315C6.63976 9.47711 6.82832 9.39992 7.04887 9.39992C7.2584 9.39992 7.44255 9.47711 7.60135 9.6315C7.76014 9.78588 7.84064 9.97114 7.84285 10.1873C7.84064 10.3328 7.80205 10.4663 7.72706 10.5876C7.65428 10.7067 7.55834 10.8026 7.43925 10.8754C7.32015 10.946 7.19002 10.9813 7.04887 10.9813Z" fill="white"/>
</svg>
