<!-- Generated by IcoMoon.io -->
<svg version="1.1" xmlns="http://www.w3.org/2000/svg" width="30" height="32" viewBox="0 0 30 32">
<title>exit</title>
<path d="M1.411 2.551c0.909-0.933 2.151-1.464 3.454-1.464h11.695c1.303 0 2.545 0.532 3.454 1.464 0.908 0.932 1.411 2.187 1.411 3.488v3.429c0 0.842-0.682 1.524-1.524 1.524s-1.524-0.682-1.524-1.524v-3.429c0-0.518-0.201-1.006-0.546-1.361-0.344-0.353-0.802-0.544-1.271-0.544h-11.695c-0.469 0-0.927 0.191-1.271 0.544-0.345 0.354-0.546 0.843-0.546 1.361v20.571c0 0.518 0.201 1.006 0.546 1.361 0.344 0.353 0.802 0.544 1.271 0.544h11.695c0.469 0 0.927-0.191 1.271-0.544 0.345-0.354 0.546-0.843 0.546-1.361v-3.429c0-0.842 0.682-1.524 1.524-1.524s1.524 0.682 1.524 1.524v3.429c0 1.301-0.503 2.556-1.411 3.488-0.909 0.933-2.151 1.465-3.454 1.465h-11.695c-1.303 0-2.545-0.532-3.454-1.465-0.908-0.931-1.411-2.187-1.411-3.488v-20.571c0-1.301 0.503-2.556 1.411-3.488zM22.379 9.578c0.628-0.561 1.591-0.506 2.152 0.121l5.012 5.611c0.517 0.578 0.516 1.452-0 2.030l-5.012 5.609c-0.561 0.628-1.524 0.682-2.151 0.121s-0.682-1.524-0.121-2.152l2.743-3.070h-16.643c-0.842 0-1.524-0.682-1.524-1.524s0.682-1.524 1.524-1.524h16.644l-2.744-3.072c-0.561-0.628-0.506-1.591 0.121-2.152z"></path>
</svg>
