<!-- Generated by IcoMoon.io -->
<svg version="1.1" xmlns="http://www.w3.org/2000/svg" width="32" height="32" viewBox="0 0 32 32">
<title>external</title>
<path d="M14.933 1.067c0-0.589 0.478-1.067 1.067-1.067h16v16c0 0.589-0.478 1.067-1.067 1.067s-1.067-0.478-1.067-1.067v-12.363l-14.773 14.773c-0.261 0.304-0.67 0.437-1.060 0.343s-0.694-0.398-0.788-0.788c-0.094-0.39 0.039-0.799 0.343-1.060l14.773-14.773h-12.363c-0.589 0-1.067-0.478-1.067-1.067zM2.133 32h23.467c1.178 0 2.133-0.955 2.133-2.133v-10.667h-2.133v10.667h-23.467v-23.467h10.667v-2.133h-10.667c-1.178 0-2.133 0.955-2.133 2.133v23.467c0 1.178 0.955 2.133 2.133 2.133z"></path>
</svg>
