<!-- Generated by IcoMoon.io -->
<svg version="1.1" xmlns="http://www.w3.org/2000/svg" width="32" height="32" viewBox="0 0 32 32">
<title>eye-closed</title>
<path d="M2.474 3.816l1.699-1.481 25.839 25.839-1.739 1.491-4.969-4.969c-2.284 1.105-4.787 1.679-7.324 1.679-6.499 0-12.373-3.747-15.722-9.938l-0.258-0.477 0.258-0.467c1.557-2.946 3.847-5.441 6.648-7.245l-4.432-4.432zM12.164 13.506c-0.457 0.738-0.704 1.587-0.716 2.455-0.008 1.289 0.498 2.527 1.407 3.442s2.144 1.428 3.433 1.428c0.878-0.006 1.738-0.254 2.485-0.716l-6.609-6.609zM11.463 20.816c-2.347-2.347-2.659-6.044-0.739-8.751l-2.375-2.365c-2.532 1.529-4.627 3.685-6.082 6.261 3.031 5.257 8.119 8.378 13.714 8.378 2.002 0 3.983-0.406 5.824-1.193l-1.59-1.59c-2.707 1.92-6.404 1.607-8.751-0.74zM31.712 15.493c-3.349-6.191-9.222-9.938-15.722-9.938-1.77 0.004-3.527 0.289-5.207 0.845l1.6 1.61c1.178-0.304 2.39-0.461 3.607-0.467 5.595 0 10.683 3.12 13.714 8.378-1.112 1.95-2.586 3.671-4.343 5.068l1.411 1.411c2.033-1.64 3.722-3.667 4.969-5.963l0.258-0.477-0.288-0.467zM23.096 15.96c0.003 0.814-0.142 1.622-0.427 2.385l-1.62-1.65c0.039-0.243 0.059-0.489 0.060-0.735-0.022-2.661-2.188-4.806-4.85-4.8-0.246 0.001-0.492 0.021-0.735 0.060l-1.6-1.65c0.753-0.282 1.551-0.426 2.355-0.427 3.765 0 6.817 3.052 6.817 6.818z"></path>
</svg>
