<!-- Generated by IcoMoon.io -->
<svg version="1.1" xmlns="http://www.w3.org/2000/svg" width="32" height="32" viewBox="0 0 32 32">
<title>eye</title>
<path d="M31.741 15.527l0.259 0.468-0.259 0.478c-3.343 6.249-9.234 9.95-15.741 9.95s-12.388-3.751-15.741-9.95l-0.259-0.478 0.279-0.468c3.323-6.199 9.214-9.95 15.721-9.95s12.388 3.751 15.741 9.95zM9.513 16.068c-0.024-3.767 3.009-6.841 6.776-6.869 1.814-0.013 3.558 0.696 4.848 1.971s2.019 3.011 2.027 4.825c0.016 3.767-3.022 6.835-6.789 6.856s-6.838-3.016-6.862-6.783zM11.503 16.002c-0.013 2.66 2.126 4.831 4.786 4.859 1.295 0.011 2.541-0.498 3.459-1.412s1.432-2.158 1.426-3.453c-0.017-2.66-2.179-4.808-4.839-4.806s-4.819 2.152-4.832 4.813zM2.269 15.995c2.985 5.264 8.129 8.388 13.731 8.388 5.592 0 10.687-3.124 13.721-8.388-3.035-5.254-8.12-8.388-13.722-8.388s-10.746 3.124-13.731 8.388z"></path>
</svg>
