<!-- Generated by IcoMoon.io -->
<svg version="1.1" xmlns="http://www.w3.org/2000/svg" width="32" height="32" viewBox="0 0 32 32">
<title>file-xlsx</title>
<path d="M28.364 9.339c0.118 0.124 0.185 0.289 0.185 0.46v19.548c0 1.462-1.187 2.652-2.647 2.652h-19.804c-1.459 0-2.647-1.191-2.647-2.654v-26.688c0-1.466 1.187-2.658 2.647-2.658h13.041c0.18 0 0.351 0.073 0.476 0.203l8.75 9.136zM19.302 1.792l-0 6.168c0.007 0.728 0.599 1.331 1.326 1.331h5.857l-7.183-7.5zM25.902 30.673c0.731 0 1.326-0.594 1.326-1.325v-18.729h-6.6c-1.459 0-2.647-1.193-2.647-2.658v-6.633h-11.884c-0.731 0-1.326 0.597-1.326 1.331v26.688c0 0.731 0.595 1.326 1.326 1.326h19.804zM9.071 24.135l0.841-2.145h1.445l-1.467 3.097 1.501 3.148h-1.463l-0.858-2.183-0.854 2.183h-1.463l1.501-3.148-1.471-3.097h1.445l0.841 2.145zM13.292 27.189h2.213v1.047h-3.474v-6.245h1.261v5.198zM18.872 26.597c0-0.255-0.066-0.446-0.197-0.575-0.129-0.132-0.365-0.267-0.708-0.408-0.626-0.237-1.077-0.515-1.351-0.832-0.274-0.32-0.412-0.698-0.412-1.132 0-0.526 0.186-0.948 0.558-1.265 0.375-0.32 0.849-0.48 1.424-0.48 0.383 0 0.725 0.081 1.025 0.244 0.3 0.16 0.53 0.387 0.691 0.682 0.163 0.295 0.244 0.629 0.244 1.004h-1.257c0-0.292-0.063-0.513-0.189-0.665-0.123-0.154-0.302-0.232-0.536-0.232-0.22 0-0.392 0.066-0.515 0.197-0.123 0.129-0.184 0.303-0.184 0.523 0 0.172 0.069 0.327 0.206 0.468 0.137 0.137 0.38 0.28 0.729 0.429 0.609 0.22 1.051 0.49 1.325 0.811 0.277 0.32 0.416 0.728 0.416 1.222 0 0.543-0.173 0.968-0.519 1.274s-0.816 0.459-1.411 0.459c-0.403 0-0.771-0.083-1.102-0.249s-0.592-0.403-0.781-0.712c-0.186-0.309-0.279-0.673-0.279-1.094h1.265c0 0.36 0.070 0.622 0.21 0.785s0.369 0.244 0.686 0.244c0.44 0 0.661-0.233 0.661-0.699zM22.934 24.135l0.841-2.145h1.445l-1.467 3.097 1.501 3.148h-1.463l-0.858-2.183-0.854 2.183h-1.463l1.501-3.148-1.471-3.097h1.445l0.841 2.145z"></path>
</svg>
