<!-- Generated by IcoMoon.io -->
<svg version="1.1" xmlns="http://www.w3.org/2000/svg" width="32" height="32" viewBox="0 0 32 32">
<title>file-xls</title>
<path d="M28.364 9.339c0.118 0.124 0.185 0.289 0.185 0.46v19.548c0 1.462-1.187 2.652-2.647 2.652h-19.804c-1.459 0-2.647-1.191-2.647-2.654v-26.688c0-1.466 1.187-2.658 2.647-2.658h13.041c0.18 0 0.351 0.073 0.476 0.203l8.75 9.136zM19.302 1.792l-0 6.168c0.007 0.728 0.599 1.331 1.326 1.331h5.857l-7.183-7.5zM25.902 30.673c0.731 0 1.326-0.594 1.326-1.325v-18.729h-6.6c-1.459 0-2.647-1.193-2.647-2.658v-6.633h-11.884c-0.731 0-1.326 0.597-1.326 1.331v26.688c0 0.731 0.595 1.326 1.326 1.326h19.804zM10.567 23.257l1.021-2.604h1.755l-1.781 3.76 1.823 3.823h-1.776l-1.042-2.651-1.036 2.651h-1.776l1.823-3.823-1.787-3.76h1.755l1.021 2.604zM15.692 26.966h2.687v1.271h-4.219v-7.583h1.531v6.313zM22.468 26.247c0-0.309-0.080-0.542-0.24-0.698-0.156-0.16-0.443-0.325-0.859-0.495-0.76-0.288-1.307-0.625-1.641-1.010-0.333-0.389-0.5-0.847-0.5-1.375 0-0.639 0.226-1.151 0.677-1.536 0.455-0.389 1.031-0.583 1.729-0.583 0.465 0 0.88 0.099 1.245 0.297 0.365 0.194 0.644 0.471 0.839 0.828 0.198 0.358 0.297 0.764 0.297 1.219h-1.526c0-0.354-0.076-0.623-0.229-0.807-0.149-0.187-0.366-0.281-0.651-0.281-0.267 0-0.476 0.080-0.625 0.24-0.149 0.156-0.224 0.368-0.224 0.635 0 0.208 0.083 0.398 0.25 0.568 0.167 0.167 0.462 0.34 0.885 0.521 0.74 0.267 1.276 0.595 1.609 0.984 0.337 0.389 0.505 0.884 0.505 1.484 0 0.66-0.21 1.175-0.63 1.547s-0.991 0.557-1.713 0.557c-0.49 0-0.936-0.101-1.339-0.302s-0.719-0.49-0.948-0.865c-0.226-0.375-0.338-0.818-0.338-1.328h1.536c0 0.438 0.085 0.755 0.255 0.953s0.448 0.297 0.833 0.297c0.535 0 0.802-0.283 0.802-0.849z"></path>
</svg>
