<!-- Generated by IcoMoon.io -->
<svg version="1.1" xmlns="http://www.w3.org/2000/svg" width="32" height="32" viewBox="0 0 32 32">
<title>file-txt</title>
<path d="M28.364 9.339c0.118 0.124 0.185 0.289 0.185 0.46v19.548c0 1.462-1.187 2.652-2.647 2.652h-19.804c-1.459 0-2.647-1.191-2.647-2.654v-26.688c0-1.466 1.187-2.658 2.647-2.658h13.041c0.18 0 0.351 0.073 0.476 0.203l8.75 9.136zM19.302 1.792l-0 6.168c0.007 0.728 0.599 1.331 1.326 1.331h5.857l-7.183-7.5zM25.902 30.673c0.731 0 1.326-0.594 1.326-1.325v-18.729h-6.6c-1.459 0-2.647-1.193-2.647-2.658v-6.633h-11.884c-0.731 0-1.326 0.597-1.326 1.331v26.688c0 0.731 0.595 1.326 1.326 1.326h19.804zM12.745 21.928h-1.875v6.307h-1.536v-6.307h-1.844v-1.276h5.255v1.276zM16.001 23.256l1.021-2.604h1.755l-1.781 3.76 1.823 3.823h-1.776l-1.042-2.651-1.037 2.651h-1.776l1.823-3.823-1.786-3.76h1.755l1.021 2.604zM24.506 21.928h-1.875v6.307h-1.537v-6.307h-1.844v-1.276h5.255v1.276z"></path>
</svg>
