<!-- Generated by IcoMoon.io -->
<svg version="1.1" xmlns="http://www.w3.org/2000/svg" width="32" height="32" viewBox="0 0 32 32">
<title>file-mp3</title>
<path d="M28.364 9.339c0.118 0.124 0.185 0.289 0.185 0.46v19.548c0 1.462-1.187 2.652-2.647 2.652h-19.804c-1.459 0-2.647-1.191-2.647-2.654v-26.688c0-1.466 1.187-2.658 2.647-2.658h13.041c0.18 0 0.351 0.073 0.476 0.203l8.75 9.136zM19.302 1.792l-0 6.168c0.007 0.728 0.599 1.331 1.326 1.331h5.857l-7.183-7.5zM25.902 30.673c0.731 0 1.326-0.594 1.326-1.325v-18.729h-6.6c-1.459 0-2.647-1.193-2.647-2.658v-6.633h-11.884c-0.731 0-1.326 0.597-1.326 1.331v26.688c0 0.731 0.595 1.326 1.326 1.326h19.804zM8.828 20.653l1.432 5.484 1.427-5.484h2v7.583h-1.536v-2.052l0.141-3.161-1.516 5.214h-1.042l-1.516-5.214 0.141 3.161v2.052h-1.531v-7.583h2zM16.453 25.57v2.667h-1.531v-7.583h2.583c0.75 0 1.347 0.233 1.792 0.698 0.448 0.465 0.672 1.069 0.672 1.813s-0.221 1.33-0.661 1.76-1.052 0.646-1.833 0.646h-1.021zM16.453 24.294h1.052c0.292 0 0.517-0.096 0.677-0.287s0.24-0.469 0.24-0.833c0-0.378-0.082-0.679-0.245-0.901-0.163-0.226-0.382-0.34-0.656-0.344h-1.068v2.365zM22.193 23.773h0.714c0.271 0 0.469-0.094 0.594-0.281 0.128-0.191 0.193-0.444 0.193-0.76 0-0.302-0.066-0.536-0.198-0.703-0.128-0.17-0.302-0.255-0.521-0.255-0.205 0-0.373 0.080-0.505 0.24-0.128 0.16-0.193 0.361-0.193 0.604h-1.474c0-0.396 0.090-0.75 0.271-1.062 0.184-0.316 0.439-0.563 0.766-0.74 0.33-0.177 0.694-0.266 1.094-0.266 0.698 0 1.245 0.193 1.641 0.578s0.594 0.913 0.594 1.583c0 0.344-0.090 0.663-0.271 0.958-0.177 0.292-0.411 0.516-0.703 0.672 0.358 0.153 0.623 0.382 0.797 0.688 0.177 0.306 0.266 0.667 0.266 1.083 0 0.674-0.215 1.214-0.646 1.62-0.427 0.406-0.99 0.609-1.688 0.609-0.649 0-1.177-0.2-1.583-0.599-0.403-0.403-0.604-0.931-0.604-1.583h1.474c0 0.271 0.071 0.498 0.214 0.682s0.323 0.276 0.542 0.276c0.253 0 0.453-0.094 0.599-0.281 0.149-0.187 0.224-0.437 0.224-0.75 0-0.746-0.29-1.122-0.87-1.125h-0.724v-1.188z"></path>
</svg>
