<!-- Generated by IcoMoon.io -->
<svg version="1.1" xmlns="http://www.w3.org/2000/svg" width="32" height="32" viewBox="0 0 32 32">
<title>file-rar</title>
<path d="M28.364 9.339c0.118 0.124 0.185 0.289 0.185 0.46v19.548c0 1.462-1.187 2.652-2.647 2.652h-19.804c-1.459 0-2.647-1.191-2.647-2.654v-26.688c0-1.466 1.187-2.658 2.647-2.658h13.041c0.18 0 0.351 0.073 0.476 0.203l8.75 9.136zM19.302 1.792l-0 6.168c0.007 0.728 0.599 1.331 1.326 1.331h5.857l-7.183-7.5zM25.902 30.673c0.731 0 1.326-0.594 1.326-1.325v-18.729h-6.6c-1.459 0-2.647-1.193-2.647-2.658v-6.633h-11.884c-0.731 0-1.326 0.597-1.326 1.331v26.688c0 0.731 0.595 1.326 1.326 1.326h19.804zM9.811 25.464h-0.76v2.771h-1.531v-7.583h2.443c0.767 0 1.359 0.2 1.776 0.599 0.42 0.396 0.63 0.96 0.63 1.693 0 1.007-0.366 1.712-1.099 2.115l1.328 3.104v0.073h-1.646l-1.141-2.771zM9.051 24.188h0.87c0.306 0 0.535-0.101 0.688-0.302 0.153-0.205 0.229-0.477 0.229-0.818 0-0.76-0.297-1.141-0.891-1.141h-0.896v2.26zM17.040 26.683h-2.089l-0.406 1.552h-1.62l2.37-7.583h1.401l2.385 7.583h-1.635l-0.406-1.552zM15.285 25.407h1.417l-0.708-2.703-0.708 2.703zM22.093 25.464h-0.76v2.771h-1.531v-7.583h2.443c0.767 0 1.359 0.2 1.776 0.599 0.42 0.396 0.63 0.96 0.63 1.693 0 1.007-0.366 1.712-1.099 2.115l1.328 3.104v0.073h-1.646l-1.141-2.771zM21.332 24.188h0.87c0.306 0 0.535-0.101 0.688-0.302 0.153-0.205 0.229-0.477 0.229-0.818 0-0.76-0.297-1.141-0.891-1.141h-0.896v2.26z"></path>
</svg>
