<!-- Generated by IcoMoon.io -->
<svg version="1.1" xmlns="http://www.w3.org/2000/svg" width="32" height="32" viewBox="0 0 32 32">
<title>file-docx</title>
<path d="M28.364 9.339c0.118 0.124 0.185 0.289 0.185 0.46v19.548c0 1.462-1.187 2.652-2.647 2.652h-19.804c-1.459 0-2.647-1.191-2.647-2.654v-26.688c0-1.466 1.187-2.658 2.647-2.658h13.041c0.18 0 0.351 0.073 0.476 0.203l8.75 9.136zM19.302 1.792l-0 6.168c0.007 0.728 0.599 1.331 1.326 1.331h5.857l-7.183-7.5zM25.902 30.673c0.731 0 1.326-0.594 1.326-1.325v-18.729h-6.6c-1.459 0-2.647-1.193-2.647-2.658v-6.633h-11.884c-0.731 0-1.326 0.597-1.326 1.331v26.688c0 0.731 0.595 1.326 1.326 1.326h19.804zM6.402 28.235v-6.245h1.651c0.729 0 1.31 0.232 1.741 0.695 0.435 0.463 0.656 1.098 0.665 1.904v1.012c0 0.821-0.217 1.465-0.652 1.934-0.432 0.466-1.028 0.699-1.789 0.699h-1.617zM7.663 23.041v4.148h0.377c0.42 0 0.716-0.11 0.888-0.33 0.172-0.223 0.262-0.606 0.27-1.15v-1.085c0-0.583-0.082-0.989-0.245-1.218-0.163-0.232-0.44-0.353-0.832-0.365h-0.459zM15.765 25.675c0 0.838-0.199 1.488-0.596 1.952-0.395 0.463-0.944 0.695-1.647 0.695-0.701 0-1.251-0.229-1.651-0.686-0.4-0.46-0.603-1.104-0.609-1.93v-1.068c0-0.858 0.199-1.527 0.596-2.007 0.398-0.483 0.949-0.725 1.656-0.725 0.695 0 1.242 0.237 1.643 0.712 0.4 0.472 0.603 1.135 0.609 1.99v1.068zM14.5 24.628c0-0.563-0.080-0.982-0.24-1.257s-0.409-0.412-0.746-0.412c-0.335 0-0.582 0.133-0.742 0.399-0.16 0.263-0.243 0.665-0.249 1.205v1.111c0 0.546 0.082 0.949 0.245 1.21 0.163 0.257 0.415 0.386 0.755 0.386 0.329 0 0.573-0.126 0.733-0.377 0.16-0.255 0.242-0.648 0.245-1.18v-1.085zM20.904 26.155c-0.031 0.712-0.232 1.251-0.6 1.617s-0.889 0.549-1.561 0.549c-0.706 0-1.248-0.232-1.626-0.695-0.375-0.466-0.562-1.129-0.562-1.99v-1.051c0-0.858 0.194-1.518 0.583-1.982 0.389-0.466 0.929-0.699 1.621-0.699 0.681 0 1.197 0.19 1.548 0.57 0.355 0.38 0.556 0.927 0.605 1.639h-1.265c-0.011-0.44-0.080-0.743-0.206-0.909-0.123-0.169-0.35-0.253-0.682-0.253-0.337 0-0.576 0.119-0.716 0.356-0.14 0.234-0.214 0.622-0.223 1.162v1.18c0 0.621 0.069 1.047 0.206 1.278 0.14 0.232 0.379 0.347 0.716 0.347 0.332 0 0.56-0.080 0.686-0.24 0.126-0.163 0.197-0.456 0.214-0.879h1.261zM23.636 24.135l0.841-2.145h1.445l-1.467 3.097 1.501 3.148h-1.463l-0.858-2.183-0.854 2.183h-1.463l1.501-3.148-1.471-3.097h1.445l0.841 2.145z"></path>
</svg>
