<!-- Generated by IcoMoon.io -->
<svg version="1.1" xmlns="http://www.w3.org/2000/svg" width="32" height="32" viewBox="0 0 32 32">
<title>file-mp4</title>
<path d="M28.364 9.339c0.118 0.124 0.185 0.289 0.185 0.46v19.548c0 1.462-1.187 2.652-2.647 2.652h-19.804c-1.459 0-2.647-1.191-2.647-2.654v-26.688c0-1.466 1.187-2.658 2.647-2.658h13.041c0.18 0 0.351 0.073 0.476 0.203l8.75 9.136zM19.302 1.792l-0 6.168c0.007 0.728 0.599 1.331 1.326 1.331h5.857l-7.183-7.5zM25.902 30.673c0.731 0 1.326-0.594 1.326-1.325v-18.729h-6.6c-1.459 0-2.647-1.193-2.647-2.658v-6.633h-11.884c-0.731 0-1.326 0.597-1.326 1.331v26.688c0 0.731 0.595 1.326 1.326 1.326h19.804zM8.828 20.652l1.432 5.484 1.427-5.484h2v7.583h-1.536v-2.052l0.141-3.161-1.516 5.214h-1.042l-1.516-5.214 0.141 3.161v2.052h-1.531v-7.583h2zM16.453 25.569v2.667h-1.531v-7.583h2.583c0.75 0 1.347 0.233 1.792 0.698 0.448 0.465 0.672 1.069 0.672 1.812s-0.221 1.33-0.661 1.76-1.052 0.646-1.833 0.646h-1.021zM16.453 24.293h1.052c0.292 0 0.517-0.096 0.677-0.286s0.24-0.469 0.24-0.833c0-0.378-0.082-0.679-0.245-0.901-0.163-0.226-0.382-0.34-0.656-0.344h-1.068v2.365zM24.766 25.371h0.646v1.224h-0.646v1.641h-1.474v-1.641h-2.51l-0.068-0.953 2.573-4.99h1.479v4.719zM22.146 25.371h1.146v-2.536l-0.031 0.057-1.115 2.479z"></path>
</svg>
