<!-- Generated by IcoMoon.io -->
<svg version="1.1" xmlns="http://www.w3.org/2000/svg" width="32" height="32" viewBox="0 0 32 32">
<title>file-pdf</title>
<path d="M28.364 9.339c0.118 0.124 0.185 0.289 0.185 0.46v19.548c0 1.462-1.187 2.652-2.647 2.652h-19.804c-1.459 0-2.647-1.191-2.647-2.654v-26.688c0-1.466 1.187-2.658 2.647-2.658h13.041c0.18 0 0.351 0.073 0.476 0.203l8.75 9.136zM19.302 1.792l-0 6.168c0.007 0.728 0.599 1.331 1.326 1.331h5.857l-7.183-7.5zM25.902 30.673c0.731 0 1.326-0.594 1.326-1.325v-18.729h-6.6c-1.459 0-2.647-1.193-2.647-2.658v-6.633h-11.884c-0.731 0-1.326 0.597-1.326 1.331v26.688c0 0.731 0.595 1.326 1.326 1.326h19.804zM9.551 25.569v2.667h-1.531v-7.583h2.583c0.75 0 1.347 0.233 1.792 0.698 0.448 0.465 0.672 1.069 0.672 1.812s-0.22 1.33-0.661 1.76-1.052 0.646-1.833 0.646h-1.021zM9.551 24.293h1.052c0.292 0 0.517-0.096 0.677-0.286s0.24-0.469 0.24-0.833c0-0.378-0.082-0.679-0.245-0.901-0.163-0.226-0.382-0.34-0.656-0.344h-1.068v2.365zM14.093 28.235v-7.583h2.005c0.885 0 1.59 0.281 2.115 0.844 0.528 0.563 0.797 1.333 0.807 2.312v1.229c0 0.997-0.264 1.779-0.792 2.349-0.524 0.566-1.248 0.849-2.172 0.849h-1.964zM15.624 21.928v5.036h0.458c0.51 0 0.87-0.134 1.078-0.401 0.208-0.271 0.318-0.736 0.328-1.396v-1.318c0-0.708-0.099-1.201-0.297-1.479-0.198-0.281-0.535-0.429-1.010-0.443h-0.557zM24.035 25.142h-2.38v3.094h-1.531v-7.583h4.198v1.276h-2.667v1.943h2.38v1.271zM20.020 14.582c-0.286 0.082-0.705 0.091-1.155 0.028-0.483-0.068-0.975-0.212-1.459-0.423 0.863-0.122 1.533-0.085 2.105 0.113 0.136 0.047 0.359 0.172 0.509 0.283zM15.204 13.811c-0.035 0.009-0.070 0.018-0.104 0.027-0.232 0.062-0.458 0.121-0.676 0.175l-0.294 0.072c-0.591 0.145-1.195 0.294-1.791 0.471 0.227-0.532 0.437-1.069 0.643-1.595 0.153-0.389 0.309-0.787 0.47-1.179 0.082 0.131 0.167 0.263 0.256 0.395 0.405 0.599 0.913 1.154 1.495 1.634zM13.702 7.816c0.038 0.656-0.107 1.287-0.321 1.893-0.263-0.749-0.386-1.575-0.057-2.243 0.084-0.171 0.153-0.263 0.198-0.31 0.069 0.104 0.16 0.336 0.179 0.661zM10.619 16.126c-0.148 0.257-0.299 0.498-0.453 0.725-0.373 0.547-0.983 1.132-1.296 1.132-0.031 0-0.068-0.005-0.123-0.061-0.035-0.036-0.041-0.062-0.039-0.096 0.011-0.201 0.284-0.559 0.681-0.891 0.36-0.301 0.767-0.569 1.23-0.809zM21.018 14.61c-0.048-0.67-1.207-1.099-1.218-1.103-0.448-0.154-0.935-0.23-1.488-0.23-0.592 0-1.23 0.083-2.050 0.27-0.729-0.503-1.36-1.133-1.83-1.83-0.208-0.308-0.395-0.615-0.558-0.916 0.398-0.925 0.756-1.92 0.691-3.034-0.053-0.893-0.467-1.493-1.030-1.493-0.386 0-0.719 0.278-0.989 0.828-0.482 0.979-0.356 2.233 0.377 3.728-0.264 0.603-0.509 1.227-0.746 1.832-0.295 0.752-0.599 1.528-0.942 2.266-0.961 0.37-1.751 0.819-2.409 1.369-0.431 0.36-0.951 0.911-0.981 1.485-0.014 0.271 0.081 0.519 0.275 0.718 0.206 0.211 0.465 0.322 0.749 0.323 0.94 0 1.845-1.256 2.016-1.508 0.345-0.506 0.669-1.071 0.985-1.723 0.798-0.28 1.648-0.49 2.472-0.692l0.295-0.073c0.222-0.055 0.452-0.115 0.689-0.178 0.25-0.066 0.508-0.134 0.77-0.199 0.846 0.523 1.756 0.865 2.644 0.99 0.748 0.106 1.412 0.044 1.861-0.183 0.405-0.205 0.427-0.521 0.417-0.647z"></path>
</svg>
