<!-- Generated by IcoMoon.io -->
<svg version="1.1" xmlns="http://www.w3.org/2000/svg" width="32" height="32" viewBox="0 0 32 32">
<title>file-doc</title>
<path d="M28.364 9.339c0.118 0.124 0.185 0.289 0.185 0.46v19.548c0 1.462-1.187 2.652-2.647 2.652h-19.804c-1.459 0-2.647-1.191-2.647-2.654v-26.688c0-1.466 1.187-2.658 2.647-2.658h13.041c0.18 0 0.351 0.073 0.476 0.203l8.75 9.136zM19.302 1.792l-0 6.168c0.007 0.728 0.599 1.331 1.326 1.331h5.857l-7.183-7.5zM25.902 30.673c0.731 0 1.326-0.594 1.326-1.325v-18.729h-6.6c-1.459 0-2.647-1.193-2.647-2.658v-6.633h-11.884c-0.731 0-1.326 0.597-1.326 1.331v26.688c0 0.731 0.595 1.326 1.326 1.326h19.804zM7.333 28.237v-7.583h2.005c0.885 0 1.59 0.281 2.115 0.844 0.528 0.563 0.797 1.333 0.807 2.313v1.229c0 0.997-0.264 1.779-0.792 2.349-0.524 0.566-1.248 0.849-2.172 0.849h-1.964zM8.865 21.929v5.037h0.458c0.51 0 0.87-0.134 1.078-0.401 0.208-0.271 0.318-0.736 0.328-1.396v-1.318c0-0.708-0.099-1.201-0.297-1.479-0.198-0.281-0.535-0.429-1.010-0.443h-0.557zM18.703 25.127c0 1.017-0.241 1.807-0.724 2.37-0.479 0.563-1.146 0.844-2 0.844-0.851 0-1.519-0.278-2.005-0.833-0.486-0.559-0.733-1.34-0.74-2.344v-1.297c0-1.042 0.241-1.854 0.724-2.438 0.483-0.587 1.153-0.88 2.010-0.88 0.844 0 1.509 0.288 1.995 0.865 0.486 0.573 0.733 1.378 0.74 2.417v1.297zM17.167 23.856c0-0.684-0.097-1.193-0.292-1.526s-0.497-0.5-0.906-0.5c-0.406 0-0.707 0.161-0.901 0.484-0.194 0.319-0.295 0.807-0.302 1.464v1.349c0 0.663 0.099 1.153 0.297 1.469 0.198 0.313 0.503 0.469 0.917 0.469 0.399 0 0.696-0.153 0.891-0.458 0.194-0.309 0.293-0.786 0.297-1.432v-1.318zM24.943 25.71c-0.038 0.865-0.281 1.519-0.729 1.964s-1.080 0.667-1.896 0.667c-0.858 0-1.516-0.281-1.974-0.844-0.455-0.566-0.682-1.371-0.682-2.417v-1.276c0-1.042 0.236-1.844 0.708-2.406 0.472-0.566 1.128-0.849 1.969-0.849 0.826 0 1.453 0.231 1.88 0.693 0.431 0.462 0.675 1.125 0.734 1.99h-1.536c-0.014-0.535-0.097-0.903-0.25-1.104-0.149-0.205-0.425-0.307-0.828-0.307-0.41 0-0.7 0.144-0.87 0.432-0.17 0.285-0.26 0.755-0.271 1.411v1.432c0 0.753 0.083 1.271 0.25 1.552 0.17 0.281 0.46 0.422 0.87 0.422 0.403 0 0.681-0.097 0.833-0.292 0.153-0.198 0.24-0.554 0.26-1.068h1.531z"></path>
</svg>
