<!-- Generated by IcoMoon.io -->
<svg version="1.1" xmlns="http://www.w3.org/2000/svg" width="32" height="32" viewBox="0 0 32 32">
<title>file-jpg</title>
<path d="M28.364 9.339c0.118 0.124 0.185 0.289 0.185 0.46v19.548c0 1.462-1.187 2.652-2.647 2.652h-19.804c-1.459 0-2.647-1.191-2.647-2.654v-26.688c0-1.466 1.187-2.658 2.647-2.658h13.041c0.18 0 0.351 0.073 0.476 0.203l8.75 9.136zM19.302 1.792l-0 6.168c0.007 0.728 0.599 1.331 1.326 1.331h5.857l-7.183-7.5zM25.902 30.673c0.731 0 1.326-0.594 1.326-1.325v-18.729h-6.6c-1.459 0-2.647-1.193-2.647-2.658v-6.633h-11.884c-0.731 0-1.326 0.597-1.326 1.331v26.688c0 0.731 0.595 1.326 1.326 1.326h19.804zM10.335 20.653h1.531v5.25c0 0.736-0.205 1.326-0.615 1.771s-0.937 0.667-1.583 0.667c-0.694 0-1.234-0.207-1.62-0.62s-0.578-0.988-0.578-1.724h1.536c0 0.715 0.22 1.073 0.661 1.073 0.444 0 0.667-0.413 0.667-1.24v-5.177zM14.601 25.57v2.667h-1.531v-7.583h2.583c0.75 0 1.347 0.233 1.792 0.698 0.448 0.465 0.672 1.069 0.672 1.813s-0.221 1.33-0.661 1.76-1.052 0.646-1.833 0.646h-1.021zM14.601 24.294h1.052c0.292 0 0.517-0.096 0.677-0.287s0.24-0.469 0.24-0.833c0-0.378-0.082-0.679-0.245-0.901-0.163-0.226-0.382-0.34-0.656-0.344h-1.068v2.365zM24.299 27.377c-0.295 0.319-0.658 0.561-1.089 0.724-0.427 0.16-0.896 0.24-1.406 0.24-0.872 0-1.549-0.269-2.031-0.807-0.483-0.542-0.731-1.328-0.745-2.359v-1.365c0-1.045 0.227-1.849 0.682-2.411 0.458-0.566 1.125-0.849 2-0.849 0.823 0 1.443 0.203 1.859 0.609 0.42 0.406 0.663 1.043 0.729 1.911h-1.49c-0.042-0.483-0.142-0.811-0.302-0.984-0.16-0.177-0.41-0.266-0.75-0.266-0.413 0-0.714 0.151-0.901 0.453s-0.285 0.783-0.292 1.443v1.375c0 0.691 0.102 1.194 0.307 1.51 0.208 0.313 0.549 0.469 1.021 0.469 0.302 0 0.547-0.061 0.734-0.182l0.135-0.094v-1.391h-1.073v-1.156h2.609v3.13z"></path>
</svg>
