<!-- Generated by IcoMoon.io -->
<svg version="1.1" xmlns="http://www.w3.org/2000/svg" width="25" height="32" viewBox="0 0 25 32">
<title>form</title>
<path d="M6.3 3.611c0.557-1.79 2.202-3.109 4.18-3.109h3.049c1.978 0 3.624 1.319 4.18 3.109h1.918c1.171 0 2.289 0.475 3.108 1.311s1.274 1.963 1.274 3.133v18.667c0 1.17-0.455 2.298-1.274 3.133s-1.937 1.311-3.108 1.311h-15.246c-1.171 0-2.289-0.475-3.108-1.311s-1.274-1.963-1.274-3.133v-18.667c0-1.17 0.455-2.298 1.274-3.133s1.937-1.311 3.108-1.311h1.918zM8.765 4.924c0 0.007 0 0.014 0 0.021s-0 0.015-0 0.023c0.011 0.997 0.799 1.757 1.716 1.757h3.049c0.923 0 1.716-0.771 1.716-1.778s-0.793-1.778-1.716-1.778h-3.049c-0.915 0-1.704 0.759-1.716 1.755zM17.712 6.278c-0.555 1.792-2.202 3.114-4.182 3.114h-3.049c-1.98 0-3.627-1.321-4.182-3.114h-1.916c-0.446 0-0.88 0.181-1.204 0.511s-0.512 0.787-0.512 1.267v18.667c0 0.48 0.187 0.935 0.512 1.267s0.758 0.511 1.204 0.511h15.246c0.446 0 0.88-0.181 1.204-0.511s0.512-0.787 0.512-1.267v-18.667c0-0.48-0.187-0.935-0.512-1.267s-0.758-0.511-1.204-0.511h-1.917zM6.098 15.836c0 0.736 0.597 1.333 1.333 1.333h0.009c0.736 0 1.333-0.597 1.333-1.333s-0.597-1.333-1.333-1.333h-0.009c-0.736 0-1.333 0.597-1.333 1.333zM12.196 15.836c0 0.736 0.597 1.333 1.333 1.333h3.049c0.736 0 1.333-0.597 1.333-1.333s-0.597-1.333-1.333-1.333h-3.049c-0.736 0-1.333 0.597-1.333 1.333zM6.098 22.061c0 0.736 0.597 1.333 1.333 1.333h0.009c0.736 0 1.333-0.597 1.333-1.333s-0.597-1.333-1.333-1.333h-0.009c-0.736 0-1.333 0.597-1.333 1.333zM12.196 22.061c0 0.736 0.597 1.333 1.333 1.333h3.049c0.736 0 1.333-0.597 1.333-1.333s-0.597-1.333-1.333-1.333h-3.049c-0.736 0-1.333 0.597-1.333 1.333z"></path>
</svg>
