<!-- Generated by IcoMoon.io -->
<svg version="1.1" xmlns="http://www.w3.org/2000/svg" width="36" height="32" viewBox="0 0 36 32">
<title>heart</title>
<path d="M25.64 4.299c-1.652-0.288-3.363 0.285-4.597 1.611l-1.974 2.121c-0.336 0.361-0.808 0.566-1.301 0.566s-0.965-0.205-1.301-0.566l-1.974-2.12c-1.234-1.325-2.946-1.899-4.598-1.611-1.659 0.289-3.146 1.43-3.946 3.148-1.515 3.255-0.101 7.13 3.005 11.105 2.657 3.401 6.211 6.415 8.82 8.366 2.668-1.972 6.236-4.971 8.884-8.358 3.077-3.936 4.469-7.798 2.927-11.114-0.799-1.718-2.286-2.858-3.945-3.148zM18.441 3.487c2.018-2.168 4.923-3.194 7.81-2.691 2.881 0.503 5.301 2.45 6.557 5.151 2.445 5.256-0.103 10.65-3.349 14.803-3.318 4.244-7.833 7.822-10.668 9.818-0.616 0.434-1.439 0.432-2.053-0.005-2.757-1.959-7.257-5.562-10.586-9.822-3.248-4.157-5.855-9.577-3.427-14.794 1.257-2.701 3.678-4.648 6.558-5.151 2.887-0.504 5.793 0.523 7.811 2.69l0.673 0.723 0.673-0.723z"></path>
</svg>
