<svg width="40" height="59" viewBox="0 0 40 59" fill="none" xmlns="http://www.w3.org/2000/svg">
<path d="M33 33.1392V5.39844C33 3.1893 31.2091 1.39844 29 1.39844H5C2.79086 1.39844 1 3.1893 1 5.39844V41.0348C1 43.2439 2.79086 45.0348 5 45.0348H9" stroke-width="2" stroke-linecap="round" stroke-linejoin="round"/>
<path fill-rule="evenodd" clip-rule="evenodd" d="M6.81836 7.96484C6.81836 7.55063 7.15415 7.21484 7.56836 7.21484H26.432C26.8462 7.21484 27.182 7.55063 27.182 7.96484V15.1921C27.182 15.6063 26.8462 15.9421 26.432 15.9421H7.56836C7.15415 15.9421 6.81836 15.6063 6.81836 15.1921V7.96484Z" stroke-width="2" stroke-linecap="round" stroke-linejoin="round"/>
<path d="M9.00071 23.2148C9.40237 23.2148 9.72798 23.5405 9.72798 23.9421C9.72798 24.3438 9.40237 24.6694 9.00071 24.6694C8.59905 24.6694 8.27344 24.3438 8.27344 23.9421C8.27344 23.5405 8.59905 23.2148 9.00071 23.2148" stroke-width="2" stroke-linecap="round" stroke-linejoin="round"/>
<path d="M17.3034 23.2148C17.7051 23.2148 18.0307 23.5405 18.0307 23.9421C18.0307 24.3438 17.7051 24.6694 17.3034 24.6694C16.9018 24.6694 16.5762 24.3438 16.5762 23.9421C16.5762 23.5405 16.9018 23.2148 17.3034 23.2148" stroke-width="2" stroke-linecap="round" stroke-linejoin="round"/>
<path d="M25.0007 23.2148C25.4024 23.2148 25.728 23.5405 25.728 23.9421C25.728 24.3438 25.4024 24.6694 25.0007 24.6694C24.599 24.6694 24.2734 24.3438 24.2734 23.9421C24.2734 23.5405 24.599 23.2148 25.0007 23.2148" stroke-width="2" stroke-linecap="round" stroke-linejoin="round"/>
<path d="M9.00071 30.4883C9.40237 30.4883 9.72798 30.8139 9.72798 31.2156C9.72798 31.6172 9.40237 31.9428 9.00071 31.9428C8.59905 31.9428 8.27344 31.6172 8.27344 31.2156C8.27344 30.8139 8.59905 30.4883 9.00071 30.4883" stroke-width="2" stroke-linecap="round" stroke-linejoin="round"/>
<path d="M9.00071 37.6875C9.40237 37.6875 9.72798 38.0131 9.72798 38.4148C9.72798 38.8164 9.40237 39.142 9.00071 39.142C8.59905 39.142 8.27344 38.8164 8.27344 38.4148C8.27344 38.0131 8.59905 37.6875 9.00071 37.6875" stroke-width="2" stroke-linecap="round" stroke-linejoin="round"/>
<path d="M17.3034 30.4883C17.7051 30.4883 18.0307 30.8139 18.0307 31.2156C18.0307 31.6172 17.7051 31.9428 17.3034 31.9428C16.9018 31.9428 16.5762 31.6172 16.5762 31.2156C16.5762 30.8139 16.9018 30.4883 17.3034 30.4883" stroke-width="2" stroke-linecap="round" stroke-linejoin="round"/>
<path d="M25.0007 30.4883C25.4024 30.4883 25.728 30.8139 25.728 31.2156C25.728 31.6172 25.4024 31.9428 25.0007 31.9428C24.599 31.9428 24.2734 31.6172 24.2734 31.2156C24.2734 30.8139 24.599 30.4883 25.0007 30.4883" stroke-width="2" stroke-linecap="round" stroke-linejoin="round"/>
<path d="M17.957 40.8867H33.0191C33.8199 40.8867 34.4691 41.5359 34.4691 42.3367V42.3367C34.4691 43.1375 33.8199 43.7867 33.0191 43.7867H29.9382" stroke-width="1.5" stroke-linecap="round"/>
<path d="M26.3369 52.7227L18.4501 52.7227C17.6493 52.7227 17.0001 52.0735 17.0001 51.2727V51.2727C17.0001 50.4718 17.6493 49.8227 18.4501 49.8227H21.531" stroke-width="1.5" stroke-linecap="round"/>
<path d="M17.9111 37.6875H33.1944C35.711 37.6875 37.7511 39.7276 37.7511 42.2442V42.2442C37.7511 44.7608 35.711 46.8009 33.1944 46.8009H20.0579" stroke-width="1.5" stroke-linecap="round"/>
<path d="M39.0117 55.9141L18.1569 55.9141C15.6403 55.9141 13.6001 53.8739 13.6001 51.3573V51.3573C13.6001 48.8407 15.6403 46.8006 18.1569 46.8006H22.4467" stroke-width="1.5" stroke-linecap="round"/>
<rect x="28.6035" y="53.7227" width="3.442" height="4.36981" rx="1"/>
<rect x="32.9951" y="53.7227" width="1.90044" height="4.36981" rx="0.950219"/>
</svg>
