<svg width="42" height="58" viewBox="0 0 42 58" fill="none" xmlns="http://www.w3.org/2000/svg">
<path d="M33 33.1392V5.39844C33 3.1893 31.2091 1.39844 29 1.39844H5C2.79086 1.39844 1 3.1893 1 5.39844V41.0348C1 43.2439 2.79086 45.0348 5 45.0348H9" stroke-width="2" stroke-linecap="round" stroke-linejoin="round"/>
<path fill-rule="evenodd" clip-rule="evenodd" d="M6.81836 7.96484C6.81836 7.55063 7.15415 7.21484 7.56836 7.21484H26.432C26.8462 7.21484 27.182 7.55063 27.182 7.96484V15.1921C27.182 15.6063 26.8462 15.9421 26.432 15.9421H7.56836C7.15415 15.9421 6.81836 15.6063 6.81836 15.1921V7.96484Z" stroke-width="2" stroke-linecap="round" stroke-linejoin="round"/>
<path d="M9.00071 23.2148C9.40237 23.2148 9.72798 23.5405 9.72798 23.9421C9.72798 24.3438 9.40237 24.6694 9.00071 24.6694C8.59905 24.6694 8.27344 24.3438 8.27344 23.9421C8.27344 23.5405 8.59905 23.2148 9.00071 23.2148" stroke-width="2" stroke-linecap="round" stroke-linejoin="round"/>
<path d="M17.3034 23.2148C17.7051 23.2148 18.0307 23.5405 18.0307 23.9421C18.0307 24.3438 17.7051 24.6694 17.3034 24.6694C16.9018 24.6694 16.5762 24.3438 16.5762 23.9421C16.5762 23.5405 16.9018 23.2148 17.3034 23.2148" stroke-width="2" stroke-linecap="round" stroke-linejoin="round"/>
<path d="M25.0007 23.2148C25.4024 23.2148 25.728 23.5405 25.728 23.9421C25.728 24.3438 25.4024 24.6694 25.0007 24.6694C24.599 24.6694 24.2734 24.3438 24.2734 23.9421C24.2734 23.5405 24.599 23.2148 25.0007 23.2148" stroke-width="2" stroke-linecap="round" stroke-linejoin="round"/>
<path d="M9.00071 30.4883C9.40237 30.4883 9.72798 30.8139 9.72798 31.2156C9.72798 31.6172 9.40237 31.9428 9.00071 31.9428C8.59905 31.9428 8.27344 31.6172 8.27344 31.2156C8.27344 30.8139 8.59905 30.4883 9.00071 30.4883" stroke-width="2" stroke-linecap="round" stroke-linejoin="round"/>
<path d="M9.00071 37.6875C9.40237 37.6875 9.72798 38.0131 9.72798 38.4148C9.72798 38.8164 9.40237 39.142 9.00071 39.142C8.59905 39.142 8.27344 38.8164 8.27344 38.4148C8.27344 38.0131 8.59905 37.6875 9.00071 37.6875" stroke-width="2" stroke-linecap="round" stroke-linejoin="round"/>
<path d="M17.3034 30.4883C17.7051 30.4883 18.0307 30.8139 18.0307 31.2156C18.0307 31.6172 17.7051 31.9428 17.3034 31.9428C16.9018 31.9428 16.5762 31.6172 16.5762 31.2156C16.5762 30.8139 16.9018 30.4883 17.3034 30.4883" stroke-width="2" stroke-linecap="round" stroke-linejoin="round"/>
<path d="M25.0007 30.4883C25.4024 30.4883 25.728 30.8139 25.728 31.2156C25.728 31.6172 25.4024 31.9428 25.0007 31.9428C24.599 31.9428 24.2734 31.6172 24.2734 31.2156C24.2734 30.8139 24.599 30.4883 25.0007 30.4883" stroke-width="2" stroke-linecap="round" stroke-linejoin="round"/>
<path d="M36.9248 37.8164C39.3138 40.1817 40.7937 43.4635 40.7937 47.0909C40.7937 50.7183 39.3138 54.0001 36.9248 56.3654" stroke-width="2" stroke-linecap="round"/>
<path d="M34.2959 40.2188C36.1083 41.948 37.2374 44.3871 37.2374 47.0898C37.2374 49.7926 36.1083 52.2316 34.2959 53.9609" stroke-width="2" stroke-linecap="round"/>
<path d="M31.9678 42.8672C33.0481 43.9482 33.7162 45.4411 33.7162 47.0901C33.7162 48.7391 33.0481 50.2321 31.9678 51.3131" stroke-width="2" stroke-linecap="round"/>
<path d="M28.16 53.8242V40.3614C28.16 38.7509 26.3537 37.8009 25.0267 38.7135L18.7052 43.061C18.3717 43.2903 17.9765 43.4131 17.5718 43.4131H15.5705C14.4658 43.4131 13.5701 44.3089 13.5699 45.4136C13.5697 46.6023 13.5692 47.748 13.5693 48.9291C13.5693 50.0331 14.4645 50.9278 15.5686 50.9278H17.7921C18.1965 50.9278 18.5914 51.0504 18.9247 51.2795L25.0274 55.4726C26.3545 56.3844 28.16 55.4343 28.16 53.8242Z" stroke-width="2" stroke-linecap="round"/>
</svg>
