<svg width="43" height="39" viewBox="0 0 43 39" fill="none" xmlns="http://www.w3.org/2000/svg">
<path d="M35.9766 32.4023V19.4023" stroke-width="1.5" stroke-linecap="round" stroke-linejoin="round"/>
<path d="M31.9766 29.4023L35.0276 32.4534C35.5517 32.9775 36.4014 32.9775 36.9255 32.4534L39.9766 29.4023"  stroke-width="1.5" stroke-linecap="round" stroke-linejoin="round"/>
<path d="M28.9766 37.4023H32.2266H35.4766H38.7266H41.9766"  stroke-width="1.5" stroke-linecap="round" stroke-linejoin="round"/>
<path fill-rule="evenodd" clip-rule="evenodd" d="M23.2028 31.4024H2.79734C2.32009 31.4028 1.86232 31.2132 1.5251 30.8755C1.18788 30.5377 0.998941 30.0797 1 29.6024V7.40234H25.0001V29.6024C25.0012 30.0797 24.8122 30.5377 24.475 30.8755C24.1378 31.2132 23.68 31.4028 23.2028 31.4024Z"  stroke-width="1.5" stroke-linecap="round" stroke-linejoin="round"/>
<path d="M13 7.40234V31.4024"  stroke-width="1.5" stroke-linecap="round" stroke-linejoin="round"/>
<path d="M1 19.4023H25.0001"  stroke-width="1.5" stroke-linecap="round" stroke-linejoin="round"/>
<path d="M7.00098 11.4023V15.4024"  stroke-width="1.5" stroke-linecap="round" stroke-linejoin="round"/>
<path d="M5 13.4023H9.00002"  stroke-width="1.5" stroke-linecap="round" stroke-linejoin="round"/>
<path d="M9.00002 23.4023L5 27.4024"  stroke-width="1.5" stroke-linecap="round" stroke-linejoin="round"/>
<path d="M5 23.4023L9.00002 27.4024"  stroke-width="1.5" stroke-linecap="round" stroke-linejoin="round"/>
<path d="M17 13.4023H21"  stroke-width="1.5" stroke-linecap="round" stroke-linejoin="round"/>
<path d="M17 23.4023H21"  stroke-width="1.5" stroke-linecap="round" stroke-linejoin="round"/>
<path d="M17 27.4023H21"  stroke-width="1.5" stroke-linecap="round" stroke-linejoin="round"/>
<path fill-rule="evenodd" clip-rule="evenodd" d="M25.0001 7.40237H1V3.40235C1 2.29778 1.89543 1.40234 3.00001 1.40234H23.0001C24.1047 1.40234 25.0001 2.29778 25.0001 3.40235V7.40237Z"  stroke-width="1.5" stroke-linecap="round" stroke-linejoin="round"/>
</svg>
