<svg width="18" height="18" viewBox="0 0 18 18" xmlns="http://www.w3.org/2000/svg">
<path d="M10.6669 12.8872H9.55577V6.8316H7.88911C7.58203 6.8316 7.33355 7.08033 7.33355 7.38715C7.33355 7.69398 7.58203 7.94271 7.88911 7.94271H8.44466V12.8872H7.33355C7.02648 12.8872 6.77799 13.1359 6.77799 13.4427C6.77799 13.7495 7.02648 13.9983 7.33355 13.9983H10.6669C10.974 13.9983 11.2224 13.7495 11.2224 13.4427C11.2224 13.1359 10.974 12.8872 10.6669 12.8872Z"/>
<path d="M9.76139 4.80382C9.76139 5.23337 9.41309 5.5816 8.98394 5.5816C8.55425 5.5816 8.20595 5.23337 8.20595 4.80382C8.20595 4.37426 8.55425 4.02604 8.98394 4.02604C9.41309 4.02604 9.76139 4.37426 9.76139 4.80382Z"/>
<path fill-rule="evenodd" clip-rule="evenodd" d="M0.111328 8.99826C0.111328 13.9075 4.09082 17.8872 9.00022 17.8872C11.3575 17.8872 13.6188 16.9506 15.2855 15.2837C16.9527 13.6167 17.8891 11.3557 17.8891 8.99826C17.8891 4.08907 13.9096 0.109375 9.00022 0.109375C4.09082 0.109375 0.111328 4.08907 0.111328 8.99826ZM1.22244 8.99826C1.22244 4.70272 4.70443 1.22049 9.00022 1.22049C13.296 1.22049 16.778 4.70272 16.778 8.99826C16.778 13.2938 13.296 16.776 9.00022 16.776C4.70443 16.776 1.22244 13.2938 1.22244 8.99826Z"/>
</svg>
