<!-- Generated by IcoMoon.io -->
<svg version="1.1" xmlns="http://www.w3.org/2000/svg" width="32" height="32" viewBox="0 0 32 32">
<title>info</title>
<path d="M16 0c4.243 0 8.314 1.686 11.314 4.686s4.686 7.070 4.686 11.314c0 8.836-7.163 16-16 16s-16-7.163-16-16c0-8.837 7.163-16 16-16zM15.9 5.28c-1.104 0-2 0.895-2 2s0.896 2 2 2c1.105 0 2-0.895 2-2s-0.895-2-2-2zM11.1 25.13c0 0.773 0.627 1.4 1.4 1.4h7c0.772 0 1.399-0.627 1.399-1.4s-0.627-1.4-1.399-1.4h-2.101v-12h-4.399c-0.773 0-1.4 0.627-1.4 1.4s0.627 1.4 1.4 1.4h1.6v9.2h-2.1c-0.773 0-1.4 0.627-1.4 1.4z"></path>
</svg>
