<!-- Generated by IcoMoon.io -->
<svg version="1.1" xmlns="http://www.w3.org/2000/svg" width="32" height="32" viewBox="0 0 32 32">
<title>lock</title>
<path d="M24.091 8.455c0.090-4.565-3.526-8.345-8.091-8.455-4.565 0.111-8.181 3.89-8.091 8.455v4.329h-3.034v17.193c0 1.117 0.906 2.023 2.023 2.023h18.205c1.117 0 2.023-0.906 2.023-2.023v-17.193h-3.034v-4.329zM16 2.023c3.448 0.11 6.159 2.984 6.068 6.432v4.329h-12.137v-4.329c-0.091-3.448 2.621-6.322 6.068-6.432zM6.898 29.977v-15.171h18.205v15.171h-18.205zM13.739 20.307c0.261-1.090 1.231-1.861 2.352-1.87 1.164 0.002 2.164 0.826 2.388 1.968s-0.391 2.283-1.468 2.724v2.802h-2.023v-2.893c-0.995-0.515-1.511-1.643-1.25-2.732z"></path>
</svg>
