<svg width="91" height="16" viewBox="0 0 91 16" xmlns="http://www.w3.org/2000/svg">
<path fill-rule="evenodd" clip-rule="evenodd" d="M50.7289 11.5977C49.7235 12.5439 48.3982 12.9974 46.7326 12.9974C45.086 12.9974 43.7619 12.5426 42.754 11.6002C41.7562 10.6843 41.2648 9.4635 41.2648 7.94536C41.2648 6.41841 41.7725 5.19634 42.7603 4.25775C43.7656 3.34309 45.1011 2.8467 46.7188 2.8467C48.3856 2.8467 49.716 3.34309 50.7163 4.25775C51.7229 5.1913 52.2105 6.41841 52.2105 7.94536C52.2105 9.4509 51.7179 10.6843 50.7289 11.5977ZM52.9437 2.49268C51.3336 1.00352 49.2612 0.253906 46.7188 0.253906C44.2242 0.253906 42.1618 1.02242 40.5379 2.49268C38.9164 3.94656 38.0938 5.78596 38.0938 8.02473C38.0938 10.2194 38.9303 12.0827 40.553 13.5656C42.1833 15.0459 44.2419 15.793 46.7188 15.793C49.2183 15.793 51.321 15.0623 52.9437 13.5807C54.5866 12.1117 55.403 10.2534 55.403 8.02851C55.403 5.78596 54.5866 3.93648 52.9437 2.49268Z"/>
<path d="M17.8247 13.3212C14.9849 14.9515 12.2334 15.7641 9.56374 15.7641C7.01882 15.7641 4.94887 15.1215 3.35514 13.8151C1.61275 12.4053 0.742188 10.4613 0.742188 7.99702C0.742188 5.48107 1.65307 3.53081 3.45971 2.15378C5.10761 0.897696 7.21032 0.253906 9.80437 0.253906C11.4838 0.253906 13.1367 0.594069 14.8136 1.27691C15.3427 1.48353 15.6955 1.59566 15.863 1.59566C15.9953 1.59566 16.1667 1.50243 16.4023 1.31975L16.6958 1.48353L14.9434 5.10059L14.6485 4.91162C14.6284 4.6735 14.5793 4.50468 14.5339 4.39003C14.4772 4.2842 14.3487 4.15948 14.1496 3.9957C13.6747 3.63538 12.9679 3.34435 12.0243 3.12639C11.1751 2.90718 10.4003 2.79883 9.7187 2.79883C8.13002 2.79883 6.78952 3.27631 5.73628 4.21491C4.6339 5.18501 4.08334 6.45747 4.08334 8.04741C4.08334 9.65374 4.66414 10.9413 5.81817 11.8975C6.89157 12.7757 8.26104 13.2229 9.89004 13.2229C11.6564 13.2229 13.1606 12.8815 14.4092 12.1747V10.106H10.7216C10.3159 10.106 10.0513 10.3404 9.92406 10.8015H9.5902V7.33937H9.92406C10.0513 7.79292 10.3159 8.01718 10.7216 8.01718H17.8247V8.37624C17.3673 8.47324 17.1355 8.74664 17.1355 9.17499V12.239C17.1355 12.6585 17.3673 12.9269 17.8247 13.0377V13.3212Z"/>
<path d="M32.4429 4.9807C32.4429 4.1177 32.0902 3.5369 31.3809 3.26225C30.9487 3.09091 30.2142 2.99516 29.1698 2.99516H24.1316V6.93097H29.1698C30.1865 6.93097 30.9223 6.84026 31.3531 6.66892C32.0813 6.38797 32.4429 5.82481 32.4429 4.9807ZM36.5791 15.522H31.1352V15.1793C31.4917 15.1339 31.682 14.9916 31.682 14.7723C31.682 14.6375 31.4993 14.3125 31.1465 13.8161L28.1077 9.41668H24.1316V14.3805C24.1316 14.7723 24.3685 15.0357 24.8283 15.1793V15.522H20.1719V15.1793C20.6456 15.0243 20.8686 14.7686 20.8686 14.3805V1.67482C20.8686 1.27923 20.6456 1.00458 20.1719 0.879851V0.519531H29.6549C32.933 0.519531 34.8732 1.37372 35.4553 3.09091C35.6367 3.63139 35.7387 4.25754 35.7387 4.97314C35.7387 7.41727 34.3693 8.84848 31.6328 9.28187L34.5406 13.4205C35.0521 14.126 35.328 14.5002 35.3683 14.5582C35.7236 14.9487 36.1268 15.149 36.5791 15.1793V15.522Z"/>
<path d="M73.722 0.879851C73.252 1.00458 73.019 1.27923 73.019 1.6723V10.0705C73.019 12.3559 72.3172 13.9219 70.9011 14.7837C69.824 15.4376 68.0564 15.7651 65.5921 15.7651C63.1971 15.7651 61.4522 15.4325 60.3296 14.7383C58.8934 13.8501 58.1602 12.2917 58.1602 10.0705V1.6723C58.1602 1.27923 57.9346 1.00458 57.4609 0.879851V0.519531H62.1703V0.879851C61.6941 1.00458 61.4522 1.27923 61.4522 1.67482V9.13447C61.4522 10.7294 61.7634 11.8016 62.3958 12.3698C63.0194 12.9455 64.1332 13.2252 65.7294 13.2252C67.3635 13.2252 68.4835 12.9531 69.092 12.3811C69.7055 11.818 70.0205 10.7357 70.0205 9.13447V1.67482C70.0205 1.27923 69.7836 1.00458 69.3162 0.879851V0.519531H73.722V0.879851Z"/>
<path d="M87.6126 4.9807C87.6126 4.15045 87.3505 3.62761 86.8491 3.36178C86.3565 3.11359 85.6182 2.99138 84.6595 2.99138H79.6541V6.95616H84.6595C85.5968 6.95616 86.3225 6.83144 86.8327 6.59584C87.3505 6.35395 87.6126 5.81725 87.6126 4.9807ZM90.9525 4.9807C90.9525 7.95775 88.9858 9.44313 85.0702 9.44313H79.6541V14.3755C79.6541 14.7686 79.8896 15.0357 80.3495 15.1793V15.522H75.7031V15.1793C76.1516 15.0357 76.3897 14.7686 76.3897 14.3755V1.6723C76.3897 1.27923 76.1516 1.00458 75.7031 0.879851V0.519531H85.0664C86.8781 0.519531 88.2627 0.80048 89.1899 1.34726C90.3629 2.07042 90.9525 3.27737 90.9525 4.9807Z"/>
</svg>
