<svg width="205" height="17" viewBox="0 0 205 17" fill="none" xmlns="http://www.w3.org/2000/svg">
<path fill-rule="evenodd" clip-rule="evenodd" d="M13.6437 13.4615C13.936 13.4615 14.1276 13.4315 14.2183 13.3389C14.3217 13.2554 14.3998 13.0546 14.4653 12.7572H14.8308V17H14.4653C14.3998 16.7183 14.3217 16.52 14.2183 16.4144C14.0936 16.3048 13.9197 16.2396 13.6437 16.2396H0V15.8731C0.297396 15.7805 0.512882 15.6788 0.57841 15.5822C0.680483 15.4675 0.709466 15.2888 0.709466 15.0253V1.98903C0.709466 1.68383 0.667882 1.47384 0.57085 1.36297C0.49146 1.25602 0.297396 1.18168 0 1.11777V0.718659H13.4748C13.7659 0.726485 13.9524 0.693878 14.0595 0.609099C14.1503 0.491714 14.2322 0.28955 14.3002 0H14.6707L14.6594 4.22587H14.2952C14.2322 3.92328 14.1276 3.73416 14.0381 3.65851C13.9197 3.56199 13.7281 3.51373 13.4748 3.51373H4.01107V6.91008H10.0396C10.3383 6.91008 10.5273 6.86052 10.6218 6.79661C10.7138 6.68835 10.8008 6.53054 10.8839 6.20186H11.2368V10.129H10.8839C10.826 9.85906 10.739 9.66081 10.6218 9.57603C10.5273 9.46778 10.3156 9.40387 10.0396 9.40387H4.01107V13.4589L13.6437 13.4615Z" fill="#0058A1"/>
<path fill-rule="evenodd" clip-rule="evenodd" d="M18.2148 15.0557L19.8203 11.3425L20.284 11.5603C20.2676 11.572 20.2676 11.6072 20.2676 11.6333C20.2361 11.7233 20.216 11.7963 20.216 11.859C20.2084 12.2476 20.8347 12.6611 22.0255 13.1215C23.2731 13.5728 24.5333 13.8062 25.8224 13.8062C26.9792 13.8062 27.9294 13.6158 28.6779 13.1998C29.4214 12.8085 29.7868 12.3181 29.7868 11.7168C29.7868 10.7294 28.533 10.2051 26.0076 10.0682C25.0852 10.029 24.3531 9.98339 23.8351 9.94557C22.0432 9.7721 20.6986 9.32995 19.8203 8.61781C18.9634 7.90698 18.4908 6.91703 18.4908 5.64796C18.4908 4.12196 19.1474 2.87376 20.4012 1.92424C21.7118 0.998202 23.3777 0.519531 25.4645 0.519531C27.1821 0.519531 29.0635 0.998202 31.1327 1.92946C31.6594 2.16684 31.9644 2.27249 32.0614 2.27249C32.1257 2.27249 32.1975 2.2477 32.2605 2.22423C32.3462 2.16684 32.4558 2.0938 32.5995 1.99859L32.9687 2.16684L31.1327 5.81883L30.6526 5.56058C30.6526 5.55406 30.6526 5.51493 30.6589 5.49797C30.6702 5.4771 30.6702 5.45102 30.6702 5.41189C30.6702 4.94365 30.1019 4.45324 28.9526 3.92501C27.8147 3.42808 26.6339 3.1594 25.3826 3.1594C24.2951 3.1594 23.4029 3.35373 22.7312 3.69937C22.0646 4.0437 21.7408 4.51715 21.7408 5.08191C21.7408 5.91143 22.7942 6.38358 24.9529 6.53748C26.0719 6.61183 26.9452 6.68748 27.6105 6.77486C29.4214 6.9992 30.8088 7.52352 31.7552 8.31261C32.7091 9.10431 33.1842 10.1295 33.1842 11.3881C33.1817 12.8672 32.4697 14.0867 31.0772 15.057C29.6797 16.03 27.9016 16.5257 25.7014 16.5257C23.6133 16.5257 21.6122 16.0392 19.7031 15.1262C19.3402 14.9358 19.1058 14.8653 19.0327 14.8653C18.9634 14.8653 18.8701 14.9044 18.7996 14.9162C18.7731 14.9892 18.7088 15.057 18.6748 15.1979L18.2148 15.0557Z" fill="#0058A1"/>
<path fill-rule="evenodd" clip-rule="evenodd" d="M50.4121 10.9188L50.7234 10.7075L52.8014 14.0425L52.4775 14.2812C52.3742 14.1547 52.2872 14.0882 52.2457 14.0686C52.1675 14.0217 52.1133 14.0217 52.068 14.0217C51.9546 14.0217 51.6458 14.1756 51.1644 14.4781C48.8621 15.8646 46.6581 16.5507 44.5121 16.5507C42.0195 16.5467 39.9554 15.7811 38.3084 14.2656C36.65 12.7056 35.8359 10.7975 35.8359 8.49541C35.8359 6.11771 36.6676 4.19259 38.3449 2.68223C40.0222 1.16405 42.1997 0.398438 44.9015 0.398438C46.2688 0.398438 47.6549 0.634512 49.0587 1.12101C50.4562 1.58794 51.206 1.81749 51.2791 1.81749C51.419 1.81749 51.5274 1.7875 51.6458 1.7875C51.7517 1.77054 51.9067 1.73272 52.068 1.74315L52.3742 1.93488L50.266 5.43427L49.9383 5.23732V5.18645C49.9446 5.16298 49.9446 5.13689 49.9446 5.09515C49.9446 4.65952 49.3965 4.21215 48.2888 3.74C47.1824 3.29785 46.0218 3.067 44.7994 3.067C43.1461 3.067 41.7524 3.56132 40.6838 4.54735C39.5988 5.55426 39.0506 6.80637 39.0443 8.31281C39.0443 9.92882 39.595 11.2292 40.6724 12.1957C41.7524 13.2052 43.1751 13.6995 44.8977 13.6995C46.1742 13.6995 47.4306 13.4165 48.6681 12.8348C49.9068 12.2635 50.5104 11.8109 50.5104 11.4431C50.5104 11.374 50.5104 11.3035 50.4852 11.2148C50.4701 11.1079 50.4197 11.0335 50.4121 10.9188Z" fill="#0058A1"/>
<path fill-rule="evenodd" clip-rule="evenodd" d="M67.8776 12.1969C66.8708 13.1777 65.5476 13.6459 63.8779 13.6459C62.2334 13.6459 60.909 13.1738 59.9021 12.1995C58.9028 11.2526 58.4088 9.98742 58.4088 8.41446C58.4088 6.83497 58.9192 5.56982 59.9072 4.59813C60.9128 3.64992 62.2498 3.13994 63.8691 3.13994C65.5337 3.13994 66.8632 3.64992 67.8638 4.59813C68.8706 5.5646 69.3608 6.83497 69.3608 8.41446C69.3608 9.97438 68.8618 11.2526 67.8776 12.1969ZM70.0905 2.77083C68.4838 1.23178 66.407 0.453125 63.8691 0.453125C61.3677 0.453125 59.3111 1.24874 57.6868 2.77083C56.0599 4.27467 55.2383 6.18022 55.2383 8.49923C55.2383 10.7726 56.0738 12.699 57.6981 14.2355C59.33 15.7706 61.3891 16.5401 63.8691 16.5401C66.3692 16.5401 68.4686 15.7836 70.0905 14.2498C71.7362 12.729 72.5515 10.8039 72.5515 8.50315C72.5515 6.18022 71.7362 4.26815 70.0905 2.77083Z" fill="#0058A1"/>
<path fill-rule="evenodd" clip-rule="evenodd" d="M84.029 7.65878H79.3916V3.41204H83.9168C85.3723 3.41204 86.3993 3.58681 86.9702 3.88549C87.5398 4.19461 87.8183 4.71762 87.8183 5.4728C87.8183 6.25798 87.5398 6.83447 86.9588 7.15272C86.3729 7.50748 85.3723 7.65878 84.029 7.65878ZM90.7154 15.1558C90.4885 14.9393 90.2604 14.6993 90.0891 14.4097L86.9261 9.85127C88.3034 9.42738 89.3342 8.87567 89.9908 8.13223C90.6486 7.3614 90.9888 6.41058 90.9888 5.24325C90.9888 3.84506 90.4583 2.72729 89.3809 1.94211C88.2807 1.15563 86.7799 0.75 84.8204 0.75H75.3957V1.14259C75.6956 1.21824 75.8707 1.30041 75.9552 1.42562C76.0686 1.5417 76.1077 1.7556 76.0951 2.01907V15.0371C76.0951 15.3136 76.0623 15.5171 75.9552 15.6488C75.8707 15.7375 75.6792 15.8379 75.3906 15.8875V16.267H80.0897V15.8875C79.8201 15.8379 79.6046 15.7153 79.5328 15.6488C79.413 15.5392 79.3815 15.3293 79.3815 15.0371L79.3916 9.91779H83.4922L86.6098 14.6745C86.7131 14.8049 86.7799 14.9393 86.8694 15.1154C86.9299 15.268 86.9702 15.3788 86.9702 15.4036C86.9702 15.5392 86.9261 15.654 86.8026 15.7153C86.7131 15.7962 86.5417 15.8679 86.3565 15.8875V16.267H91.8545V15.8875C91.3366 15.6084 90.9485 15.3671 90.7154 15.1558Z" fill="#0058A1"/>
<path fill-rule="evenodd" clip-rule="evenodd" d="M94.6203 3.49154C94.3405 3.49154 94.1389 3.53067 94.0406 3.65458C93.9448 3.7224 93.8642 3.92195 93.7936 4.2102H93.4219V0.0117188H93.7936C93.8402 0.309095 93.9448 0.489086 94.0532 0.61821C94.1616 0.699075 94.3683 0.744725 94.6203 0.744725L107.198 0.751247C107.498 0.751247 107.684 0.717336 107.774 0.632558C107.883 0.522998 107.954 0.309095 108.027 0.0208487H108.411L108.393 4.25194H108.025C107.969 3.94543 107.876 3.7537 107.765 3.67544C107.655 3.54502 107.481 3.49545 107.198 3.49545H102.535L102.53 15.0475C102.53 15.3279 102.591 15.5483 102.661 15.6579C102.755 15.7205 102.939 15.834 103.217 15.8822V16.2618H98.5734V15.8822C98.8557 15.8092 99.0497 15.7113 99.1178 15.6031C99.2173 15.4922 99.2753 15.3122 99.2866 15.0331L99.2942 3.49545L94.6203 3.49154Z" fill="#0058A1"/>
<path fill-rule="evenodd" clip-rule="evenodd" d="M164.767 11.9703C163.761 12.9498 162.436 13.4194 160.77 13.4194C159.123 13.4194 157.798 12.9485 156.79 11.9729C155.792 11.0247 155.301 9.76086 155.301 8.1892C155.301 6.60841 155.809 5.34326 156.797 4.37157C157.802 3.42466 159.138 2.91077 160.756 2.91077C162.423 2.91077 163.754 3.42466 164.754 4.37157C165.761 5.33804 166.249 6.60841 166.249 8.1892C166.249 9.74781 165.756 11.0247 164.767 11.9703ZM166.982 2.54427C165.372 1.00261 163.299 0.226562 160.756 0.226562C158.261 0.226562 156.198 1.02217 154.574 2.54427C152.952 4.04941 152.129 5.95366 152.129 8.27137C152.129 10.5434 152.966 12.4725 154.589 14.0076C156.219 15.5401 158.278 16.3136 160.756 16.3136C163.256 16.3136 165.359 15.5571 166.982 14.0232C168.626 12.5025 169.442 10.5786 169.442 8.27528C169.442 5.95366 168.626 4.03898 166.982 2.54427Z" fill="#404040"/>
<path d="M131.856 13.7546C129.016 15.4423 126.263 16.2836 123.593 16.2836C121.048 16.2836 118.977 15.6184 117.383 14.2658C115.64 12.8064 114.77 10.7938 114.77 8.24267C114.77 5.63802 115.681 3.619 117.488 2.19342C119.136 0.89305 121.239 0.226562 123.834 0.226562C125.514 0.226562 127.167 0.578718 128.844 1.28564C129.373 1.49954 129.726 1.61562 129.894 1.61562C130.026 1.61562 130.198 1.5191 130.433 1.32998L130.727 1.49954L128.974 5.24413L128.679 5.04849C128.659 4.80198 128.61 4.62721 128.564 4.50852C128.508 4.39896 128.379 4.26983 128.18 4.10028C127.705 3.72725 126.998 3.42596 126.054 3.20032C125.205 2.97338 124.43 2.86121 123.748 2.86121C122.159 2.86121 120.818 3.35553 119.765 4.32722C118.662 5.33152 118.111 6.64884 118.111 8.29485C118.111 9.9578 118.692 11.2908 119.847 12.2807C120.92 13.1898 122.29 13.6528 123.92 13.6528C125.686 13.6528 127.191 13.2994 128.44 12.5677V10.426H124.751C124.345 10.426 124.081 10.6686 123.954 11.146H123.62V7.56184H123.954C124.081 8.03138 124.345 8.26354 124.751 8.26354H131.856V8.63526C131.399 8.73569 131.167 9.01872 131.167 9.46218V12.6342C131.167 13.0685 131.399 13.3463 131.856 13.4611V13.7546Z" fill="#404040"/>
<path d="M146.477 5.11846C146.477 4.22503 146.124 3.62375 145.415 3.33942C144.982 3.16204 144.248 3.06291 143.203 3.06291H138.164V7.13749H143.203C144.22 7.13749 144.956 7.04358 145.387 6.8662C146.115 6.57534 146.477 5.99233 146.477 5.11846ZM150.614 16.0314H145.169V15.6766C145.526 15.6297 145.716 15.4823 145.716 15.2553C145.716 15.1158 145.533 14.7793 145.18 14.2654L142.141 9.71083H138.164V14.8497C138.164 15.2553 138.401 15.5279 138.861 15.6766V16.0314H134.203V15.6766C134.677 15.5162 134.9 15.2514 134.9 14.8497V1.69603C134.9 1.28648 134.677 1.00215 134.203 0.873023V0.5H143.688C146.967 0.5 148.908 1.3843 149.49 3.16204C149.672 3.72157 149.774 4.3698 149.774 5.11063C149.774 7.64094 148.404 9.1226 145.667 9.57127L148.575 13.8558C149.087 14.5862 149.363 14.9736 149.403 15.0336C149.758 15.4379 150.162 15.6453 150.614 15.6766V16.0314Z" fill="#404040"/>
<path d="M187.765 0.873023C187.295 1.00215 187.062 1.28648 187.062 1.69342V10.3878C187.062 12.7537 186.36 14.3749 184.943 15.2671C183.866 15.944 182.098 16.2831 179.633 16.2831C177.237 16.2831 175.492 15.9388 174.369 15.2201C172.933 14.3006 172.199 12.6872 172.199 10.3878V1.69342C172.199 1.28648 171.974 1.00215 171.5 0.873023V0.5H176.21V0.873023C175.734 1.00215 175.492 1.28648 175.492 1.69603V9.41867C175.492 11.0699 175.803 12.1798 176.436 12.7681C177.06 13.3641 178.174 13.6537 179.77 13.6537C181.405 13.6537 182.525 13.3719 183.134 12.7798C183.747 12.1968 184.062 11.0764 184.062 9.41867V1.69603C184.062 1.28648 183.826 1.00215 183.358 0.873023V0.5H187.765V0.873023Z" fill="#404040"/>
<path d="M201.658 5.11846C201.658 4.25894 201.396 3.71766 200.895 3.44246C200.402 3.18551 199.664 3.059 198.705 3.059H193.698V7.16357H198.705C199.642 7.16357 200.368 7.03445 200.878 6.79055C201.396 6.54013 201.658 5.9845 201.658 5.11846ZM204.999 5.11846C204.999 8.20047 203.032 9.73822 199.115 9.73822H193.698V14.8445C193.698 15.2514 193.934 15.5279 194.394 15.6766V16.0314H189.746V15.6766C190.195 15.5279 190.433 15.2514 190.433 14.8445V1.69342C190.433 1.28648 190.195 1.00215 189.746 0.873023V0.5H199.112C200.924 0.5 202.309 0.790854 203.236 1.35691C204.409 2.10557 204.999 3.35507 204.999 5.11846Z" fill="#404040"/>
</svg>
