<svg width="109" height="17" viewBox="0 0 109 17" xmlns="http://www.w3.org/2000/svg">
<path fill-rule="evenodd" clip-rule="evenodd" d="M13.6405 13.0382C13.9328 13.0382 14.1243 13.0092 14.215 12.9198C14.3183 12.8391 14.3964 12.6451 14.462 12.3579H14.8273V16.4562H14.462C14.3964 16.1841 14.3183 15.9926 14.215 15.8905C14.0903 15.7847 13.9164 15.7217 13.6405 15.7217H0V15.3677C0.297327 15.2782 0.512763 15.18 0.578276 15.0867C0.680325 14.9759 0.709302 14.8033 0.709302 14.5488V1.95645C0.709302 1.66164 0.667727 1.4588 0.570718 1.35171C0.491346 1.2484 0.297327 1.17659 0 1.11486V0.72934H13.4717C13.7627 0.736899 13.9492 0.705403 14.0563 0.623512C14.147 0.510124 14.2289 0.314846 14.2969 0.0351562H14.6673L14.656 4.11711H14.2919C14.2289 3.82482 14.1243 3.64214 14.0349 3.56907C13.9164 3.47584 13.7249 3.42922 13.4717 3.42922H4.01014V6.7099H10.0373C10.3359 6.7099 10.5249 6.66203 10.6194 6.6003C10.7113 6.49573 10.7983 6.34328 10.8814 6.0258H11.2342V9.81924H10.8814C10.8235 9.55845 10.7365 9.36695 10.6194 9.28506C10.5249 9.18049 10.3132 9.11876 10.0373 9.11876H4.01014V13.0357L13.6405 13.0382Z"/>
<path fill-rule="evenodd" clip-rule="evenodd" d="M18.2109 14.5763L19.816 10.9895L20.2796 11.1999C20.2633 11.2112 20.2633 11.2452 20.2633 11.2704C20.2318 11.3574 20.2116 11.4279 20.2116 11.4884C20.204 11.8638 20.8302 12.2632 22.0208 12.7079C23.268 13.1439 24.5279 13.3694 25.8167 13.3694C26.9733 13.3694 27.9232 13.1854 28.6716 12.7835C29.4149 12.4056 29.7802 11.9319 29.7802 11.3511C29.7802 10.3974 28.5267 9.89089 26.0019 9.7586C25.0797 9.72081 24.3477 9.67671 23.8299 9.64018C22.0384 9.47262 20.6941 9.04552 19.816 8.35764C18.9593 7.67101 18.4868 6.71478 18.4868 5.48893C18.4868 4.01489 19.1432 2.80921 20.3968 1.89203C21.7071 0.997526 23.3726 0.535156 25.4589 0.535156C27.1761 0.535156 29.0571 0.997526 31.1258 1.89707C31.6524 2.12636 31.9573 2.22841 32.0543 2.22841C32.1186 2.22841 32.1904 2.20447 32.2534 2.1818C32.339 2.12636 32.4486 2.05581 32.5923 1.96384L32.9614 2.12636L31.1258 5.65398L30.6458 5.40452C30.6458 5.39822 30.6458 5.36043 30.6521 5.34405C30.6634 5.32389 30.6634 5.29869 30.6634 5.2609C30.6634 4.80861 30.0952 4.3349 28.9462 3.82466C27.8086 3.34465 26.6281 3.08512 25.377 3.08512C24.2898 3.08512 23.3978 3.27284 22.7263 3.6067C22.0598 3.9393 21.736 4.39663 21.736 4.94215C21.736 5.74343 22.7893 6.19949 24.9474 6.34816C26.0662 6.41997 26.9393 6.49304 27.6045 6.57745C29.4149 6.79415 30.802 7.30061 31.7482 8.06283C32.7019 8.82757 33.1768 9.81782 33.1768 11.0336C33.1743 12.4623 32.4625 13.6402 31.0703 14.5776C29.6732 15.5174 27.8955 15.9962 25.6958 15.9962C23.6082 15.9962 21.6075 15.5263 19.6988 14.6443C19.336 14.4604 19.1017 14.3924 19.0286 14.3924C18.9593 14.3924 18.8661 14.4302 18.7955 14.4415C18.7691 14.5121 18.7048 14.5776 18.6708 14.7136L18.2109 14.5763Z"/>
<path fill-rule="evenodd" clip-rule="evenodd" d="M50.4009 10.5839L50.7121 10.3798L52.7896 13.6013L52.4659 13.8318C52.3626 13.7096 52.2756 13.6454 52.234 13.6265C52.1559 13.5811 52.1018 13.5811 52.0564 13.5811C51.943 13.5811 51.6344 13.7298 51.1531 14.0221C48.8513 15.3613 46.6478 16.024 44.5023 16.024C42.0103 16.0202 39.9466 15.2807 38.3 13.8167C36.642 12.3099 35.8281 10.4668 35.8281 8.2431C35.8281 5.94637 36.6596 4.08681 38.3365 2.62789C40.0134 1.16141 42.1904 0.421875 44.8916 0.421875C46.2585 0.421875 47.6444 0.64991 49.0479 1.11984C50.445 1.57087 51.1947 1.7926 51.2677 1.7926C51.4076 1.7926 51.5159 1.76363 51.6344 1.76363C51.7402 1.74725 51.8951 1.71071 52.0564 1.72079L52.3626 1.90599L50.2548 5.2862L49.9272 5.09596V5.04683C49.9335 5.02415 49.9335 4.99895 49.9335 4.95864C49.9335 4.53784 49.3855 4.10571 48.2781 3.64964C47.1719 3.22255 46.0116 2.99955 44.7895 2.99955C43.1366 2.99955 41.7432 3.47704 40.6748 4.42949C39.5901 5.40211 39.042 6.61158 39.0357 8.06672C39.0357 9.62768 39.5863 10.8838 40.6635 11.8173C41.7432 12.7925 43.1656 13.2699 44.8878 13.2699C46.164 13.2699 47.4201 12.9966 48.6573 12.4347C49.8957 11.8828 50.4992 11.4457 50.4992 11.0904C50.4992 11.0236 50.4992 10.9556 50.474 10.8699C50.4589 10.7666 50.4085 10.6948 50.4009 10.5839Z"/>
<path fill-rule="evenodd" clip-rule="evenodd" d="M67.863 11.8165C66.8563 12.7639 65.5335 13.2162 63.8642 13.2162C62.2201 13.2162 60.8959 12.7601 59.8893 11.819C58.8902 10.9043 58.3964 9.68225 58.3964 8.16285C58.3964 6.63716 58.9066 5.41509 59.8944 4.4765C60.8997 3.56058 62.2364 3.06797 63.8554 3.06797C65.5196 3.06797 66.8488 3.56058 67.8491 4.4765C68.8557 5.41005 69.3458 6.63716 69.3458 8.16285C69.3458 9.66965 68.8469 10.9043 67.863 11.8165ZM70.0753 2.71143C68.469 1.22479 66.3927 0.472656 63.8554 0.472656C61.3545 0.472656 59.2984 1.24117 57.6745 2.71143C56.048 4.16405 55.2266 6.00471 55.2266 8.24474C55.2266 10.4407 56.0619 12.3015 57.6858 13.7856C59.3173 15.2685 61.3759 16.0118 63.8554 16.0118C66.3549 16.0118 68.4539 15.2811 70.0753 13.7995C71.7207 12.3305 72.5358 10.4709 72.5358 8.24852C72.5358 6.00471 71.7207 4.15775 70.0753 2.71143Z"/>
<path fill-rule="evenodd" clip-rule="evenodd" d="M84.0114 7.4313H79.3751V3.32919H83.8992C85.3544 3.32919 86.3812 3.49801 86.9519 3.78652C87.5213 4.08511 87.7998 4.59031 87.7998 5.31977C87.7998 6.07821 87.5213 6.63507 86.9405 6.94247C86.3547 7.28516 85.3544 7.4313 84.0114 7.4313ZM90.6962 14.673C90.4694 14.4638 90.2414 14.232 90.07 13.9523L86.9078 9.54913C88.2848 9.13967 89.3154 8.60675 89.9718 7.88863C90.6294 7.14405 90.9696 6.22561 90.9696 5.09804C90.9696 3.74746 90.4392 2.66776 89.362 1.90933C88.2621 1.14963 86.7616 0.757812 84.8025 0.757812H75.38V1.13703C75.6799 1.2101 75.855 1.28947 75.9394 1.41042C76.0528 1.52255 76.0919 1.72917 76.0793 1.98366V14.5583C76.0793 14.8254 76.0465 15.022 75.9394 15.1492C75.855 15.2349 75.6635 15.3319 75.375 15.3798V15.7464H80.073V15.3798C79.8034 15.3319 79.588 15.2135 79.5162 15.1492C79.3965 15.0434 79.365 14.8405 79.365 14.5583L79.3751 9.61338H83.4747L86.5916 14.2081C86.6949 14.3341 86.7616 14.4638 86.8511 14.6339C86.9116 14.7813 86.9519 14.8884 86.9519 14.9124C86.9519 15.0434 86.9078 15.1543 86.7843 15.2135C86.6949 15.2916 86.5235 15.3609 86.3383 15.3798V15.7464H91.8351V15.3798C91.3173 15.1102 90.9293 14.8771 90.6962 14.673Z"/>
<path fill-rule="evenodd" clip-rule="evenodd" d="M94.5966 3.40819C94.3169 3.40819 94.1153 3.44598 94.017 3.56567C93.9213 3.63118 93.8406 3.82394 93.7701 4.10237H93.3984V0.046875H93.7701C93.8167 0.334123 93.9213 0.507985 94.0296 0.632711C94.138 0.710822 94.3446 0.754918 94.5966 0.754918L107.171 0.761217C107.471 0.761217 107.658 0.728461 107.747 0.64657C107.857 0.540742 107.927 0.334123 108 0.055694H108.384L108.366 4.14269H107.998C107.942 3.84662 107.849 3.66142 107.738 3.58583C107.629 3.45984 107.455 3.41197 107.171 3.41197H102.51L102.505 14.5706C102.505 14.8414 102.565 15.0543 102.636 15.1602C102.729 15.2206 102.913 15.3303 103.191 15.3769V15.7435H98.5488V15.3769C98.831 15.3063 99.025 15.2118 99.093 15.1073C99.1925 15.0002 99.2505 14.8263 99.2618 14.5567L99.2694 3.41197L94.5966 3.40819Z"/>
</svg>
