<svg width="16" height="23" viewBox="0 0 16 23" xmlns="http://www.w3.org/2000/svg">
<path fill-rule="evenodd" clip-rule="evenodd" d="M0.146484 8.15204C0.168457 3.8293 3.677 0.335632 7.99984 0.332031C12.3252 0.33197 15.8378 3.8267 15.8598 8.15204C15.8598 11.259 14.1203 13.8547 12.8477 15.7537L12.8398 15.7654L12.6064 16.1187C11.3328 17.9643 9.96655 19.7444 8.51318 21.452L8.00651 22.0454L7.49984 21.452C6.04623 19.7445 4.68001 17.9645 3.40649 16.1187L3.17318 15.772C1.89315 13.872 0.146484 11.2654 0.146484 8.15204ZM11.4865 15.352L11.7265 14.9987C12.9065 13.2654 14.5199 10.8587 14.5199 8.12537C14.5199 5.796 13.2771 3.64357 11.2598 2.47888C9.24251 1.31419 6.75708 1.31419 4.73983 2.47888C2.72249 3.64357 1.47982 5.796 1.47982 8.12537C1.47982 10.8223 3.0883 13.2215 4.26709 14.9798L4.27979 14.9987L4.51318 15.352C5.65983 17.072 7.21314 18.9987 7.99984 19.952C8.81983 18.9987 10.3398 17.072 11.4865 15.352ZM7.99984 4.4787C5.89014 4.4787 4.17985 6.18896 4.17985 8.29871C4.17985 10.4084 5.89014 12.1187 7.99984 12.1187C10.1095 12.1187 11.8198 10.4084 11.8198 8.29871C11.8198 7.28556 11.4174 6.31394 10.701 5.59755C9.98462 4.88116 9.01294 4.4787 7.99984 4.4787ZM5.51318 8.29871C5.51318 9.67204 6.62647 10.7854 7.99984 10.7854V10.7787C9.37061 10.7787 10.4828 9.66943 10.4865 8.29871C10.4865 6.92535 9.37321 5.81203 7.99984 5.81203C6.62647 5.81203 5.51318 6.92535 5.51318 8.29871Z"/>
</svg>
