<!-- Generated by IcoMoon.io -->
<svg version="1.1" xmlns="http://www.w3.org/2000/svg" width="28" height="32" viewBox="0 0 28 32">
<title>map_pin</title>
<path d="M15.532 4.228c-0.683-0.108-1.383-0.147-2.078-0.114-1.844 0.088-3.633 0.675-5.173 1.704-1.674 1.119-2.979 2.709-3.75 4.569s-0.972 3.908-0.579 5.883c0.393 1.975 1.362 3.789 2.786 5.213 0 0-0-0 0 0l6.173 6.171c0.273 0.272 0.643 0.425 1.028 0.425s0.755-0.153 1.028-0.425l6.171-6.171c0 0 0 0 0 0 1.424-1.424 2.394-3.238 2.786-5.213s0.191-4.022-0.579-5.883c-0.771-1.86-2.076-3.451-3.75-4.569-1.229-0.821-2.615-1.361-4.062-1.59zM13.316 1.208c0.893-0.042 1.793 0.007 2.672 0.147 1.86 0.295 3.643 0.989 5.223 2.045 2.153 1.438 3.831 3.483 4.822 5.875s1.25 5.024 0.745 7.564c-0.505 2.539-1.752 4.872-3.582 6.703l-6.172 6.172c-0.818 0.817-1.928 1.277-3.084 1.277s-2.266-0.459-3.084-1.276l-6.173-6.172c-1.831-1.831-3.078-4.164-3.583-6.703s-0.246-5.171 0.745-7.564c0.991-2.392 2.669-4.436 4.822-5.875 1.98-1.323 4.28-2.079 6.651-2.191zM14.558 11.442c-0.424-0.092-0.907-0.084-1.325 0.020-1.266 0.315-2.204 1.462-2.204 2.823 0 1.607 1.302 2.909 2.909 2.909s2.909-1.303 2.909-2.909c0-1.393-0.98-2.56-2.289-2.843zM12.53 8.639c0.85-0.211 1.784-0.226 2.643-0.040 2.62 0.567 4.583 2.896 4.583 5.686 0 3.213-2.605 5.818-5.818 5.818s-5.818-2.605-5.818-5.818c0-2.729 1.878-5.017 4.411-5.646z"></path>
</svg>
