<svg width="24" height="20" viewBox="0 0 24 20" xmlns="http://www.w3.org/2000/svg">
<path d="M23.8119 2.72299C22.9453 3.10746 22.0136 3.36741 21.036 3.48427C22.0337 2.88594 22.8001 1.93917 23.161 0.810299C22.2271 1.36438 21.1927 1.76643 20.0918 1.98313C19.2102 1.04373 17.954 0.457031 16.5639 0.457031C13.8948 0.457031 11.7308 2.62088 11.7308 5.28974C11.7308 5.66868 11.7735 6.03741 11.8559 6.39082C7.83911 6.18958 4.27777 4.26554 1.89418 1.34183C1.47791 2.05531 1.23977 2.88551 1.23977 3.77116C1.23977 5.44773 2.09303 6.92731 3.38992 7.79367C2.59766 7.76857 1.85234 7.55145 1.20063 7.18911C1.2002 7.20939 1.20019 7.22981 1.20019 7.25009C1.20019 9.59149 2.86614 11.5447 5.07713 11.9888C4.67178 12.0993 4.24444 12.1582 3.80391 12.1582C3.49245 12.1582 3.18965 12.1279 2.89436 12.0717C3.50948 13.9914 5.29441 15.3889 7.40937 15.4276C5.75535 16.7242 3.6713 17.4967 1.40698 17.4967C1.01681 17.4967 0.632025 17.4737 0.253906 17.4288C2.39284 18.8004 4.93345 19.6004 7.66268 19.6004C16.5526 19.6004 21.4141 12.2361 21.4141 5.85007C21.4141 5.6406 21.4094 5.43227 21.3999 5.22493C22.3445 4.54336 23.1638 3.69231 23.8119 2.72299Z"/>
</svg>
