<svg width="28" height="16" viewBox="0 0 28 16" xmlns="http://www.w3.org/2000/svg">
<path fill-rule="evenodd" clip-rule="evenodd" d="M14.0606 15.4526H15.6856C15.6856 15.4526 16.1764 15.3985 16.4273 15.1284C16.6579 14.8804 16.6506 14.4147 16.6506 14.4147C16.6506 14.4147 16.6189 12.2344 17.6307 11.9131C18.6285 11.5968 19.9097 14.0203 21.2674 14.9526C22.2944 15.6576 23.0745 15.5032 23.0745 15.5032L26.7056 15.4526C26.7056 15.4526 28.605 15.3353 27.7042 13.8422C27.6304 13.7202 27.1796 12.7377 25.0044 10.7189C22.7274 8.60603 23.0327 8.94763 25.7752 5.29254C27.4453 3.0667 28.1131 1.70784 27.9045 1.12612C27.7058 0.571508 26.4771 0.717825 26.4771 0.717825L22.3889 0.743369C22.3889 0.743369 22.0858 0.702072 21.861 0.836468C21.6414 0.968026 21.5005 1.27499 21.5005 1.27499C21.5005 1.27499 20.853 2.9973 19.9905 4.46232C18.1701 7.553 17.442 7.71663 17.1445 7.52462C16.4521 7.07687 16.6252 5.7278 16.6252 4.76886C16.6252 1.77298 17.0796 0.524249 15.7402 0.200818C15.296 0.0936707 14.9685 0.0229959 13.832 0.0112167C12.3732 -0.0035427 11.1389 0.0157579 10.4397 0.358489C9.97474 0.585983 9.6158 1.09348 9.83452 1.12272C10.1046 1.15834 10.7165 1.28762 11.0409 1.72913C11.46 2.29893 11.4453 3.57888 11.4453 3.57888C11.4453 3.57888 11.6861 7.10511 10.8831 7.54307C10.332 7.84337 9.5762 7.23014 7.95309 4.42571C7.12167 2.9895 6.49391 1.40158 6.49391 1.40158C6.49391 1.40158 6.3727 1.10483 6.15682 0.946028C5.89496 0.753587 5.52893 0.692564 5.52893 0.692564L1.64388 0.717825C1.64388 0.717825 1.06083 0.734146 0.846654 0.987894C0.656041 1.21354 0.831468 1.67988 0.831468 1.67988C0.831468 1.67988 3.8726 8.79492 7.31653 12.3806C10.4749 15.6683 14.0606 15.4526 14.0606 15.4526Z"/>
</svg>
