<svg width="39" height="39" viewBox="0 0 39 39" fill="none" xmlns="http://www.w3.org/2000/svg">
<rect x="0.5" y="0.382812" width="38" height="38" rx="12" fill="#ECF6FF"/>
<path d="M19.326 13.6046C19.326 13.3591 19.5125 13.1602 19.7427 13.1602H25.1593V18.9379C25.1593 19.1834 24.9728 19.3824 24.7427 19.3824C24.5125 19.3824 24.326 19.1834 24.326 18.9379V14.6757L20.4718 18.7868C20.37 18.9137 20.2101 18.9689 20.0579 18.9299C19.9057 18.8908 19.7869 18.764 19.7503 18.6017C19.7136 18.4393 19.7654 18.2688 19.8844 18.1602L23.7385 14.049H19.7427C19.5125 14.049 19.326 13.8501 19.326 13.6046Z" fill="#7D8EA7"/>
<path d="M13.9093 19.3824C13.6792 19.3824 13.4927 19.5814 13.4927 19.8268V25.6046H18.9093C19.1395 25.6046 19.326 25.4056 19.326 25.1602C19.326 24.9147 19.1395 24.7157 18.9093 24.7157H14.9135L18.7677 20.6046C18.8866 20.496 18.9384 20.3254 18.9018 20.1631C18.8651 20.0007 18.7463 19.874 18.5941 19.8349C18.4419 19.7959 18.282 19.8511 18.1802 19.9779L14.326 24.089V19.8268C14.326 19.5814 14.1395 19.3824 13.9093 19.3824Z" fill="#7D8EA7"/>
</svg>
