<!-- Generated by IcoMoon.io -->
<svg version="1.1" xmlns="http://www.w3.org/2000/svg" width="32" height="32" viewBox="0 0 32 32">
<title>phone</title>
<path d="M5.697 4.77c-0.394 0-0.772 0.157-1.051 0.435-0.269 0.269-0.424 0.63-0.435 1.008 0.364 5.75 2.813 11.172 6.888 15.247s9.496 6.524 15.247 6.888c0.379-0.011 0.74-0.166 1.009-0.435 0.279-0.279 0.435-0.657 0.435-1.051v-5.2l-5.535-2.214-1.64 2.733c-0.451 0.752-1.403 1.032-2.189 0.644-3.775-1.862-6.83-4.917-8.691-8.691-0.388-0.786-0.108-1.738 0.644-2.189l2.733-1.64-2.214-5.535h-5.2zM2.264 2.823c0.91-0.91 2.145-1.422 3.433-1.422h6.341c0.689 0 1.308 0.419 1.564 1.059l3.17 7.926c0.307 0.768 0.012 1.644-0.697 2.070l-2.567 1.54c1.276 2.051 3.006 3.781 5.057 5.057l1.54-2.568c0.425-0.709 1.302-1.004 2.070-0.697l7.926 3.17c0.639 0.256 1.059 0.875 1.059 1.564v6.341c0 1.287-0.512 2.522-1.422 3.433s-2.145 1.422-3.433 1.422c-0.034 0-0.068-0.001-0.102-0.003-6.594-0.401-12.813-3.201-17.484-7.872s-7.471-10.89-7.872-17.484c-0.002-0.034-0.003-0.068-0.003-0.102 0-1.287 0.511-2.522 1.422-3.433zM28.283 1.895c0.658-0.658 1.724-0.658 2.382 0s0.658 1.724 0 2.382l-5.051 5.051h2.275c0.93 0 1.684 0.754 1.684 1.684s-0.754 1.684-1.684 1.684h-6.341c-0.447 0-0.875-0.177-1.191-0.493s-0.493-0.744-0.493-1.191v-6.341c0-0.93 0.754-1.684 1.684-1.684s1.684 0.754 1.684 1.684v2.275l5.051-5.051z"></path>
</svg>
