<!-- Generated by IcoMoon.io -->
<svg version="1.1" xmlns="http://www.w3.org/2000/svg" width="32" height="32" viewBox="0 0 32 32">
<title>place</title>
<path d="M15.995 2.475c-2.271 0-4.499 0.799-6.229 2.251-1.002 0.842-1.841 1.883-2.427 3.025-1.826 3.56-0.865 6.984 1.185 10.744 2.028 3.718 4.924 7.655 6.75 10.014 0.101 0.131 0.21 0.287 0.298 0.413 0.024 0.035 0.047 0.068 0.068 0.098 0.112 0.159 0.203 0.281 0.289 0.378 0.025 0.028 0.046 0.050 0.065 0.069 0.019-0.019 0.041-0.042 0.066-0.070 0.087-0.098 0.178-0.22 0.29-0.379 0.021-0.030 0.044-0.063 0.069-0.098 0.088-0.127 0.197-0.282 0.298-0.413 1.83-2.357 4.728-6.294 6.756-10.012 2.051-3.759 3.012-7.183 1.186-10.743-0.586-1.142-1.423-2.185-2.424-3.026-1.752-1.472-4-2.251-6.242-2.251zM15.903 29.544c0-0 0.002-0.001 0.005-0.003-0.004 0.002-0.005 0.003-0.005 0.003zM16.082 29.541c0.004 0.002 0.005 0.003 0.005 0.003s-0.002-0.001-0.005-0.003zM8.175 2.831c2.184-1.833 4.978-2.831 7.82-2.831 2.801-0 5.619 0.97 7.834 2.831 1.246 1.046 2.294 2.347 3.034 3.791 2.404 4.687 0.949 9.091-1.215 13.058-2.126 3.897-5.123 7.961-6.974 10.345-0.059 0.077-0.116 0.158-0.194 0.27-0.031 0.045-0.066 0.094-0.105 0.15-0.122 0.173-0.28 0.391-0.465 0.599-0.35 0.393-0.98 0.957-1.914 0.957s-1.564-0.564-1.914-0.958c-0.185-0.208-0.342-0.426-0.464-0.599-0.039-0.056-0.074-0.105-0.105-0.15-0.078-0.112-0.135-0.193-0.194-0.27-1.846-2.384-4.841-6.447-6.966-10.344-2.164-3.967-3.619-8.37-1.215-13.058 0.742-1.446 1.791-2.745 3.037-3.791zM16 9.819c-1.439 0-2.605 1.166-2.605 2.605s1.166 2.605 2.605 2.605c1.439 0 2.605-1.166 2.605-2.605s-1.166-2.605-2.605-2.605zM10.92 12.424c0-2.806 2.274-5.080 5.080-5.080s5.080 2.274 5.080 5.080c0 2.806-2.274 5.080-5.080 5.080s-5.080-2.274-5.080-5.080z"></path>
</svg>
