<!-- Generated by IcoMoon.io -->
<svg version="1.1" xmlns="http://www.w3.org/2000/svg" width="31" height="32" viewBox="0 0 31 32">
<title>question</title>
<path d="M14.998 4.185c-6.649 0-12.089 5.508-12.089 12.364s5.44 12.364 12.089 12.364c6.649 0 12.089-5.508 12.089-12.364s-5.44-12.364-12.089-12.364zM0 16.548c0-8.407 6.687-15.273 14.998-15.273s14.998 6.866 14.998 15.273c0 8.407-6.687 15.273-14.998 15.273s-14.998-6.866-14.998-15.273zM13.442 9.463c0.687-0.266 1.429-0.352 2.158-0.25s1.419 0.391 2.006 0.835c0.587 0.444 1.052 1.030 1.355 1.7s0.435 1.406 0.385 2.14c-0.050 0.734-0.28 1.445-0.671 2.068s-0.932 1.139-1.575 1.498c-0.643 0.359-1.366 0.547-2.103 0.547-0.803-0-1.454-0.652-1.454-1.455s0.652-1.454 1.455-1.454c0.237 0 0.473-0.061 0.684-0.179s0.394-0.29 0.528-0.504c0.134-0.214 0.215-0.461 0.232-0.718s-0.029-0.514-0.134-0.746c-0.105-0.232-0.264-0.43-0.459-0.578s-0.421-0.241-0.657-0.274c-0.236-0.033-0.476-0.006-0.7 0.081s-0.426 0.231-0.586 0.422c-0.516 0.616-1.433 0.698-2.049 0.182s-0.698-1.433-0.182-2.049c0.472-0.564 1.079-1.001 1.765-1.268zM14.998 21.016c0.803 0 1.455 0.651 1.455 1.455v0.020c0 0.803-0.651 1.455-1.455 1.455s-1.454-0.651-1.454-1.455v-0.020c0-0.803 0.651-1.455 1.454-1.455z"></path>
</svg>
