<svg width="42" height="24" viewBox="0 0 42 24" fill="none" xmlns="http://www.w3.org/2000/svg">
<path d="M22.5645 11.0607L21.3656 9.14276L19.5672 12.2114L17.6853 8.14844L15.9647 12.2114L15.1195 10.6771L14.2743 9.14276L13.097 11.0607" stroke-width="1.5" stroke-linecap="round" stroke-linejoin="round"/>
<path d="M27.4941 13.6956V3.68359C27.4941 2.57902 26.3301 1.68359 24.8941 1.68359H4.09414C2.6582 1.68359 1.49414 2.57902 1.49414 3.68359V18.6836C1.49414 19.7882 2.38957 20.6836 3.49414 20.6836H6.49414" stroke-width="1.5" stroke-linecap="round" stroke-linejoin="round"/>
<path fill-rule="evenodd" clip-rule="evenodd" d="M28.5898 22.7735C26.9254 22.7735 25.5761 21.4242 25.5761 19.7598C25.5761 18.0954 26.9254 16.7461 28.5898 16.7461C30.2542 16.7461 31.6035 18.0954 31.6035 19.7598C31.6035 21.4242 30.2542 22.7735 28.5898 22.7735Z" stroke-width="1.5" stroke-linecap="round" stroke-linejoin="round"/>
<path fill-rule="evenodd" clip-rule="evenodd" d="M12.5195 22.7735C10.8551 22.7735 9.50582 21.4242 9.50582 19.7598C9.50582 18.0954 10.8551 16.7461 12.5195 16.7461C14.1839 16.7461 15.5332 18.0954 15.5332 19.7598C15.5332 21.4242 14.1839 22.7735 12.5195 22.7735Z" stroke-width="1.5" stroke-linecap="round" stroke-linejoin="round"/>
<path d="M22.5645 20.7656H18.5462" stroke-width="1.5" stroke-linecap="round" stroke-linejoin="round"/>
<path d="M27.9941 6.18359H33.2088C33.7136 6.18359 34.1997 6.3745 34.5697 6.71801L40.355 12.0901C40.7626 12.4686 40.9941 12.9996 40.9941 13.5557V18.1836C40.9941 19.2882 40.0987 20.1836 38.9941 20.1836H31.9941" stroke-width="1.5"/>
<path d="M30.9951 9.17578H32.4523C32.5775 9.17578 32.6981 9.22274 32.7903 9.30737L36.0684 12.3152C36.4043 12.6234 36.1862 13.1836 35.7303 13.1836H30.9951C30.719 13.1836 30.4951 12.9597 30.4951 12.6836V9.67578C30.4951 9.39964 30.719 9.17578 30.9951 9.17578Z" stroke-width="1.5"/>
</svg>
