<svg width="30" height="31" viewBox="0 0 30 31" fill="none" xmlns="http://www.w3.org/2000/svg">
<path fill-rule="evenodd" clip-rule="evenodd" d="M0.972656 7.69141C0.972656 4.3777 3.65895 1.69141 6.97266 1.69141H22.9727C26.2864 1.69141 28.9727 4.3777 28.9727 7.69141V23.6914C28.9727 27.0051 26.2864 29.6914 22.9727 29.6914H6.97266C3.65895 29.6914 0.972656 27.0051 0.972656 23.6914V7.69141Z" stroke="#0058A1" stroke-width="1.5" stroke-linecap="round" stroke-linejoin="round"/>
<path d="M15.7988 19.8203H22.4017" stroke="#0058A1" stroke-width="1.5" stroke-linecap="round" stroke-linejoin="round"/>
<path d="M7.54492 19.8203H10.8463" stroke="#0058A1" stroke-width="1.5" stroke-linecap="round" stroke-linejoin="round"/>
<path fill-rule="evenodd" clip-rule="evenodd" d="M15.7988 19.8198C15.7988 21.1872 14.6905 22.2957 13.3231 22.2959C11.9558 22.2961 10.8471 21.1879 10.8467 19.8206C10.8463 18.4532 11.9543 17.3444 13.3216 17.3438C13.9785 17.3435 14.6086 17.6042 15.0732 18.0686C15.5378 18.533 15.7988 19.1629 15.7988 19.8198V19.8198Z" stroke="#0058A1" stroke-width="1.5" stroke-linecap="round" stroke-linejoin="round"/>
<path d="M17.4492 11.5625H7.54492" stroke="#0058A1" stroke-width="1.5" stroke-linecap="round" stroke-linejoin="round"/>
<path fill-rule="evenodd" clip-rule="evenodd" d="M22.4014 11.5659C22.4014 10.1986 21.293 9.09005 19.9257 9.08984C18.5583 9.08964 17.4496 10.1978 17.4492 11.5652C17.4488 12.9325 18.5568 14.0414 19.9242 14.042C21.2919 14.042 22.4007 12.9336 22.4014 11.5659Z" stroke="#0058A1" stroke-width="1.5" stroke-linecap="round" stroke-linejoin="round"/>
</svg>
