<!-- Generated by IcoMoon.io -->
<svg version="1.1" xmlns="http://www.w3.org/2000/svg" width="58" height="32" viewBox="0 0 58 32">
<title>slider-arrow</title>
<path d="M14.813 0.134c-0.224 0.070-0.592 0.24-0.816 0.374-0.227 0.134-3.162 3.002-6.522 6.371-6.848 6.87-6.467 6.41-6.467 7.856s-0.384 0.979 6.515 7.901c6.704 6.72 6.634 6.659 7.846 6.797 0.618 0.070 1.434-0.128 2.003-0.486 1.238-0.781 1.766-2.432 1.238-3.862-0.189-0.515-0.451-0.803-3.475-3.843l-3.27-3.286 42.422-0.051 0.541-0.253c1.187-0.557 1.814-1.472 1.885-2.758 0.077-1.347-0.55-2.403-1.779-3.008l-0.643-0.317-42.426-0.051 3.27-3.286c3.056-3.069 3.283-3.325 3.485-3.862 0.282-0.755 0.243-1.898-0.083-2.528-0.346-0.648-0.864-1.164-1.494-1.498l-0.019-0.009c-0.646-0.304-1.622-0.394-2.211-0.198z"></path>
</svg>
