<!-- Generated by IcoMoon.io -->
<svg version="1.1" xmlns="http://www.w3.org/2000/svg" width="32" height="32" viewBox="0 0 32 32">
<title>soc-twitter</title>
<path d="M32 6.076c-1.177 0.522-2.443 0.875-3.771 1.034 1.355-0.813 2.396-2.099 2.887-3.632-1.269 0.753-2.674 1.299-4.169 1.593-1.197-1.276-2.904-2.073-4.792-2.073-3.626 0-6.565 2.939-6.565 6.565 0 0.515 0.058 1.016 0.17 1.496-5.456-0.273-10.294-2.887-13.531-6.858-0.565 0.969-0.889 2.097-0.889 3.3 0 2.277 1.159 4.287 2.921 5.464-1.076-0.034-2.089-0.329-2.974-0.821-0.001 0.028-0.001 0.055-0.001 0.083 0 3.18 2.263 5.834 5.266 6.437-0.551 0.15-1.131 0.23-1.729 0.23-0.423 0-0.834-0.041-1.236-0.117 0.836 2.607 3.26 4.506 6.133 4.558-2.247 1.761-5.078 2.811-8.153 2.811-0.53 0-1.053-0.031-1.566-0.092 2.905 1.863 6.356 2.95 10.064 2.95 12.076 0 18.679-10.003 18.679-18.678 0-0.284-0.006-0.568-0.019-0.849 1.283-0.926 2.396-2.082 3.276-3.399z"></path>
</svg>
