<!-- Generated by IcoMoon.io -->
<svg version="1.1" xmlns="http://www.w3.org/2000/svg" width="32" height="32" viewBox="0 0 32 32">
<title>soc-viber</title>
<path d="M27.267 2.969c-1.179-1.007-2.561-1.615-4.046-2.003-3.73-0.975-7.51-1.218-11.33-0.7-1.936 0.262-3.807 0.774-5.528 1.74-2.021 1.134-3.412 2.767-4.027 5.033-0.439 1.615-0.651 3.26-0.734 4.926-0.123 2.458-0.043 4.899 0.586 7.297 0.728 2.774 2.311 4.818 5.023 5.906 0.296 0.119 0.574 0.282 0.868 0.404 0.272 0.113 0.355 0.293 0.353 0.587-0.013 1.919-0.007 3.837-0.007 5.842 0.713-0.687 1.204-1.192 1.562-1.597 1.068-1.207 2.079-2.212 3.192-3.36 0.565-0.582 0.327-0.553 1.203-0.539 1.030 0.017 2.649 0.057 3.673-0.023 1.954-0.153 3.891-0.401 5.777-0.968 2.394-0.719 4.312-2.001 5.285-4.421 0.258-0.643 0.506-1.289 0.67-1.962 0.935-3.853 0.81-7.712 0.029-11.567-0.363-1.79-1.129-3.381-2.549-4.594zM15.368 5.305c0.020-0.371 0.233-0.514 0.582-0.497 2.973 0.142 5.211 1.026 6.932 3.343 1.009 1.358 1.553 3.191 1.608 4.894 0 0.253 0.011 0.506-0.003 0.759-0.016 0.282-0.139 0.497-0.455 0.5-0.32 0.003-0.477-0.17-0.499-0.495-0.084-1.255-0.326-2.477-0.806-3.644-0.929-2.261-2.709-3.479-4.998-4.067-0.605-0.156-1.217-0.284-1.842-0.334-0.282-0.023-0.54-0.083-0.519-0.457zM18.367 8.462c-0.605-0.212-1.217-0.382-1.852-0.474-0.308-0.045-0.527-0.208-0.471-0.568 0.054-0.339 0.275-0.473 0.6-0.442 2.075 0.197 3.696 0.952 4.812 2.749 0.522 0.84 0.829 2.031 0.783 2.924-0.033 0.633-0.129 0.796-0.491 0.787-0.527-0.015-0.449-0.448-0.489-0.766-0.062-0.491-0.169-0.97-0.302-1.444-0.384-1.369-1.243-2.295-2.59-2.766zM20.123 11.961c-0.020 0.176-0.021 0.297-0.049 0.412-0.056 0.231-0.197 0.371-0.449 0.375-0.255 0.004-0.393-0.147-0.459-0.367-0.046-0.152-0.058-0.313-0.088-0.47-0.162-0.836-0.64-1.384-1.471-1.607-0.102-0.027-0.208-0.042-0.31-0.070-0.262-0.073-0.589-0.078-0.6-0.462-0.009-0.318 0.233-0.507 0.669-0.534 0.296-0.018 0.755 0.128 1.021 0.257 1.092 0.533 1.602 1.282 1.736 2.465zM24.492 20.772c-0.576 1.305-1.562 2.166-2.942 2.556-0.5 0.142-0.985 0.020-1.442-0.174-6.291-2.678-10.837-7.096-13.412-13.474-0.186-0.46-0.294-0.94-0.277-1.379 0.003-1.642 1.445-3.161 3.024-3.248 0.437-0.024 0.814 0.124 1.129 0.419 1.111 1.040 2.003 2.247 2.656 3.62 0.354 0.745 0.206 1.27-0.432 1.804-0.102 0.085-0.212 0.161-0.32 0.239-0.846 0.619-1.035 1.251-0.631 2.226 0.663 1.599 1.744 2.854 3.201 3.783 0.55 0.351 1.112 0.684 1.746 0.868 0.58 0.169 1.046-0.012 1.419-0.47 0.042-0.052 0.081-0.106 0.12-0.16 0.811-1.123 1.679-1.318 2.855-0.588 1.008 0.626 1.958 1.339 2.861 2.11 0.611 0.521 0.767 1.135 0.444 1.867z"></path>
</svg>
