<!-- Generated by IcoMoon.io -->
<svg version="1.1" xmlns="http://www.w3.org/2000/svg" width="32" height="32" viewBox="0 0 32 32">
<title>soc-vk</title>
<path d="M15.657 25.051h1.912c0 0 0.578-0.064 0.873-0.382 0.271-0.292 0.263-0.84 0.263-0.84s-0.037-2.566 1.154-2.944c1.174-0.372 2.682 2.48 4.28 3.577 1.209 0.83 2.127 0.648 2.127 0.648l4.274-0.060c0 0 2.236-0.138 1.175-1.895-0.087-0.144-0.617-1.3-3.178-3.676-2.68-2.487-2.321-2.085 0.907-6.387 1.966-2.62 2.752-4.219 2.506-4.904-0.234-0.653-1.68-0.481-1.68-0.481l-4.812 0.030c0 0-0.357-0.049-0.621 0.11-0.258 0.155-0.424 0.516-0.424 0.516s-0.762 2.027-1.777 3.751c-2.143 3.638-3 3.83-3.35 3.604-0.815-0.527-0.611-2.115-0.611-3.243 0-3.526 0.535-4.996-1.041-5.376-0.523-0.126-0.908-0.209-2.246-0.223-1.717-0.017-3.17 0.005-3.993 0.409-0.547 0.268-0.97 0.865-0.712 0.899 0.318 0.042 1.038 0.194 1.42 0.714 0.493 0.671 0.476 2.177 0.476 2.177s0.284 4.15-0.662 4.666c-0.649 0.353-1.538-0.368-3.448-3.669-0.979-1.69-1.717-3.559-1.717-3.559s-0.143-0.349-0.397-0.536c-0.308-0.226-0.739-0.298-0.739-0.298l-4.573 0.030c0 0-0.686 0.019-0.938 0.318-0.224 0.266-0.018 0.814-0.018 0.814s3.579 8.374 7.633 12.594c3.717 3.869 7.937 3.616 7.937 3.616z"></path>
</svg>
