<!-- Generated by IcoMoon.io -->
<svg version="1.1" xmlns="http://www.w3.org/2000/svg" width="32" height="32" viewBox="0 0 32 32">
<title>soc-telegram</title>
<path d="M29.885 2.688l-28.68 10.858c-1.569 0.453-1.519 2.002-0.358 2.375l7.186 2.243 2.749 8.429c0.334 0.922 0.607 1.27 1.178 1.278 0.6 0.008 0.83-0.211 1.453-0.762 0.729-0.685 1.841-1.763 3.596-3.47l7.475 5.522c1.376 0.759 2.369 0.366 2.711-1.278l4.686-23.179c0.502-2.014-0.68-2.615-1.997-2.017zM9.161 17.648l16.337-10.249c0.805-0.54 1.057 0.063 0.694 0.478l-13.559 12.196-0.696 6.087-2.777-8.512z"></path>
</svg>
