<!-- Generated by IcoMoon.io -->
<svg version="1.1" xmlns="http://www.w3.org/2000/svg" width="32" height="32" viewBox="0 0 32 32">
<title>soc-whatsapp</title>
<path d="M16.288 0c-8.609 0-15.588 6.979-15.588 15.588 0 2.945 0.817 5.699 2.237 8.049l-2.814 8.363 8.631-2.763c2.234 1.234 4.802 1.939 7.535 1.939 8.611 0 15.59-6.98 15.59-15.588 0-8.609-6.979-15.588-15.59-15.588zM16.288 28.564c-2.635 0-5.090-0.791-7.14-2.145l-4.987 1.596 1.621-4.819c-1.553-2.139-2.471-4.768-2.471-7.608 0-7.156 5.822-12.977 12.977-12.977 7.157 0 12.978 5.822 12.978 12.977s-5.821 12.976-12.978 12.976zM23.597 19.13c-0.391-0.214-2.31-1.25-2.67-1.396s-0.623-0.222-0.903 0.166c-0.28 0.387-1.077 1.255-1.318 1.512-0.242 0.257-0.476 0.281-0.867 0.067-0.39-0.213-1.657-0.682-3.126-2.094-1.143-1.099-1.893-2.431-2.11-2.838s-0.001-0.614 0.205-0.805c0.186-0.172 0.416-0.451 0.623-0.675s0.28-0.388 0.423-0.649c0.142-0.26 0.085-0.495-0.007-0.698s-0.815-2.19-1.116-2.999c-0.302-0.809-0.638-0.688-0.87-0.698-0.232-0.008-0.496-0.052-0.762-0.061s-0.7 0.074-1.080 0.458c-0.38 0.384-1.444 1.308-1.517 3.267-0.073 1.957 1.281 3.903 1.47 4.175s2.587 4.517 6.572 6.263c3.986 1.745 4.007 1.213 4.738 1.174s2.39-0.875 2.757-1.791c0.367-0.916 0.396-1.713 0.303-1.882s-0.354-0.28-0.745-0.493z"></path>
</svg>
