<!-- Generated by IcoMoon.io -->
<svg version="1.1" xmlns="http://www.w3.org/2000/svg" width="32" height="32" viewBox="0 0 32 32">
<title>soc-skype</title>
<path d="M30.838 18.619c0.149-0.849 0.227-1.722 0.227-2.613 0-8.291-6.722-15.013-15.014-15.013-0.893 0-1.767 0.079-2.617 0.228-1.318-0.763-2.847-1.202-4.479-1.202-4.946 0-8.955 4.009-8.955 8.953 0 1.661 0.454 3.216 1.242 4.548-0.135 0.809-0.206 1.639-0.206 2.485 0 8.291 6.722 15.013 15.014 15.013 0.87 0 1.723-0.075 2.553-0.217 1.309 0.75 2.825 1.18 4.442 1.18 4.945 0 8.955-4.009 8.955-8.954 0-1.603-0.424-3.107-1.162-4.409zM10.002 19.137c1.495-0.080 1.994 1.699 3.106 2.467 1.233 0.835 5.105 1.723 6.242-0.865 0.84-2.235-1.628-2.575-4.059-3.173-3.721-0.796-6.836-1.756-6.809-5.558-0.017-3.666 2.886-5.174 5.677-5.427 3.32-0.296 5.769 0.401 7.586 1.879 2.118 1.806 0.975 3.779-0.538 3.821-2.143 0.059-2.115-2.791-5.651-2.746-3.056-0.048-4.455 2.895-1.262 3.926 4.477 1.183 8.067 1.039 9.225 4.814 0.89 3.531-1.25 6.823-6.471 7.246-4.15 0.219-6.336-0.944-7.755-2.363-1.723-1.96-0.912-3.934 0.709-4.021z"></path>
</svg>
