<!-- Generated by IcoMoon.io -->
<svg version="1.1" xmlns="http://www.w3.org/2000/svg" width="32" height="32" viewBox="0 0 32 32">
<title>soc-ok</title>
<path d="M16 16.516c4.556 0 8.259-3.703 8.259-8.256 0-4.555-3.703-8.26-8.259-8.26-4.555 0-8.259 3.705-8.259 8.26 0 4.553 3.704 8.256 8.259 8.256zM16 4.84c1.886 0 3.42 1.534 3.42 3.42 0 1.884-1.534 3.418-3.42 3.418-1.884 0-3.42-1.534-3.42-3.418 0-1.886 1.536-3.42 3.42-3.42zM19.342 23.253c1.681-0.383 3.303-1.048 4.796-1.986 1.13-0.712 1.471-2.207 0.759-3.337-0.712-1.132-2.205-1.473-3.337-0.761-3.383 2.127-7.739 2.126-11.12 0-1.132-0.712-2.625-0.371-3.336 0.761-0.712 1.131-0.373 2.624 0.758 3.337 1.493 0.937 3.115 1.603 4.796 1.986l-4.617 4.617c-0.944 0.945-0.944 2.477 0.001 3.422 0.473 0.472 1.092 0.708 1.71 0.708 0.62 0 1.24-0.236 1.712-0.708l4.536-4.537 4.539 4.537c0.944 0.944 2.476 0.944 3.421 0s0.946-2.478 0-3.422l-4.618-4.617z"></path>
</svg>
