<!-- Generated by IcoMoon.io -->
<svg version="1.1" xmlns="http://www.w3.org/2000/svg" width="32" height="32" viewBox="0 0 32 32">
<title>soc-linkedin</title>
<path d="M0.526 10.636h6.635v21.336h-6.635v-21.336zM3.844 0.028c2.12 0 3.843 1.723 3.843 3.844 0 2.123-1.723 3.846-3.843 3.846-2.126 0-3.844-1.723-3.844-3.846 0-2.121 1.718-3.844 3.844-3.844zM11.321 10.636h6.362v2.914h0.091c0.886-1.677 3.049-3.446 6.276-3.446 6.711 0 7.95 4.418 7.95 10.166v11.703h-6.624v-10.375c0-2.476-0.048-5.658-3.447-5.658-3.451 0-3.977 2.696-3.977 5.479v10.555h-6.63v-21.336z"></path>
</svg>
