<!-- Generated by IcoMoon.io -->
<svg version="1.1" xmlns="http://www.w3.org/2000/svg" width="32" height="32" viewBox="0 0 32 32">
<title>soc-yadisk</title>
<path d="M10.594 25.983c-0.537 0.021-1.114-0.070-1.692-0.029-0.753 0.054-1.507 0.047-2.259 0.022-1.481-0.048-2.951-0.196-4.371-0.655-0.606-0.195-1.184-0.449-1.673-0.873-0.612-0.53-0.759-1.198-0.418-1.929 0.293-0.63 0.771-1.109 1.285-1.554 1.014-0.877 2.161-1.555 3.344-2.172 2.395-1.248 4.91-2.199 7.479-3.014 1.936-0.615 3.898-1.134 5.884-1.561 1.584-0.34 3.179-0.623 4.79-0.809 1.024-0.118 2.051-0.201 3.082-0.232 1.237-0.037 2.465 0.010 3.678 0.272 0.552 0.119 1.087 0.293 1.557 0.621 0.484 0.339 0.768 0.784 0.715 1.399-0.025 0.292-0.115 0.566-0.243 0.828-0.351 0.718-0.873 1.304-1.445 1.849-1.182 1.127-2.523 2.039-3.948 2.82-1.106 0.606-2.175 1.277-3.291 1.863-2.017 1.059-4.158 1.787-6.364 2.335-1.225 0.304-2.463 0.535-3.716 0.677-0.78 0.088-1.564 0.149-2.393 0.14zM11.498 24.723c0.747 0.004 1.429-0.078 2.108-0.182 1.398-0.214 2.772-0.542 4.13-0.933 1.454-0.42 2.887-0.898 4.241-1.585 0.521-0.265 1.033-0.551 1.427-0.999 0.363-0.413 0.279-0.791-0.219-1.017-0.104-0.047-0.213-0.085-0.324-0.113-0.345-0.088-0.698-0.122-1.053-0.133-0.892-0.026-1.776 0.067-2.655 0.204-1.463 0.23-2.898 0.58-4.305 1.039-1.32 0.43-2.614 0.924-3.805 1.651-0.383 0.234-0.756 0.485-1.039 0.84-0.41 0.514-0.281 0.911 0.352 1.1 0.391 0.116 0.794 0.134 1.142 0.127zM0.522 19.685c0.142-0.197 0.384-0.447 0.405-0.469 0.678-0.689 1.025-0.988 1.718-1.662 0.916-0.89 1.83-1.783 2.624-2.79 0.551-0.698 0.88-1.503 1.179-2.326 0.313-0.862 0.63-1.722 1.083-2.526 0.805-1.428 1.975-2.443 3.475-3.083 0.955-0.407 1.949-0.674 2.982-0.781 1.827-0.19 3.482 0.276 4.986 1.317 0.58 0.402 1.138 0.834 1.656 1.31 1.031 0.947 2.251 1.521 3.573 1.923 1.615 0.491 3.268 0.829 4.902 1.243 0.168 0.043 0.334 0.092 0.494 0.169-0.289-0.060-0.578-0.126-0.869-0.178-0.666-0.118-1.337-0.198-2.013-0.241-0.665-0.042-1.33-0.071-1.996-0.055-1.075 0.024-2.146 0.096-3.215 0.218-2.233 0.253-4.428 0.696-6.602 1.255-2.365 0.609-4.692 1.339-6.953 2.269-1.984 0.816-3.897 1.769-5.663 2.999-0.574 0.4-1.126 0.829-1.64 1.304-0.035 0.033-0.074 0.062-0.127 0.105zM13.242 11.152c0.573 0 1.119-0.278 1.431-0.729 0.425-0.614 0.23-1.384-0.436-1.722-0.7-0.355-1.652-0.125-2.114 0.509-0.213 0.293-0.308 0.614-0.229 0.972 0.127 0.581 0.674 0.971 1.348 0.971zM17.403 7.866c-0.044 0-0.087-0.003-0.131 0-0.784 0.059-1.093 0.658-0.629 1.287 0.57 0.772 1.351 1.152 2.326 1.046 0.519-0.057 0.779-0.365 0.717-0.806-0.020-0.142-0.077-0.273-0.158-0.391-0.513-0.744-1.254-1.063-2.125-1.136zM10.223 10.796c0.013-0.697-0.493-1.025-1.129-0.732-0.334 0.153-0.608 0.384-0.836 0.669-0.382 0.477-0.638 1.004-0.61 1.633 0.022 0.505 0.354 0.759 0.849 0.66 0.053-0.011 0.107-0.023 0.158-0.040 0.825-0.268 1.552-1.283 1.569-2.19z"></path>
</svg>
