<!-- Generated by IcoMoon.io -->
<svg version="1.1" xmlns="http://www.w3.org/2000/svg" width="32" height="32" viewBox="0 0 32 32">
<title>soc-vimeo</title>
<path d="M31.996 7.476c0.045 1.608-0.282 3.098-0.842 4.544-0.969 2.503-2.38 4.757-3.936 6.924-2.149 2.995-4.395 5.91-7.239 8.298-1.395 1.17-2.892 2.146-4.722 2.525-1.272 0.263-2.344-0.079-3.239-0.964-1.279-1.264-2.028-2.852-2.514-4.549-0.909-3.175-1.752-6.37-2.631-9.555-0.291-1.052-0.647-2.081-1.159-3.050-0.109-0.205-0.223-0.408-0.352-0.6-0.761-1.131-1.273-1.244-2.425-0.526-0.409 0.255-0.813 0.52-1.205 0.801-0.216 0.155-0.358 0.163-0.527-0.068-0.348-0.475-0.717-0.936-1.085-1.396-0.145-0.182-0.179-0.329 0.023-0.5 2.264-1.913 4.311-4.082 6.768-5.767 0.888-0.608 1.818-1.129 2.965-1.088 1.158 0.040 2.063 0.516 2.734 1.444 0.763 1.057 1.089 2.28 1.3 3.54 0.486 2.905 0.871 5.828 1.604 8.687 0.244 0.952 0.522 1.896 1.009 2.76 0.595 1.058 1.245 1.195 2.064 0.32 1.777-1.9 3.111-4.087 3.974-6.548 0.192-0.546 0.21-1.122 0.181-1.696-0.056-1.098-0.69-1.746-1.786-1.831-0.759-0.059-1.496 0.053-2.216 0.298-0.329 0.112-0.489 0.057-0.355-0.338 0.702-2.062 1.677-3.959 3.44-5.323 2.071-1.603 4.44-2.002 6.946-1.417 1.921 0.448 2.729 1.932 3.059 3.739 0.084 0.455 0.118 0.92 0.168 1.335z"></path>
</svg>
