<!-- Generated by IcoMoon.io -->
<svg version="1.1" xmlns="http://www.w3.org/2000/svg" width="32" height="32" viewBox="0 0 32 32">
<title>soc-yandex</title>
<path d="M23.168-0h-4.85c-4.763 0-8.805 3.626-8.805 10.667 0 4.224 1.958 7.338 5.445 8.875l-6.508 11.776c-0.213 0.385 0 0.683 0.339 0.683h3.020c0.255 0 0.425-0.085 0.511-0.298l5.913-11.564h2.128v11.564c0 0.128 0.128 0.298 0.296 0.298h2.639c0.255 0 0.341-0.128 0.341-0.341v-31.233c0-0.299-0.17-0.427-0.468-0.427zM20.36 17.408h-1.788c-2.807 0-5.529-2.048-5.529-7.168 0-5.334 2.552-7.51 5.147-7.51h2.17v14.678z"></path>
</svg>
