<!-- Generated by IcoMoon.io -->
<svg version="1.1" xmlns="http://www.w3.org/2000/svg" width="32" height="32" viewBox="0 0 32 32">
<title>soc-youtube</title>
<path d="M31.446 8.436c-0.392-1.702-1.784-2.957-3.459-3.144-3.968-0.443-7.984-0.445-11.982-0.443-3.999-0.002-8.015 0-11.983 0.443-1.676 0.188-3.067 1.442-3.458 3.144-0.557 2.424-0.563 5.068-0.563 7.564s0 5.14 0.557 7.564c0.391 1.701 1.783 2.956 3.459 3.144 3.968 0.443 7.984 0.445 11.983 0.443 3.998 0.002 8.015 0 11.982-0.443 1.675-0.187 3.068-1.442 3.459-3.143 0.557-2.424 0.56-5.069 0.56-7.564s0.003-5.141-0.554-7.564zM12.644 20.362v-8.872l8.46 4.436-8.46 4.436z"></path>
</svg>
