<!-- Generated by IcoMoon.io -->
<svg version="1.1" xmlns="http://www.w3.org/2000/svg" width="30" height="32" viewBox="0 0 30 32">
<title>soc-mailru</title>
<path d="M19.548 0.748c-3.118-0.943-6.456-0.857-9.521 0.245s-5.693 3.163-7.495 5.876c-1.802 2.713-2.683 5.934-2.511 9.187s1.387 6.363 3.465 8.871 4.909 4.28 8.073 5.053c2.985 0.73 6.117 0.534 8.982-0.555 0.172-0.065 0.342-0.134 0.512-0.205 0.857-0.362 1.258-1.35 0.897-2.207s-1.35-1.258-2.207-0.897c-0.132 0.056-0.264 0.109-0.398 0.16-2.228 0.846-4.664 0.999-6.986 0.431-2.461-0.601-4.663-1.98-6.279-3.93s-2.561-4.37-2.695-6.9c-0.134-2.53 0.551-5.035 1.953-7.145s3.446-3.713 5.83-4.57c2.384-0.858 4.98-0.924 7.405-0.191s4.549 2.229 6.057 4.264c2.081 2.807 2.318 5.942 2.318 9.283 0 0.546-0.217 1.069-0.603 1.456s-0.91 0.603-1.456 0.603c-0.546 0-1.070-0.217-1.456-0.603-0.243-0.243-0.39-0.521-0.483-0.876-0.249-0.95-0.113-1.972-0.148-2.941-0.023-0.633-0.12-1.244-0.256-1.811-0.207-0.865-0.561-1.72-1.149-2.541-1.389-1.939-3.666-3.207-6.24-3.207-4.237 0-7.673 3.435-7.673 7.673s3.435 7.672 7.673 7.672c2.094 0 3.99-0.838 5.373-2.196 0.152 0.209 0.325 0.413 0.521 0.609 1.018 1.018 2.398 1.589 3.837 1.589s2.82-0.572 3.837-1.589c1.018-1.018 1.59-2.398 1.59-3.837v-2.243c0.004-3.257-1.041-6.429-2.98-9.046s-4.67-4.539-7.788-5.482zM10.853 15.271c0-2.377 1.927-4.304 4.304-4.304 1.442 0 2.718 0.707 3.502 1.801 0.304 0.425 0.493 0.868 0.611 1.363 0.185 0.775 0.224 1.479 0.086 2.091-0.071 0.316-0.177 0.619-0.314 0.904-0.695 1.452-2.175 2.449-3.885 2.449-2.377 0-4.304-1.927-4.304-4.304z"></path>
</svg>
