<!-- Generated by IcoMoon.io -->
<svg version="1.1" xmlns="http://www.w3.org/2000/svg" width="32" height="32" viewBox="0 0 32 32">
<title>soc-pinterest</title>
<path d="M16.749 0c-8.733 0-13.137 6.261-13.137 11.482 0 3.161 1.197 5.974 3.764 7.022 0.421 0.172 0.798 0.006 0.92-0.46 0.085-0.323 0.285-1.137 0.375-1.475 0.123-0.461 0.075-0.623-0.265-1.025-0.74-0.873-1.213-2.004-1.213-3.605 0-4.645 3.476-8.803 9.051-8.803 4.937 0 7.648 3.016 7.648 7.044 0 5.3-2.345 9.773-5.828 9.773-1.923 0-3.363-1.59-2.901-3.541 0.552-2.329 1.623-4.841 1.623-6.522 0-1.505-0.808-2.759-2.479-2.759-1.966 0-3.545 2.034-3.545 4.758 0 1.735 0.586 2.908 0.586 2.908s-2.011 8.523-2.364 10.015c-0.702 2.973-0.105 6.617-0.055 6.985 0.029 0.218 0.31 0.27 0.437 0.105 0.181-0.236 2.523-3.127 3.319-6.015 0.225-0.818 1.293-5.052 1.293-5.052 0.639 1.218 2.505 2.291 4.49 2.291 5.909 0 9.918-5.387 9.918-12.597 0-5.452-4.619-10.53-11.638-10.53z"></path>
</svg>
