<!-- Generated by IcoMoon.io -->
<svg version="1.1" xmlns="http://www.w3.org/2000/svg" width="32" height="32" viewBox="0 0 32 32">
<title>soc-gplus</title>
<path d="M28.451 14.231v-3.549h-2.531v3.549h-3.55v2.531h3.55v3.549h2.531v-3.549h3.549v-2.531h-3.549zM10.178 13.962v4.058h5.438c-0.168 0.853-0.51 1.636-1.115 2.296-2.18 2.379-6.243 2.355-8.569-0.039s-2.301-6.255 0.057-8.617c2.242-2.247 5.855-2.344 8.039-0.207l-0.004 0.005 2.964-2.964c-3.97-3.611-10.094-3.556-13.959 0.258-3.999 3.945-4.042 10.392-0.096 14.39s10.786 4.038 14.484 0.066c2.231-2.398 2.873-5.836 2.341-9.246h-9.578z"></path>
</svg>
