<!-- Generated by IcoMoon.io -->
<svg version="1.1" xmlns="http://www.w3.org/2000/svg" width="34" height="32" viewBox="0 0 34 32">
<title>spinner11</title>
<path d="M21.199 10.355c0 0.535 0.434 0.969 0.969 0.969h9.724v-9.716c0-0.538-0.436-0.973-0.973-0.973s-0.973 0.436-0.973 0.973v6.347c-3.749-5.49-10.736-7.751-16.99-5.497s-10.194 8.45-9.581 15.069c0.614 6.619 5.625 11.987 12.187 13.052s13.014-2.441 15.69-8.526c0.2-0.499-0.031-1.066-0.524-1.282s-1.067-0.003-1.299 0.482c-2.323 5.291-7.947 8.325-13.644 7.36s-10.010-5.679-10.462-11.44c-0.453-5.761 3.070-11.092 8.547-12.934s11.505 0.275 14.626 5.138h-6.32c-0.26-0.002-0.51 0.1-0.694 0.284s-0.286 0.434-0.284 0.694z"></path>
</svg>
