<!-- Generated by IcoMoon.io -->
<svg version="1.1" xmlns="http://www.w3.org/2000/svg" width="30" height="32" viewBox="0 0 30 32">
<title>star</title>
<path d="M14.89 0.632c0.658 0 1.255 0.383 1.53 0.98l3.703 8.050 8.231 1.28c0.62 0.096 1.135 0.53 1.336 1.124s0.055 1.252-0.379 1.705l-6.033 6.301 1.427 8.925c0.102 0.639-0.171 1.28-0.702 1.649s-1.227 0.402-1.79 0.083l-7.315-4.136-7.333 4.137c-0.563 0.318-1.259 0.285-1.789-0.084s-0.803-1.010-0.701-1.648l1.427-8.925-6.033-6.301c-0.434-0.453-0.58-1.11-0.379-1.705s0.716-1.028 1.337-1.124l8.231-1.28 3.703-8.050c0.275-0.598 0.872-0.98 1.53-0.98zM14.89 6.346l-2.551 5.545c-0.236 0.513-0.713 0.874-1.271 0.96l-5.933 0.923 4.378 4.573c0.365 0.381 0.53 0.91 0.447 1.431l-1.008 6.303 5.12-2.888c0.514-0.29 1.143-0.29 1.656 0.001l5.099 2.883-1.007-6.298c-0.083-0.521 0.082-1.050 0.446-1.431l4.378-4.573-5.933-0.923c-0.558-0.087-1.035-0.447-1.271-0.96l-2.551-5.545z"></path>
</svg>
