<svg width="22" height="22" viewBox="0 0 22 22" xmlns="http://www.w3.org/2000/svg">
<path fill-rule="evenodd" clip-rule="evenodd" d="M11.0007 0.332031C5.10962 0.332031 0.333984 5.10758 0.333984 10.9987C0.333984 16.8898 5.10962 21.6654 11.0007 21.6654C16.8917 21.6654 21.6673 16.8898 21.6673 10.9987C21.6673 8.16976 20.5435 5.45654 18.5431 3.45622C16.5427 1.45589 13.8296 0.332031 11.0007 0.332031ZM7.80355 5.0988C5.65499 6.26302 4.32157 8.51514 4.33398 10.9588C4.34599 14.1172 6.57267 16.8338 9.66732 17.4655L9.4873 18.4855C6.4342 17.8927 4.03739 15.5215 3.41203 12.4749C2.78662 9.42822 4.05546 6.30452 6.62817 4.55697C9.20089 2.80941 12.5723 2.78125 15.174 4.48551L14.6073 5.39209C12.5669 4.04736 9.95207 3.93457 7.80355 5.0988ZM11.614 6.16536V11.2653L14.954 13.5387C15.1666 13.6644 15.2923 13.8973 15.2806 14.144C15.269 14.3908 15.1218 14.6108 14.8982 14.716C14.6747 14.821 14.4114 14.7938 14.214 14.6453L10.2806 11.9787V6.16536C10.2806 5.7972 10.5791 5.4987 10.9473 5.4987C11.3155 5.4987 11.614 5.7972 11.614 6.16536ZM1.66732 10.9987C1.66732 16.1533 5.84599 20.332 11.0007 20.332C13.476 20.332 15.85 19.3486 17.6003 17.5983C19.3507 15.848 20.334 13.4741 20.334 10.9987C20.334 5.84408 16.1553 1.66536 11.0007 1.66536C5.84599 1.66536 1.66732 5.84408 1.66732 10.9987Z"/>
</svg>
