<svg width="19" height="19" viewBox="0 0 19 19" fill="none" xmlns="http://www.w3.org/2000/svg">
<path d="M12.1391 3.0919H11.1363V2.11024H7.86412V3.0919H6.86133V2.11024C6.86062 1.54729 7.30184 1.08284 7.86412 1.05469H11.1363C11.6986 1.08284 12.1398 1.54729 12.1391 2.11024V3.0919Z" fill="#0058A1"/>
<path d="M6.86133 6.86024H7.91688V14.7769H6.86133V6.86024Z" fill="#0058A1"/>
<path d="M12.1391 6.86024H11.0836V14.7769H12.1391V6.86024Z" fill="#0058A1"/>
<path d="M16.2452 4.74913H2.63911C2.34761 4.74913 2.11133 4.51282 2.11133 4.22135C2.11133 3.92989 2.34761 3.69358 2.63911 3.69358H16.2452C16.5367 3.69358 16.773 3.92989 16.773 4.22135C16.773 4.51282 16.5367 4.74913 16.2452 4.74913Z" fill="#0058A1"/>
<path d="M4.67632 17.9436H14.3241C14.7343 17.9339 15.1238 17.7616 15.4069 17.4646C15.69 17.1677 15.8435 16.7704 15.8336 16.3602V5.92607H14.778V16.3602C14.7882 16.4905 14.746 16.6194 14.6608 16.7185C14.5756 16.8175 14.4544 16.8786 14.3241 16.888H4.67632C4.54602 16.8786 4.42483 16.8175 4.33963 16.7185C4.25446 16.6194 4.21226 16.4905 4.22244 16.3602V5.92607H3.16688V16.3602C3.15696 16.7704 3.31046 17.1677 3.59354 17.4646C3.87666 17.7616 4.26615 17.9339 4.67632 17.9436Z" fill="#0058A1"/>
</svg>
